{
copyright = "Copyright (c) 2011, Cyreal (www.cyreal.org) with Reserved Font Name "Rationale".";
designer = "Cyreal (www.cyreal.org)";
designerURL = "http://cyreal.org";
familyName = Rationale;
customParameters = (
{
name = glyphOrder;
value = (
.notdef,
nonmarkingreturn,
space,
exclam,
quotedbl,
numbersign,
dollar,
percent,
ampersand,
quotesingle,
parenleft,
parenright,
asterisk,
plus,
comma,
hyphen,
period,
slash,
zero,
one,
three,
five,
six,
seven,
eight,
nine,
colon,
semicolon,
less,
equal,
greater,
question,
at,
A,
B,
C,
D,
E,
F,
H,
I,
J,
K,
L,
N,
O,
P,
Q,
R,
S,
T,
U,
X,
Y,
Z,
bracketleft,
backslash,
bracketright,
underscore,
grave,
b,
c,
d,
e,
f,
h,
i,
j,
k,
l,
m,
n,
o,
p,
q,
r,
s,
t,
u,
x,
y,
z,
braceleft,
bar,
braceright,
asciitilde,
noBreak,
exclamdown,
sterling,
yen,
brokenbar,
section,
dieresis,
copyright,
ordfeminine,
guillemotleft,
logicalnot,
uni00AD,
registered,
macron,
degree,
plusminus,
acute,
paragraph,
periodcentered,
cedilla,
ordmasculine,
guillemotright,
onequarter,
onehalf,
threequarters,
questiondown,
multiply,
eth,
divide,
OE,
circumflex,
ring,
endash,
emdash,
quoteleft,
quoteright,
quotesinglbase,
quotedblleft,
quotedblright,
quotedblbase,
bullet,
guilsinglleft,
guilsinglright,
fraction,
Euro,
currency,
mu,
twosuperior,
threesuperior,
onesuperior,
minus,
caron,
nbspace,
thorn,
Thorn,
germandbls,
dotlessi,
ae,
Eth,
cent,
AE,
V,
v,
w,
tilde,
oslash,
Oslash,
asciicircum,
two,
G,
four,
foursuperior,
a,
ccedilla,
ograve,
odieresis,
oacute,
ocircumflex,
otilde,
agrave,
adieresis,
aacute,
acircumflex,
aring,
atilde,
egrave,
edieresis,
eacute,
ecircumflex,
igrave,
iacute,
icircumflex,
idieresis,
Agrave,
Adieresis,
Aacute,
Acircumflex,
Aring,
Atilde,
Egrave,
Edieresis,
Eacute,
Ecircumflex,
Igrave,
Idieresis,
Iacute,
Icircumflex,
Ograve,
Odieresis,
Oacute,
Ocircumflex,
Otilde,
Ugrave,
Udieresis,
Uacute,
Ucircumflex,
ntilde,
Ntilde,
Ccedilla,
ugrave,
uacute,
ucircumflex,
udieresis,
yacute,
ydieresis,
oe,
foundryicon,
.null,
g,
M,
W,
Yacute
);
},
{

glyphs = (
{
glyphname = exclam;
layers = (
{
layerId = "0D43471E-84ED-412C-B4E5-2801B83B9DAE";
name = public.background;
paths = (
{
closed = 1;
nodes = (
"99 700 LINE SMOOTH",
"78 700 OFFCURVE",
"72 694 OFFCURVE",
"72 673 CURVE SMOOTH",
"72 160 LINE",
"125 160 LINE SMOOTH",
"146 160 OFFCURVE",
"152 166 OFFCURVE",
"152 187 CURVE SMOOTH",
"152 700 LINE"
);
},
{
closed = 1;
nodes = (
"160 53 LINE SMOOTH",
"160 74 OFFCURVE",
"154 80 OFFCURVE",
"133 80 CURVE SMOOTH",
"72 80 LINE",
"72 27 LINE SMOOTH",
"72 6 OFFCURVE",
"78 0 OFFCURVE",
"99 0 CURVE SMOOTH",
"160 0 LINE"
);
}
);
width = 226;
},
{
layerId = "02C7D3CC-A397-42E8-8789-73F6D8E29B25";
paths = (
{
closed = 1;
nodes = (
"99 700 LINE SMOOTH",
"78 700 OFFCURVE",
"72 694 OFFCURVE",
"72 673 CURVE SMOOTH",
"72 160 LINE",
"125 160 LINE SMOOTH",
"146 160 OFFCURVE",
"152 166 OFFCURVE",
"152 187 CURVE SMOOTH",
"152 700 LINE"
);
},
{
closed = 1;
nodes = (
"160 53 LINE SMOOTH",
"160 74 OFFCURVE",
"154 80 OFFCURVE",
"133 80 CURVE SMOOTH",
"72 80 LINE",
"72 27 LINE SMOOTH",
"72 6 OFFCURVE",
"78 0 OFFCURVE",
"99 0 CURVE SMOOTH",
"160 0 LINE"
);
}
);
width = 226;
}
);
unicode = 0021;
},
{
glyphname = quotedbl;
layers = (
{
layerId = "0D43471E-84ED-412C-B4E5-2801B83B9DAE";
name = public.background;
paths = (
{
closed = 1;
nodes = (
"129 673 LINE SMOOTH",
"129 694 OFFCURVE",
"123 700 OFFCURVE",
"102 700 CURVE SMOOTH",
"61 700 LINE",
"61 567 LINE SMOOTH",
"61 546 OFFCURVE",
"67 540 OFFCURVE",
"88 540 CURVE SMOOTH",
"129 540 LINE"
);
},
{
closed = 1;
nodes = (
"259 673 LINE SMOOTH",
"259 694 OFFCURVE",
"253 700 OFFCURVE",
"232 700 CURVE SMOOTH",
"191 700 LINE",
"191 567 LINE SMOOTH",
"191 546 OFFCURVE",
"197 540 OFFCURVE",
"218 540 CURVE SMOOTH",
"259 540 LINE"
);
}
);
width = 321;
},
{
components = (
{
name = quotesingle;
alignment = -1;
},
{
name = quotesingle;
transform = "{1, 0, 0, 1, 130, 0}";
alignment = -1;
}
);
layerId = "02C7D3CC-A397-42E8-8789-73F6D8E29B25";
width = 321;
}
);
leftKerningGroup = _KERN_quotesingle;
rightKerningGroup = _KERN_quotesingle;
unicode = 0022;
},
{
glyphname = numbersign;
layers = (
{
layerId = "0D43471E-84ED-412C-B4E5-2801B83B9DAE";
name = public.background;
paths = (
{
closed = 1;
nodes = (
"661 410 LINE SMOOTH",
"730 410 OFFCURVE",
"746 426 OFFCURVE",
"746 495 CURVE SMOOTH",
"746 615 LINE SMOOTH",
"746 684 OFFCURVE",
"730 700 OFFCURVE",
"661 700 CURVE SMOOTH",
"617 700 LINE SMOOTH",
"548 700 OFFCURVE",
"532 684 OFFCURVE",
"532 615 CURVE SMOOTH",
"532 495 LINE SMOOTH",
"532 426 OFFCURVE",
"548 410 OFFCURVE",
"617 410 CURVE"
);
},
{
closed = 1;
nodes = (
"597 600 LINE SMOOTH",
"597 641 OFFCURVE",
"606 647 OFFCURVE",
"639 647 CURVE SMOOTH",
"671 647 OFFCURVE",
"681 641 OFFCURVE",
"681 600 CURVE SMOOTH",
"681 510 LINE SMOOTH",
"681 469 OFFCURVE",
"672 463 OFFCURVE",
"639 463 CURVE SMOOTH",
"607 463 OFFCURVE",
"597 469 OFFCURVE",
"597 510 CURVE SMOOTH"
);
},
{
closed = 1;
nodes = (
"532 327 LINE SMOOTH",
"532 306 OFFCURVE",
"538 300 OFFCURVE",
"559 300 CURVE SMOOTH",
"746 300 LINE",
"746 331 LINE SMOOTH",
"746 352 OFFCURVE",
"740 358 OFFCURVE",
"719 358 CURVE SMOOTH",
"532 358 LINE"
);
},
{
closed = 1;
nodes = (
"153 700 LINE",
"99 700 LINE SMOOTH",
"78 700 OFFCURVE",
"72 694 OFFCURVE",
"72 673 CURVE SMOOTH",
"72 0 LINE",
"125 0 LINE SMOOTH",
"146 0 OFFCURVE",
"152 6 OFFCURVE",
"152 27 CURVE SMOOTH",
"152 441 LINE",
"137 581 LINE",
"143 581 LINE",
"199 420 LINE",
"384 0 LINE",
"436 0 LINE SMOOTH",
"457 0 OFFCURVE",
"463 6 OFFCURVE",
"463 27 CURVE SMOOTH",
"463 700 LINE",
"410 700 LINE SMOOTH",
"389 700 OFFCURVE",
"383 694 OFFCURVE",
"383 673 CURVE SMOOTH",
"383 275 LINE",
"399 123 LINE",
"393 123 LINE",
"338 272 LINE"
);
}
);
width = 800;
},
{
guideLines = (
{
angle = 90;
position = "{750, 0}";
},
{
angle = 90;
position = "{749, 0}";
}
);
layerId = "02C7D3CC-A397-42E8-8789-73F6D8E29B25";
paths = (
{
closed = 1;
nodes = (
"385 700 LINE SMOOTH",
"364 700 OFFCURVE",
"358 694 OFFCURVE",
"358 673 CURVE SMOOTH",
"358 281 LINE",
"367 168 LINE",
"365 168 LINE",
"329 279 LINE",
"156 700 LINE",
"99 700 LINE SMOOTH",
"78 700 OFFCURVE",
"72 694 OFFCURVE",
"72 673 CURVE SMOOTH",
"72 0 LINE",
"125 0 LINE SMOOTH",
"146 0 OFFCURVE",
"152 6 OFFCURVE",
"152 27 CURVE SMOOTH",
"152 438 LINE",
"143 553 LINE",
"145 553 LINE",
"183 442 LINE",
"367 0 LINE",
"411 0 LINE SMOOTH",
"432 0 OFFCURVE",
"438 6 OFFCURVE",
"438 27 CURVE SMOOTH",
"438 700 LINE"
);
},
{
closed = 1;
nodes = (
"661 410 LINE SMOOTH",
"730 410 OFFCURVE",
"746 426 OFFCURVE",
"746 495 CURVE SMOOTH",
"746 615 LINE SMOOTH",
"746 684 OFFCURVE",
"730 700 OFFCURVE",
"661 700 CURVE SMOOTH",
"617 700 LINE SMOOTH",
"548 700 OFFCURVE",
"532 684 OFFCURVE",
"532 615 CURVE SMOOTH",
"532 495 LINE SMOOTH",
"532 426 OFFCURVE",
"548 410 OFFCURVE",
"617 410 CURVE"
);
},
{
closed = 1;
nodes = (
"597 600 LINE SMOOTH",
"597 641 OFFCURVE",
"606 647 OFFCURVE",
"639 647 CURVE SMOOTH",
"671 647 OFFCURVE",
"681 641 OFFCURVE",
"681 600 CURVE SMOOTH",
"681 510 LINE SMOOTH",
"681 469 OFFCURVE",
"672 463 OFFCURVE",
"639 463 CURVE SMOOTH",
"607 463 OFFCURVE",
"597 469 OFFCURVE",
"597 510 CURVE SMOOTH"
);
},
{
closed = 1;
nodes = (
"532 327 LINE SMOOTH",
"532 306 OFFCURVE",
"538 300 OFFCURVE",
"559 300 CURVE SMOOTH",
"746 300 LINE",
"746 331 LINE SMOOTH",
"746 352 OFFCURVE",
"740 358 OFFCURVE",
"719 358 CURVE SMOOTH",
"532 358 LINE"
);
}
);
width = 800;
}
);
unicode = 0023;
},
{
glyphname = dollar;
layers = (
{
layerId = "EAE98568-D1D1-402E-95FB-45A2161C7EBA";
name = img;
width = 435;
},
{
layerId = "0D43471E-84ED-412C-B4E5-2801B83B9DAE";
name = public.background;
paths = (
{
closed = 1;
nodes = (
"190 80 LINE",
"190 0 LINE",
"229 0 LINE SMOOTH",
"250 0 OFFCURVE",
"256 6 OFFCURVE",
"256 27 CURVE SMOOTH",
"256 80 LINE",
"276 80 LINE SMOOTH",
"345 80 OFFCURVE",
"371 106 OFFCURVE",
"371 175 CURVE SMOOTH",
"371 297 LINE SMOOTH",
"371 366 OFFCURVE",
"345 392 OFFCURVE",
"276 392 CURVE SMOOTH",
"191 392 LINE SMOOTH",
"150 392 OFFCURVE",
"144 408 OFFCURVE",
"144 449 CURVE SMOOTH",
"144 495 LINE SMOOTH",
"144 536 OFFCURVE",
"150 552 OFFCURVE",
"191 552 CURVE SMOOTH",
"363 552 LINE",
"361 590 OFFCURVE",
"352 610 OFFCURVE",
"313 610 CURVE SMOOTH",
"255 610 LINE",
"255 700 LINE",
"214 700 LINE SMOOTH",
"193 700 OFFCURVE",
"187 694 OFFCURVE",
"187 673 CURVE SMOOTH",
"187 610 LINE",
"159 610 LINE SMOOTH",
"90 610 OFFCURVE",
"64 584 OFFCURVE",
"64 515 CURVE SMOOTH",
"64 429 LINE SMOOTH",
"64 360 OFFCURVE",
"90 334 OFFCURVE",
"159 334 CURVE SMOOTH",
"240 334 LINE SMOOTH",
"285 334 OFFCURVE",
"291 318 OFFCURVE",
"291 277 CURVE SMOOTH",
"291 195 LINE SMOOTH",
"291 154 OFFCURVE",
"285 138 OFFCURVE",
"244 138 CURVE SMOOTH",
"64 138 LINE",
"66 100 OFFCURVE",
"75 80 OFFCURVE",
"114 80 CURVE SMOOTH"
);
}
);
width = 435;
},
{
guideLines = (
{
angle = 90;
position = "{266, 0}";
}
);
layerId = "02C7D3CC-A397-42E8-8789-73F6D8E29B25";
paths = (
{
closed = 1;
nodes = (
"190 80 LINE",
"190 0 LINE",
"229 0 LINE SMOOTH",
"250 0 OFFCURVE",
"256 6 OFFCURVE",
"256 27 CURVE SMOOTH",
"256 80 LINE",
"276 80 LINE SMOOTH",
"345 80 OFFCURVE",
"371 106 OFFCURVE",
"371 175 CURVE SMOOTH",
"371 297 LINE SMOOTH",
"371 366 OFFCURVE",
"345 392 OFFCURVE",
"276 392 CURVE SMOOTH",
"191 392 LINE SMOOTH",
"150 392 OFFCURVE",
"144 408 OFFCURVE",
"144 449 CURVE SMOOTH",
"144 495 LINE SMOOTH",
"144 536 OFFCURVE",
"150 552 OFFCURVE",
"191 552 CURVE SMOOTH",
"363 552 LINE",
"361 590 OFFCURVE",
"352 610 OFFCURVE",
"313 610 CURVE SMOOTH",
"255 610 LINE",
"255 700 LINE",
"214 700 LINE SMOOTH",
"193 700 OFFCURVE",
"187 694 OFFCURVE",
"187 673 CURVE SMOOTH",
"187 610 LINE",
"159 610 LINE SMOOTH",
"90 610 OFFCURVE",
"64 584 OFFCURVE",
"64 515 CURVE SMOOTH",
"64 429 LINE SMOOTH",
"64 360 OFFCURVE",
"90 334 OFFCURVE",
"159 334 CURVE SMOOTH",
"240 334 LINE SMOOTH",
"285 334 OFFCURVE",
"291 318 OFFCURVE",
"291 277 CURVE SMOOTH",
"291 195 LINE SMOOTH",
"291 154 OFFCURVE",
"285 138 OFFCURVE",
"244 138 CURVE SMOOTH",
"64 138 LINE",
"66 100 OFFCURVE",
"75 80 OFFCURVE",
"114 80 CURVE SMOOTH"
);
}
);
width = 435;
}
);
unicode = 0024;
},
{
glyphname = percent;
layers = (
{
layerId = "0D43471E-84ED-412C-B4E5-2801B83B9DAE";
name = public.background;
paths = (
{
closed = 1;
nodes = (
"463 700 LINE SMOOTH",
"442 700 OFFCURVE",
"433 694 OFFCURVE",
"423 673 CURVE SMOOTH",
"95 0 LINE",
"148 0 LINE SMOOTH",
"169 0 OFFCURVE",
"178 6 OFFCURVE",
"188 27 CURVE SMOOTH",
"516 700 LINE"
);
},
{
closed = 1;
nodes = (
"181 410 LINE SMOOTH",
"250 410 OFFCURVE",
"266 426 OFFCURVE",
"266 495 CURVE SMOOTH",
"266 615 LINE SMOOTH",
"266 684 OFFCURVE",
"250 700 OFFCURVE",
"181 700 CURVE SMOOTH",
"137 700 LINE SMOOTH",
"68 700 OFFCURVE",
"52 684 OFFCURVE",
"52 615 CURVE SMOOTH",
"52 495 LINE SMOOTH",
"52 426 OFFCURVE",
"68 410 OFFCURVE",
"137 410 CURVE"
);
},
{
closed = 1;
nodes = (
"117 600 LINE SMOOTH",
"117 641 OFFCURVE",
"126 647 OFFCURVE",
"159 647 CURVE SMOOTH",
"191 647 OFFCURVE",
"201 641 OFFCURVE",
"201 600 CURVE SMOOTH",
"201 510 LINE SMOOTH",
"201 469 OFFCURVE",
"192 463 OFFCURVE",
"159 463 CURVE SMOOTH",
"127 463 OFFCURVE",
"117 469 OFFCURVE",
"117 510 CURVE SMOOTH"
);
},
{
closed = 1;
nodes = (
"495 0 LINE SMOOTH",
"564 0 OFFCURVE",
"580 16 OFFCURVE",
"580 85 CURVE SMOOTH",
"580 205 LINE SMOOTH",
"580 274 OFFCURVE",
"564 290 OFFCURVE",
"495 290 CURVE SMOOTH",
"451 290 LINE SMOOTH",
"382 290 OFFCURVE",
"366 274 OFFCURVE",
"366 205 CURVE SMOOTH",
"366 85 LINE SMOOTH",
"366 16 OFFCURVE",
"382 0 OFFCURVE",
"451 0 CURVE"
);
},
{
closed = 1;
nodes = (
"431 190 LINE SMOOTH",
"431 231 OFFCURVE",
"440 237 OFFCURVE",
"473 237 CURVE SMOOTH",
"505 237 OFFCURVE",
"515 231 OFFCURVE",
"515 190 CURVE SMOOTH",
"515 100 LINE SMOOTH",
"515 59 OFFCURVE",
"506 53 OFFCURVE",
"473 53 CURVE SMOOTH",
"441 53 OFFCURVE",
"431 59 OFFCURVE",
"431 100 CURVE SMOOTH"
);
}
);
width = 631;
},
{
layerId = "02C7D3CC-A397-42E8-8789-73F6D8E29B25";
paths = (
{
closed = 1;
nodes = (
"463 700 LINE SMOOTH",
"442 700 OFFCURVE",
"433 694 OFFCURVE",
"423 673 CURVE SMOOTH",
"95 0 LINE",
"148 0 LINE SMOOTH",
"169 0 OFFCURVE",
"178 6 OFFCURVE",
"188 27 CURVE SMOOTH",
"516 700 LINE"
);
},
{
closed = 1;
nodes = (
"181 410 LINE SMOOTH",
"250 410 OFFCURVE",
"266 426 OFFCURVE",
"266 495 CURVE SMOOTH",
"266 615 LINE SMOOTH",
"266 684 OFFCURVE",
"250 700 OFFCURVE",
"181 700 CURVE SMOOTH",
"137 700 LINE SMOOTH",
"68 700 OFFCURVE",
"52 684 OFFCURVE",
"52 615 CURVE SMOOTH",
"52 495 LINE SMOOTH",
"52 426 OFFCURVE",
"68 410 OFFCURVE",
"137 410 CURVE"
);
},
{
closed = 1;
nodes = (
"117 600 LINE SMOOTH",
"117 641 OFFCURVE",
"126 647 OFFCURVE",
"159 647 CURVE SMOOTH",
"191 647 OFFCURVE",
"201 641 OFFCURVE",
"201 600 CURVE SMOOTH",
"201 510 LINE SMOOTH",
"201 469 OFFCURVE",
"192 463 OFFCURVE",
"159 463 CURVE SMOOTH",
"127 463 OFFCURVE",
"117 469 OFFCURVE",
"117 510 CURVE SMOOTH"
);
},
{
closed = 1;
nodes = (
"495 0 LINE SMOOTH",
"564 0 OFFCURVE",
"580 16 OFFCURVE",
"580 85 CURVE SMOOTH",
"580 205 LINE SMOOTH",
"580 274 OFFCURVE",
"564 290 OFFCURVE",
"495 290 CURVE SMOOTH",
"451 290 LINE SMOOTH",
"382 290 OFFCURVE",
"366 274 OFFCURVE",
"366 205 CURVE SMOOTH",
"366 85 LINE SMOOTH",
"366 16 OFFCURVE",
"382 0 OFFCURVE",
"451 0 CURVE"
);
},
{
closed = 1;
nodes = (
"431 190 LINE SMOOTH",
"431 231 OFFCURVE",
"440 237 OFFCURVE",
"473 237 CURVE SMOOTH",
"505 237 OFFCURVE",
"515 231 OFFCURVE",
"515 190 CURVE SMOOTH",
"515 100 LINE SMOOTH",
"515 59 OFFCURVE",
"506 53 OFFCURVE",
"473 53 CURVE SMOOTH",
"441 53 OFFCURVE",
"431 59 OFFCURVE",
"431 100 CURVE SMOOTH"
);
}
);
width = 631;
}
);
unicode = 0025;
},
{
glyphname = ampersand;
layers = (
{
layerId = "EAE98568-D1D1-402E-95FB-45A2161C7EBA";
name = img;
width = 453;
},
{
layerId = "0D43471E-84ED-412C-B4E5-2801B83B9DAE";
name = public.background;
paths = (
{
closed = 1;
nodes = (
"422 365 LINE SMOOTH",
"422 386 OFFCURVE",
"418 392 OFFCURVE",
"397 392 CURVE SMOOTH",
"359 392 LINE",
"359 450 LINE",
"312 450 LINE SMOOTH",
"291 450 OFFCURVE",
"285 444 OFFCURVE",
"285 423 CURVE SMOOTH",
"285 392 LINE",
"193 392 LINE SMOOTH",
"152 392 OFFCURVE",
"146 408 OFFCURVE",
"146 449 CURVE SMOOTH",
"146 585 LINE SMOOTH",
"146 626 OFFCURVE",
"152 642 OFFCURVE",
"193 642 CURVE SMOOTH",
"339 642 LINE",
"337 680 OFFCURVE",
"328 700 OFFCURVE",
"289 700 CURVE SMOOTH",
"161 700 LINE SMOOTH",
"92 700 OFFCURVE",
"66 674 OFFCURVE",
"66 605 CURVE SMOOTH",
"66 459 LINE SMOOTH",
"66 405 OFFCURVE",
"82 378 OFFCURVE",
"121 369 CURVE",
"121 367 LINE",
"83 357 OFFCURVE",
"66 329 OFFCURVE",
"66 277 CURVE SMOOTH",
"66 95 LINE SMOOTH",
"66 26 OFFCURVE",
"92 0 OFFCURVE",
"161 0 CURVE SMOOTH",
"220 0 LINE SMOOTH",
"241 0 OFFCURVE",
"245 6 OFFCURVE",
"245 27 CURVE SMOOTH",
"245 58 LINE",
"193 58 LINE SMOOTH",
"152 58 OFFCURVE",
"146 74 OFFCURVE",
"146 115 CURVE SMOOTH",
"146 277 LINE SMOOTH",
"146 318 OFFCURVE",
"152 334 OFFCURVE",
"193 334 CURVE SMOOTH",
"285 334 LINE",
"285 0 LINE",
"332 0 LINE SMOOTH",
"353 0 OFFCURVE",
"359 6 OFFCURVE",
"359 27 CURVE SMOOTH",
"359 334 LINE",
"422 334 LINE"
);
}
);
width = 453;
},
{
guideLines = (
{
angle = 90;
position = "{346, 0}";
}
);
layerId = "02C7D3CC-A397-42E8-8789-73F6D8E29B25";
paths = (
{
closed = 1;
nodes = (
"422 365 LINE SMOOTH",
"422 386 OFFCURVE",
"418 392 OFFCURVE",
"397 392 CURVE SMOOTH",
"359 392 LINE",
"359 450 LINE",
"312 450 LINE SMOOTH",
"291 450 OFFCURVE",
"285 444 OFFCURVE",
"285 423 CURVE SMOOTH",
"285 392 LINE",
"193 392 LINE SMOOTH",
"152 392 OFFCURVE",
"146 408 OFFCURVE",
"146 449 CURVE SMOOTH",
"146 585 LINE SMOOTH",
"146 626 OFFCURVE",
"152 642 OFFCURVE",
"193 642 CURVE SMOOTH",
"339 642 LINE",
"337 680 OFFCURVE",
"328 700 OFFCURVE",
"289 700 CURVE SMOOTH",
"161 700 LINE SMOOTH",
"92 700 OFFCURVE",
"66 674 OFFCURVE",
"66 605 CURVE SMOOTH",
"66 459 LINE SMOOTH",
"66 405 OFFCURVE",
"82 378 OFFCURVE",
"121 369 CURVE",
"121 367 LINE",
"83 357 OFFCURVE",
"66 329 OFFCURVE",
"66 277 CURVE SMOOTH",
"66 95 LINE SMOOTH",
"66 26 OFFCURVE",
"92 0 OFFCURVE",
"161 0 CURVE SMOOTH",
"220 0 LINE SMOOTH",
"241 0 OFFCURVE",
"245 6 OFFCURVE",
"245 27 CURVE SMOOTH",
"245 58 LINE",
"193 58 LINE SMOOTH",
"152 58 OFFCURVE",
"146 74 OFFCURVE",
"146 115 CURVE SMOOTH",
"146 277 LINE SMOOTH",
"146 318 OFFCURVE",
"152 334 OFFCURVE",
"193 334 CURVE SMOOTH",
"285 334 LINE",
"285 0 LINE",
"332 0 LINE SMOOTH",
"353 0 OFFCURVE",
"359 6 OFFCURVE",
"359 27 CURVE SMOOTH",
"359 334 LINE",
"422 334 LINE"
);
}
);
width = 453;
}
);
unicode = 0026;
},
{
glyphname = quotesingle;
layers = (
{
layerId = "0D43471E-84ED-412C-B4E5-2801B83B9DAE";
name = public.background;
paths = (
{
closed = 1;
nodes = (
"129 673 LINE SMOOTH",
"129 694 OFFCURVE",
"123 700 OFFCURVE",
"102 700 CURVE SMOOTH",
"61 700 LINE",
"61 567 LINE SMOOTH",
"61 546 OFFCURVE",
"67 540 OFFCURVE",
"88 540 CURVE SMOOTH",
"129 540 LINE"
);
}
);
width = 191;
},
{
layerId = "02C7D3CC-A397-42E8-8789-73F6D8E29B25";
paths = (
{
closed = 1;
nodes = (
"129 673 LINE SMOOTH",
"129 694 OFFCURVE",
"123 700 OFFCURVE",
"102 700 CURVE SMOOTH",
"61 700 LINE",
"61 567 LINE SMOOTH",
"61 546 OFFCURVE",
"67 540 OFFCURVE",
"88 540 CURVE SMOOTH",
"129 540 LINE"
);
}
);
width = 191;
}
);
leftKerningGroup = _KERN_quotesingle;
rightKerningGroup = _KERN_quotesingle;
unicode = 0027;
},
{
glyphname = parenleft;
layers = (
{
layerId = "0D43471E-84ED-412C-B4E5-2801B83B9DAE";
name = public.background;
paths = (
{
closed = 1;
nodes = (
"162 760 LINE SMOOTH",
"93 760 OFFCURVE",
"71 734 OFFCURVE",
"71 665 CURVE SMOOTH",
"71 -35 LINE SMOOTH",
"71 -104 OFFCURVE",
"93 -130 OFFCURVE",
"162 -130 CURVE SMOOTH",
"216 -130 LINE SMOOTH",
"237 -130 OFFCURVE",
"241 -125 OFFCURVE",
"241 -103 CURVE SMOOTH",
"241 -72 LINE",
"194 -72 LINE SMOOTH",
"153 -72 OFFCURVE",
"147 -56 OFFCURVE",
"147 -15 CURVE SMOOTH",
"147 645 LINE SMOOTH",
"147 686 OFFCURVE",
"153 702 OFFCURVE",
"194 702 CURVE SMOOTH",
"241 702 LINE",
"241 733 LINE SMOOTH",
"241 755 OFFCURVE",
"237 760 OFFCURVE",
"216 760 CURVE SMOOTH"
);
}
);
width = 280;
},
{
layerId = "02C7D3CC-A397-42E8-8789-73F6D8E29B25";
paths = (
{
closed = 1;
nodes = (
"162 760 LINE SMOOTH",
"93 760 OFFCURVE",
"71 734 OFFCURVE",
"71 665 CURVE SMOOTH",
"71 -35 LINE SMOOTH",
"71 -104 OFFCURVE",
"93 -130 OFFCURVE",
"162 -130 CURVE SMOOTH",
"216 -130 LINE SMOOTH",
"237 -130 OFFCURVE",
"241 -125 OFFCURVE",
"241 -103 CURVE SMOOTH",
"241 -72 LINE",
"194 -72 LINE SMOOTH",
"153 -72 OFFCURVE",
"147 -56 OFFCURVE",
"147 -15 CURVE SMOOTH",
"147 645 LINE SMOOTH",
"147 686 OFFCURVE",
"153 702 OFFCURVE",
"194 702 CURVE SMOOTH",
"241 702 LINE",
"241 733 LINE SMOOTH",
"241 755 OFFCURVE",
"237 760 OFFCURVE",
"216 760 CURVE SMOOTH"
);
}
);
width = 280;
}
);
unicode = 0028;
},
{
glyphname = parenright;
layers = (
{
layerId = "0D43471E-84ED-412C-B4E5-2801B83B9DAE";
name = public.background;
paths = (
{
closed = 1;
nodes = (
"119 760 LINE SMOOTH",
"188 760 OFFCURVE",
"210 734 OFFCURVE",
"210 665 CURVE SMOOTH",
"210 -35 LINE SMOOTH",
"210 -104 OFFCURVE",
"188 -130 OFFCURVE",
"119 -130 CURVE SMOOTH",
"65 -130 LINE SMOOTH",
"44 -130 OFFCURVE",
"40 -125 OFFCURVE",
"40 -103 CURVE SMOOTH",
"40 -72 LINE",
"87 -72 LINE SMOOTH",
"128 -72 OFFCURVE",
"134 -56 OFFCURVE",
"134 -15 CURVE SMOOTH",
"134 645 LINE SMOOTH",
"134 686 OFFCURVE",
"128 702 OFFCURVE",
"87 702 CURVE SMOOTH",
"40 702 LINE",
"40 733 LINE SMOOTH",
"40 755 OFFCURVE",
"44 760 OFFCURVE",
"65 760 CURVE SMOOTH"
);
}
);
width = 280;
},
{
components = (
{
name = parenleft;
transform = "{-1, 0, 0, 1, 281, 0}";
alignment = -1;
}
);
guideLines = (
{
position = "{0, 755}";
}
);
layerId = "02C7D3CC-A397-42E8-8789-73F6D8E29B25";
width = 280;
}
);
unicode = 0029;
},
{
glyphname = asterisk;
layers = (
{
layerId = "0D43471E-84ED-412C-B4E5-2801B83B9DAE";
name = public.background;
paths = (
{
closed = 1;
nodes = (
"64 630 LINE SMOOTH",
"53 611 OFFCURVE",
"55 603 OFFCURVE",
"73 593 CURVE SMOOTH",
"162 541 LINE",
"50 477 LINE",
"66 450 LINE",
"76 432 OFFCURVE",
"84 430 OFFCURVE",
"102 440 CURVE SMOOTH",
"191 491 LINE",
"191 362 LINE",
"222 362 LINE SMOOTH",
"243 362 OFFCURVE",
"249 368 OFFCURVE",
"249 389 CURVE SMOOTH",
"249 491 LINE",
"361 427 LINE",
"376 453 LINE SMOOTH",
"387 472 OFFCURVE",
"385 480 OFFCURVE",
"367 490 CURVE SMOOTH",
"278 541 LINE",
"390 606 LINE",
"374 633 LINE",
"364 651 OFFCURVE",
"356 653 OFFCURVE",
"338 643 CURVE SMOOTH",
"249 591 LINE",
"249 721 LINE",
"218 721 LINE SMOOTH",
"197 721 OFFCURVE",
"191 715 OFFCURVE",
"191 694 CURVE SMOOTH",
"191 591 LINE",
"79 656 LINE"
);
}
);
width = 441;
},
{
layerId = "02C7D3CC-A397-42E8-8789-73F6D8E29B25";
paths = (
{
closed = 1;
nodes = (
"64 630 LINE SMOOTH",
"53 611 OFFCURVE",
"55 603 OFFCURVE",
"73 593 CURVE SMOOTH",
"162 541 LINE",
"50 477 LINE",
"66 450 LINE",
"76 432 OFFCURVE",
"84 430 OFFCURVE",
"102 440 CURVE SMOOTH",
"191 491 LINE",
"191 362 LINE",
"222 362 LINE SMOOTH",
"243 362 OFFCURVE",
"249 368 OFFCURVE",
"249 389 CURVE SMOOTH",
"249 491 LINE",
"361 427 LINE",
"376 453 LINE SMOOTH",
"387 472 OFFCURVE",
"385 480 OFFCURVE",
"367 490 CURVE SMOOTH",
"278 541 LINE",
"390 606 LINE",
"374 633 LINE",
"364 651 OFFCURVE",
"356 653 OFFCURVE",
"338 643 CURVE SMOOTH",
"249 591 LINE",
"249 721 LINE",
"218 721 LINE SMOOTH",
"197 721 OFFCURVE",
"191 715 OFFCURVE",
"191 694 CURVE SMOOTH",
"191 591 LINE",
"79 656 LINE"
);
}
);
width = 441;
}
);
unicode = 002A;
},
{
glyphname = plus;
layers = (
{
layerId = "0D43471E-84ED-412C-B4E5-2801B83B9DAE";
name = public.background;
paths = (
{
closed = 1;
nodes = (
"216 512 LINE SMOOTH",
"195 512 OFFCURVE",
"189 506 OFFCURVE",
"189 485 CURVE SMOOTH",
"189 392 LINE",
"68 392 LINE",
"68 361 LINE SMOOTH",
"68 340 OFFCURVE",
"74 334 OFFCURVE",
"95 334 CURVE SMOOTH",
"189 334 LINE",
"189 212 LINE",
"220 212 LINE SMOOTH",
"241 212 OFFCURVE",
"247 218 OFFCURVE",
"247 239 CURVE SMOOTH",
"247 334 LINE",
"368 334 LINE",
"368 365 LINE SMOOTH",
"368 386 OFFCURVE",
"362 392 OFFCURVE",
"341 392 CURVE SMOOTH",
"247 392 LINE",
"247 512 LINE"
);
}
);
width = 436;
},
{
guideLines = (
{
position = "{0, 363}";
}
);
layerId = "02C7D3CC-A397-42E8-8789-73F6D8E29B25";
paths = (
{
closed = 1;
nodes = (
"216 512 LINE SMOOTH",
"195 512 OFFCURVE",
"189 506 OFFCURVE",
"189 485 CURVE SMOOTH",
"189 392 LINE",
"68 392 LINE",
"68 361 LINE SMOOTH",
"68 340 OFFCURVE",
"74 334 OFFCURVE",
"95 334 CURVE SMOOTH",
"189 334 LINE",
"189 212 LINE",
"220 212 LINE SMOOTH",
"241 212 OFFCURVE",
"247 218 OFFCURVE",
"247 239 CURVE SMOOTH",
"247 334 LINE",
"368 334 LINE",
"368 365 LINE SMOOTH",
"368 386 OFFCURVE",
"362 392 OFFCURVE",
"341 392 CURVE SMOOTH",
"247 392 LINE",
"247 512 LINE"
);
}
);
width = 436;
}
);
unicode = 002B;
},
{
glyphname = comma;
layers = (
{
layerId = "EAE98568-D1D1-402E-95FB-45A2161C7EBA";
name = img;
width = 215;
},
{
layerId = "0D43471E-84ED-412C-B4E5-2801B83B9DAE";
name = public.background;
paths = (
{
closed = 1;
nodes = (
"95 -136 LINE",
"133 -128 OFFCURVE",
"153 -75 OFFCURVE",
"153 -32 CURVE SMOOTH",
"153 53 LINE SMOOTH",
"153 74 OFFCURVE",
"147 80 OFFCURVE",
"126 80 CURVE SMOOTH",
"65 80 LINE",
"65 27 LINE SMOOTH",
"65 6 OFFCURVE",
"71 0 OFFCURVE",
"92 0 CURVE SMOOTH",
"95 0 LINE"
);
}
);
width = 215;
},
{
layerId = "02C7D3CC-A397-42E8-8789-73F6D8E29B25";
paths = (
{
closed = 1;
nodes = (
"95 -136 LINE",
"133 -128 OFFCURVE",
"153 -75 OFFCURVE",
"153 -32 CURVE SMOOTH",
"153 53 LINE SMOOTH",
"153 74 OFFCURVE",
"147 80 OFFCURVE",
"126 80 CURVE SMOOTH",
"65 80 LINE",
"65 27 LINE SMOOTH",
"65 6 OFFCURVE",
"71 0 OFFCURVE",
"92 0 CURVE SMOOTH",
"95 0 LINE"
);
}
);
width = 215;
}
);
leftKerningGroup = _KERN_period;
rightKerningGroup = _KERN_period;
unicode = 002C;
},
{
glyphname = hyphen;
layers = (
{
layerId = "0D43471E-84ED-412C-B4E5-2801B83B9DAE";
name = public.background;
paths = (
{
closed = 1;
nodes = (
"66 361 LINE SMOOTH",
"66 340 OFFCURVE",
"72 334 OFFCURVE",
"93 334 CURVE SMOOTH",
"366 334 LINE",
"366 365 LINE SMOOTH",
"366 386 OFFCURVE",
"360 392 OFFCURVE",
"339 392 CURVE SMOOTH",
"66 392 LINE"
);
}
);
width = 432;
},
{
layerId = "02C7D3CC-A397-42E8-8789-73F6D8E29B25";
paths = (
{
closed = 1;
nodes = (
"66 361 LINE SMOOTH",
"66 340 OFFCURVE",
"72 334 OFFCURVE",
"93 334 CURVE SMOOTH",
"366 334 LINE",
"366 365 LINE SMOOTH",
"366 386 OFFCURVE",
"360 392 OFFCURVE",
"339 392 CURVE SMOOTH",
"66 392 LINE"
);
}
);
width = 432;
}
);
leftKerningGroup = _KERN_hyphen;
rightKerningGroup = _KERN_hyphen;
unicode = 002D;
},
{
glyphname = period;
layers = (
{
layerId = "EAE98568-D1D1-402E-95FB-45A2161C7EBA";
name = img;
width = 215;
},
{
layerId = "0D43471E-84ED-412C-B4E5-2801B83B9DAE";
name = public.background;
paths = (
{
closed = 1;
nodes = (
"153 53 LINE SMOOTH",
"153 74 OFFCURVE",
"147 80 OFFCURVE",
"126 80 CURVE SMOOTH",
"65 80 LINE",
"65 27 LINE SMOOTH",
"65 6 OFFCURVE",
"71 0 OFFCURVE",
"92 0 CURVE SMOOTH",
"153 0 LINE"
);
}
);
width = 215;
},
{
layerId = "02C7D3CC-A397-42E8-8789-73F6D8E29B25";
paths = (
{
closed = 1;
nodes = (
"153 53 LINE SMOOTH",
"153 74 OFFCURVE",
"147 80 OFFCURVE",
"126 80 CURVE SMOOTH",
"65 80 LINE",
"65 27 LINE SMOOTH",
"65 6 OFFCURVE",
"71 0 OFFCURVE",
"92 0 CURVE SMOOTH",
"153 0 LINE"
);
}
);
width = 215;
}
);
leftKerningGroup = _KERN_period;
rightKerningGroup = _KERN_period;
unicode = 002E;
},
{
glyphname = slash;
layers = (
{
layerId = "0D43471E-84ED-412C-B4E5-2801B83B9DAE";
name = public.background;
paths = (
{
closed = 1;
nodes = (
"302 760 LINE SMOOTH",
"281 760 OFFCURVE",
"274 754 OFFCURVE",
"268 733 CURVE SMOOTH",
"41 -121 LINE",
"90 -121 LINE SMOOTH",
"111 -121 OFFCURVE",
"118 -115 OFFCURVE",
"124 -94 CURVE SMOOTH",
"351 760 LINE"
);
}
);
width = 392;
},
{
layerId = "02C7D3CC-A397-42E8-8789-73F6D8E29B25";
paths = (
{
closed = 1;
nodes = (
"302 760 LINE SMOOTH",
"281 760 OFFCURVE",
"274 754 OFFCURVE",
"268 733 CURVE SMOOTH",
"41 -121 LINE",
"90 -121 LINE SMOOTH",
"111 -121 OFFCURVE",
"118 -115 OFFCURVE",
"124 -94 CURVE SMOOTH",
"351 760 LINE"
);
}
);
width = 392;
}
);
unicode = 002F;
},
{
glyphname = zero;
layers = (
{
layerId = "EAE98568-D1D1-402E-95FB-45A2161C7EBA";
name = img;
width = 439;
},
{
layerId = "0D43471E-84ED-412C-B4E5-2801B83B9DAE";
name = public.background;
paths = (
{
closed = 1;
nodes = (
"145 585 LINE SMOOTH",
"145 626 OFFCURVE",
"151 642 OFFCURVE",
"192 642 CURVE SMOOTH",
"247 642 LINE SMOOTH",
"288 642 OFFCURVE",
"294 626 OFFCURVE",
"294 585 CURVE SMOOTH",
"294 115 LINE SMOOTH",
"294 74 OFFCURVE",
"288 58 OFFCURVE",
"247 58 CURVE SMOOTH",
"192 58 LINE SMOOTH",
"151 58 OFFCURVE",
"145 74 OFFCURVE",
"145 115 CURVE SMOOTH"
);
},
{
closed = 1;
nodes = (
"70 95 LINE SMOOTH",
"70 26 OFFCURVE",
"96 0 OFFCURVE",
"165 0 CURVE SMOOTH",
"274 0 LINE SMOOTH",
"343 0 OFFCURVE",
"369 26 OFFCURVE",
"369 95 CURVE SMOOTH",
"369 605 LINE SMOOTH",
"369 674 OFFCURVE",
"343 700 OFFCURVE",
"274 700 CURVE SMOOTH",
"165 700 LINE SMOOTH",
"96 700 OFFCURVE",
"70 674 OFFCURVE",
"70 605 CURVE SMOOTH"
);
}
);
width = 439;
},
{
layerId = "02C7D3CC-A397-42E8-8789-73F6D8E29B25";
paths = (
{
closed = 1;
nodes = (
"145 585 LINE SMOOTH",
"145 626 OFFCURVE",
"151 642 OFFCURVE",
"192 642 CURVE SMOOTH",
"247 642 LINE SMOOTH",
"288 642 OFFCURVE",
"294 626 OFFCURVE",
"294 585 CURVE SMOOTH",
"294 115 LINE SMOOTH",
"294 74 OFFCURVE",
"288 58 OFFCURVE",
"247 58 CURVE SMOOTH",
"192 58 LINE SMOOTH",
"151 58 OFFCURVE",
"145 74 OFFCURVE",
"145 115 CURVE SMOOTH"
);
},
{
closed = 1;
nodes = (
"70 95 LINE SMOOTH",
"70 26 OFFCURVE",
"96 0 OFFCURVE",
"165 0 CURVE SMOOTH",
"274 0 LINE SMOOTH",
"343 0 OFFCURVE",
"369 26 OFFCURVE",
"369 95 CURVE SMOOTH",
"369 605 LINE SMOOTH",
"369 674 OFFCURVE",
"343 700 OFFCURVE",
"274 700 CURVE SMOOTH",
"165 700 LINE SMOOTH",
"96 700 OFFCURVE",
"70 674 OFFCURVE",
"70 605 CURVE SMOOTH"
);
}
);
width = 439;
}
);
unicode = 0030;
},
{
glyphname = one;
layers = (
{
layerId = "0D43471E-84ED-412C-B4E5-2801B83B9DAE";
name = public.background;
paths = (
{
closed = 1;
nodes = (
"152 700 LINE",
"99 689 OFFCURVE",
"72 671 OFFCURVE",
"72 617 CURVE SMOOTH",
"72 0 LINE",
"125 0 LINE SMOOTH",
"146 0 OFFCURVE",
"152 6 OFFCURVE",
"152 27 CURVE SMOOTH"
);
}
);
width = 224;
},
{
layerId = "02C7D3CC-A397-42E8-8789-73F6D8E29B25";
paths = (
{
closed = 1;
nodes = (
"152 700 LINE",
"99 689 OFFCURVE",
"72 671 OFFCURVE",
"72 617 CURVE SMOOTH",
"72 0 LINE",
"125 0 LINE SMOOTH",
"146 0 OFFCURVE",
"152 6 OFFCURVE",
"152 27 CURVE SMOOTH"
);
}
);
width = 224;
}
);
unicode = 0031;
},
{
glyphname = three;
layers = (
{
layerId = "EAE98568-D1D1-402E-95FB-45A2161C7EBA";
name = img;
width = 392;
},
{
layerId = "0D43471E-84ED-412C-B4E5-2801B83B9DAE";
name = public.background;
paths = (
{
closed = 1;
nodes = (
"238 449 LINE SMOOTH",
"238 410 OFFCURVE",
"231 393 OFFCURVE",
"195 392 CURVE",
"132 392 LINE SMOOTH",
"111 392 OFFCURVE",
"105 386 OFFCURVE",
"105 365 CURVE SMOOTH",
"105 334 LINE",
"189 334 LINE SMOOTH",
"230 334 OFFCURVE",
"246 318 OFFCURVE",
"246 277 CURVE SMOOTH",
"246 115 LINE SMOOTH",
"246 74 OFFCURVE",
"240 58 OFFCURVE",
"199 58 CURVE SMOOTH",
"52 58 LINE",
"60 20 OFFCURVE",
"73 0 OFFCURVE",
"112 0 CURVE SMOOTH",
"231 0 LINE SMOOTH",
"300 0 OFFCURVE",
"326 26 OFFCURVE",
"326 95 CURVE SMOOTH",
"326 277 LINE SMOOTH",
"326 329 OFFCURVE",
"309 358 OFFCURVE",
"271 368 CURVE",
"271 369 LINE",
"310 378 OFFCURVE",
"318 405 OFFCURVE",
"318 459 CURVE SMOOTH",
"318 605 LINE SMOOTH",
"318 674 OFFCURVE",
"292 700 OFFCURVE",
"223 700 CURVE SMOOTH",
"104 700 LINE SMOOTH",
"65 700 OFFCURVE",
"52 680 OFFCURVE",
"44 642 CURVE",
"191 642 LINE SMOOTH",
"232 642 OFFCURVE",
"238 626 OFFCURVE",
"238 585 CURVE SMOOTH"
);
}
);
width = 392;
},
{
layerId = "02C7D3CC-A397-42E8-8789-73F6D8E29B25";
paths = (
{
closed = 1;
nodes = (
"238 449 LINE SMOOTH",
"238 410 OFFCURVE",
"231 393 OFFCURVE",
"195 392 CURVE",
"132 392 LINE SMOOTH",
"111 392 OFFCURVE",
"105 386 OFFCURVE",
"105 365 CURVE SMOOTH",
"105 334 LINE",
"189 334 LINE SMOOTH",
"230 334 OFFCURVE",
"246 318 OFFCURVE",
"246 277 CURVE SMOOTH",
"246 115 LINE SMOOTH",
"246 74 OFFCURVE",
"240 58 OFFCURVE",
"199 58 CURVE SMOOTH",
"52 58 LINE",
"60 20 OFFCURVE",
"73 0 OFFCURVE",
"112 0 CURVE SMOOTH",
"231 0 LINE SMOOTH",
"300 0 OFFCURVE",
"326 26 OFFCURVE",
"326 95 CURVE SMOOTH",
"326 277 LINE SMOOTH",
"326 329 OFFCURVE",
"309 358 OFFCURVE",
"271 368 CURVE",
"271 369 LINE",
"310 378 OFFCURVE",
"318 405 OFFCURVE",
"318 459 CURVE SMOOTH",
"318 605 LINE SMOOTH",
"318 674 OFFCURVE",
"292 700 OFFCURVE",
"223 700 CURVE SMOOTH",
"104 700 LINE SMOOTH",
"65 700 OFFCURVE",
"52 680 OFFCURVE",
"44 642 CURVE",
"191 642 LINE SMOOTH",
"232 642 OFFCURVE",
"238 626 OFFCURVE",
"238 585 CURVE SMOOTH"
);
}
);
width = 392;
}
);
unicode = 0033;
},
{
glyphname = five;
layers = (
{
layerId = "EAE98568-D1D1-402E-95FB-45A2161C7EBA";
name = img;
width = 410;
},
{
layerId = "0D43471E-84ED-412C-B4E5-2801B83B9DAE";
name = public.background;
paths = (
{
closed = 1;
nodes = (
"314 642 LINE SMOOTH",
"335 642 OFFCURVE",
"339 648 OFFCURVE",
"339 669 CURVE SMOOTH",
"339 700 LINE",
"93 700 LINE SMOOTH",
"72 700 OFFCURVE",
"66 694 OFFCURVE",
"66 673 CURVE SMOOTH",
"66 361 LINE SMOOTH",
"66 340 OFFCURVE",
"72 334 OFFCURVE",
"93 334 CURVE SMOOTH",
"225 334 LINE SMOOTH",
"266 334 OFFCURVE",
"272 318 OFFCURVE",
"272 277 CURVE SMOOTH",
"272 115 LINE SMOOTH",
"272 74 OFFCURVE",
"266 58 OFFCURVE",
"225 58 CURVE SMOOTH",
"61 58 LINE",
"69 20 OFFCURVE",
"82 0 OFFCURVE",
"121 0 CURVE SMOOTH",
"257 0 LINE SMOOTH",
"326 0 OFFCURVE",
"352 26 OFFCURVE",
"352 95 CURVE SMOOTH",
"352 297 LINE SMOOTH",
"352 366 OFFCURVE",
"326 392 OFFCURVE",
"257 392 CURVE SMOOTH",
"141 392 LINE",
"142 642 LINE"
);
}
);
width = 410;
},
{
layerId = "02C7D3CC-A397-42E8-8789-73F6D8E29B25";
paths = (
{
closed = 1;
nodes = (
"314 642 LINE SMOOTH",
"335 642 OFFCURVE",
"339 648 OFFCURVE",
"339 669 CURVE SMOOTH",
"339 700 LINE",
"93 700 LINE SMOOTH",
"72 700 OFFCURVE",
"66 694 OFFCURVE",
"66 673 CURVE SMOOTH",
"66 361 LINE SMOOTH",
"66 340 OFFCURVE",
"72 334 OFFCURVE",
"93 334 CURVE SMOOTH",
"225 334 LINE SMOOTH",
"266 334 OFFCURVE",
"272 318 OFFCURVE",
"272 277 CURVE SMOOTH",
"272 115 LINE SMOOTH",
"272 74 OFFCURVE",
"266 58 OFFCURVE",
"225 58 CURVE SMOOTH",
"61 58 LINE",
"69 20 OFFCURVE",
"82 0 OFFCURVE",
"121 0 CURVE SMOOTH",
"257 0 LINE SMOOTH",
"326 0 OFFCURVE",
"352 26 OFFCURVE",
"352 95 CURVE SMOOTH",
"352 297 LINE SMOOTH",
"352 366 OFFCURVE",
"326 392 OFFCURVE",
"257 392 CURVE SMOOTH",
"141 392 LINE",
"142 642 LINE"
);
}
);
width = 410;
}
);
unicode = 0035;
},
{
glyphname = six;
layers = (
{
layerId = "EAE98568-D1D1-402E-95FB-45A2161C7EBA";
name = img;
width = 437;
},
{
layerId = "0D43471E-84ED-412C-B4E5-2801B83B9DAE";
name = public.background;
paths = (
{
closed = 1;
nodes = (
"215 392 LINE SMOOTH",
"194 392 OFFCURVE",
"190 386 OFFCURVE",
"190 365 CURVE SMOOTH",
"190 334 LINE",
"252 334 LINE SMOOTH",
"293 334 OFFCURVE",
"299 318 OFFCURVE",
"299 277 CURVE SMOOTH",
"299 115 LINE SMOOTH",
"299 74 OFFCURVE",
"293 58 OFFCURVE",
"252 58 CURVE SMOOTH",
"197 58 LINE SMOOTH",
"156 58 OFFCURVE",
"150 74 OFFCURVE",
"150 115 CURVE SMOOTH",
"150 585 LINE SMOOTH",
"150 626 OFFCURVE",
"156 642 OFFCURVE",
"197 642 CURVE SMOOTH",
"364 642 LINE",
"356 680 OFFCURVE",
"343 700 OFFCURVE",
"304 700 CURVE SMOOTH",
"165 700 LINE SMOOTH",
"96 700 OFFCURVE",
"70 674 OFFCURVE",
"70 605 CURVE SMOOTH",
"70 95 LINE SMOOTH",
"70 26 OFFCURVE",
"96 0 OFFCURVE",
"165 0 CURVE SMOOTH",
"284 0 LINE SMOOTH",
"353 0 OFFCURVE",
"379 26 OFFCURVE",
"379 95 CURVE SMOOTH",
"379 297 LINE SMOOTH",
"379 366 OFFCURVE",
"353 392 OFFCURVE",
"284 392 CURVE SMOOTH"
);
}
);
width = 437;
},
{
layerId = "02C7D3CC-A397-42E8-8789-73F6D8E29B25";
paths = (
{
closed = 1;
nodes = (
"215 392 LINE SMOOTH",
"194 392 OFFCURVE",
"190 386 OFFCURVE",
"190 365 CURVE SMOOTH",
"190 334 LINE",
"252 334 LINE SMOOTH",
"293 334 OFFCURVE",
"299 318 OFFCURVE",
"299 277 CURVE SMOOTH",
"299 115 LINE SMOOTH",
"299 74 OFFCURVE",
"293 58 OFFCURVE",
"252 58 CURVE SMOOTH",
"197 58 LINE SMOOTH",
"156 58 OFFCURVE",
"150 74 OFFCURVE",
"150 115 CURVE SMOOTH",
"150 585 LINE SMOOTH",
"150 626 OFFCURVE",
"156 642 OFFCURVE",
"197 642 CURVE SMOOTH",
"364 642 LINE",
"356 680 OFFCURVE",
"343 700 OFFCURVE",
"304 700 CURVE SMOOTH",
"165 700 LINE SMOOTH",
"96 700 OFFCURVE",
"70 674 OFFCURVE",
"70 605 CURVE SMOOTH",
"70 95 LINE SMOOTH",
"70 26 OFFCURVE",
"96 0 OFFCURVE",
"165 0 CURVE SMOOTH",
"284 0 LINE SMOOTH",
"353 0 OFFCURVE",
"379 26 OFFCURVE",
"379 95 CURVE SMOOTH",
"379 297 LINE SMOOTH",
"379 366 OFFCURVE",
"353 392 OFFCURVE",
"284 392 CURVE SMOOTH"
);
}
);
width = 437;
}
);
unicode = 0036;
},
{
glyphname = seven;
layers = (
{
layerId = "EAE98568-D1D1-402E-95FB-45A2161C7EBA";
name = img;
width = 358;
},
{
layerId = "0D43471E-84ED-412C-B4E5-2801B83B9DAE";
name = public.background;
paths = (
{
closed = 1;
nodes = (
"60 700 LINE SMOOTH",
"39 700 OFFCURVE",
"33 694 OFFCURVE",
"33 673 CURVE SMOOTH",
"33 642 LINE",
"249 642 LINE",
"78 0 LINE",
"154 0 LINE",
"326 642 LINE",
"326 673 LINE",
"325 694 OFFCURVE",
"322 700 OFFCURVE",
"302 700 CURVE SMOOTH"
);
}
);
width = 358;
},
{
guideLines = (
{
angle = 90;
position = "{62, 0}";
}
);
layerId = "02C7D3CC-A397-42E8-8789-73F6D8E29B25";
paths = (
{
closed = 1;
nodes = (
"60 700 LINE SMOOTH",
"39 700 OFFCURVE",
"33 694 OFFCURVE",
"33 673 CURVE SMOOTH",
"33 642 LINE",
"249 642 LINE",
"78 0 LINE",
"154 0 LINE",
"326 642 LINE",
"326 673 LINE",
"325 694 OFFCURVE",
"322 700 OFFCURVE",
"302 700 CURVE SMOOTH"
);
}
);
width = 358;
}
);
unicode = 0037;
},
{
glyphname = eight;
layers = (
{
layerId = "EAE98568-D1D1-402E-95FB-45A2161C7EBA";
name = img;
width = 444;
},
{
layerId = "0D43471E-84ED-412C-B4E5-2801B83B9DAE";
name = public.background;
paths = (
{
closed = 1;
nodes = (
"295 115 LINE SMOOTH",
"295 74 OFFCURVE",
"289 58 OFFCURVE",
"248 58 CURVE SMOOTH",
"196 58 LINE SMOOTH",
"155 58 OFFCURVE",
"149 74 OFFCURVE",
"149 115 CURVE SMOOTH",
"149 277 LINE SMOOTH",
"149 318 OFFCURVE",
"155 334 OFFCURVE",
"196 334 CURVE SMOOTH",
"248 334 LINE SMOOTH",
"289 334 OFFCURVE",
"295 318 OFFCURVE",
"295 277 CURVE SMOOTH"
);
},
{
closed = 1;
nodes = (
"295 449 LINE SMOOTH",
"295 408 OFFCURVE",
"289 392 OFFCURVE",
"248 392 CURVE SMOOTH",
"196 392 LINE SMOOTH",
"155 392 OFFCURVE",
"149 408 OFFCURVE",
"149 449 CURVE SMOOTH",
"149 589 LINE SMOOTH",
"149 630 OFFCURVE",
"155 646 OFFCURVE",
"196 646 CURVE SMOOTH",
"248 646 LINE SMOOTH",
"289 646 OFFCURVE",
"295 630 OFFCURVE",
"295 589 CURVE SMOOTH"
);
},
{
closed = 1;
nodes = (
"69 95 LINE SMOOTH",
"69 26 OFFCURVE",
"90 0 OFFCURVE",
"159 0 CURVE SMOOTH",
"288 0 LINE SMOOTH",
"357 0 OFFCURVE",
"375 26 OFFCURVE",
"375 95 CURVE SMOOTH",
"375 277 LINE SMOOTH",
"375 329 OFFCURVE",
"358 358 OFFCURVE",
"320 368 CURVE",
"320 369 LINE",
"359 378 OFFCURVE",
"375 405 OFFCURVE",
"375 459 CURVE SMOOTH",
"375 605 LINE SMOOTH",
"375 674 OFFCURVE",
"354 700 OFFCURVE",
"285 700 CURVE SMOOTH",
"159 700 LINE SMOOTH",
"90 700 OFFCURVE",
"69 674 OFFCURVE",
"69 605 CURVE SMOOTH",
"69 459 LINE SMOOTH",
"69 405 OFFCURVE",
"85 378 OFFCURVE",
"124 369 CURVE",
"124 368 LINE",
"86 358 OFFCURVE",
"69 329 OFFCURVE",
"69 277 CURVE SMOOTH"
);
}
);
width = 444;
},
{
layerId = "02C7D3CC-A397-42E8-8789-73F6D8E29B25";
paths = (
{
closed = 1;
nodes = (
"295 115 LINE SMOOTH",
"295 74 OFFCURVE",
"289 58 OFFCURVE",
"248 58 CURVE SMOOTH",
"196 58 LINE SMOOTH",
"155 58 OFFCURVE",
"149 74 OFFCURVE",
"149 115 CURVE SMOOTH",
"149 277 LINE SMOOTH",
"149 318 OFFCURVE",
"155 334 OFFCURVE",
"196 334 CURVE SMOOTH",
"248 334 LINE SMOOTH",
"289 334 OFFCURVE",
"295 318 OFFCURVE",
"295 277 CURVE SMOOTH"
);
},
{
closed = 1;
nodes = (
"295 449 LINE SMOOTH",
"295 408 OFFCURVE",
"289 392 OFFCURVE",
"248 392 CURVE SMOOTH",
"196 392 LINE SMOOTH",
"155 392 OFFCURVE",
"149 408 OFFCURVE",
"149 449 CURVE SMOOTH",
"149 589 LINE SMOOTH",
"149 630 OFFCURVE",
"155 646 OFFCURVE",
"196 646 CURVE SMOOTH",
"248 646 LINE SMOOTH",
"289 646 OFFCURVE",
"295 630 OFFCURVE",
"295 589 CURVE SMOOTH"
);
},
{
closed = 1;
nodes = (
"69 95 LINE SMOOTH",
"69 26 OFFCURVE",
"90 0 OFFCURVE",
"159 0 CURVE SMOOTH",
"288 0 LINE SMOOTH",
"357 0 OFFCURVE",
"375 26 OFFCURVE",
"375 95 CURVE SMOOTH",
"375 277 LINE SMOOTH",
"375 329 OFFCURVE",
"358 358 OFFCURVE",
"320 368 CURVE",
"320 369 LINE",
"359 378 OFFCURVE",
"375 405 OFFCURVE",
"375 459 CURVE SMOOTH",
"375 605 LINE SMOOTH",
"375 674 OFFCURVE",
"354 700 OFFCURVE",
"285 700 CURVE SMOOTH",
"159 700 LINE SMOOTH",
"90 700 OFFCURVE",
"69 674 OFFCURVE",
"69 605 CURVE SMOOTH",
"69 459 LINE SMOOTH",
"69 405 OFFCURVE",
"85 378 OFFCURVE",
"124 369 CURVE",
"124 368 LINE",
"86 358 OFFCURVE",
"69 329 OFFCURVE",
"69 277 CURVE SMOOTH"
);
}
);
width = 444;
}
);
unicode = 0038;
},
{
glyphname = nine;
layers = (
{
layerId = "EAE98568-D1D1-402E-95FB-45A2161C7EBA";
name = img;
width = 427;
},
{
layerId = "0D43471E-84ED-412C-B4E5-2801B83B9DAE";
name = public.background;
paths = (
{
closed = 1;
nodes = (
"212 308 LINE SMOOTH",
"233 308 OFFCURVE",
"237 314 OFFCURVE",
"237 335 CURVE SMOOTH",
"237 366 LINE",
"185 366 LINE SMOOTH",
"144 366 OFFCURVE",
"138 382 OFFCURVE",
"138 423 CURVE SMOOTH",
"138 589 LINE SMOOTH",
"138 630 OFFCURVE",
"144 646 OFFCURVE",
"185 646 CURVE SMOOTH",
"230 646 LINE SMOOTH",
"271 646 OFFCURVE",
"277 630 OFFCURVE",
"277 589 CURVE SMOOTH",
"277 115 LINE SMOOTH",
"277 74 OFFCURVE",
"271 58 OFFCURVE",
"230 58 CURVE SMOOTH",
"72 58 LINE",
"80 20 OFFCURVE",
"93 0 OFFCURVE",
"132 0 CURVE SMOOTH",
"262 0 LINE SMOOTH",
"331 0 OFFCURVE",
"357 26 OFFCURVE",
"357 95 CURVE SMOOTH",
"357 605 LINE SMOOTH",
"357 674 OFFCURVE",
"331 700 OFFCURVE",
"262 700 CURVE SMOOTH",
"153 700 LINE SMOOTH",
"84 700 OFFCURVE",
"58 674 OFFCURVE",
"58 605 CURVE SMOOTH",
"58 403 LINE SMOOTH",
"58 334 OFFCURVE",
"84 308 OFFCURVE",
"153 308 CURVE SMOOTH"
);
}
);
width = 427;
},
{
layerId = "02C7D3CC-A397-42E8-8789-73F6D8E29B25";
paths = (
{
closed = 1;
nodes = (
"212 308 LINE SMOOTH",
"233 308 OFFCURVE",
"237 314 OFFCURVE",
"237 335 CURVE SMOOTH",
"237 366 LINE",
"185 366 LINE SMOOTH",
"144 366 OFFCURVE",
"138 382 OFFCURVE",
"138 423 CURVE SMOOTH",
"138 589 LINE SMOOTH",
"138 630 OFFCURVE",
"144 646 OFFCURVE",
"185 646 CURVE SMOOTH",
"230 646 LINE SMOOTH",
"271 646 OFFCURVE",
"277 630 OFFCURVE",
"277 589 CURVE SMOOTH",
"277 115 LINE SMOOTH",
"277 74 OFFCURVE",
"271 58 OFFCURVE",
"230 58 CURVE SMOOTH",
"72 58 LINE",
"80 20 OFFCURVE",
"93 0 OFFCURVE",
"132 0 CURVE SMOOTH",
"262 0 LINE SMOOTH",
"331 0 OFFCURVE",
"357 26 OFFCURVE",
"357 95 CURVE SMOOTH",
"357 605 LINE SMOOTH",
"357 674 OFFCURVE",
"331 700 OFFCURVE",
"262 700 CURVE SMOOTH",
"153 700 LINE SMOOTH",
"84 700 OFFCURVE",
"58 674 OFFCURVE",
"58 605 CURVE SMOOTH",
"58 403 LINE SMOOTH",
"58 334 OFFCURVE",
"84 308 OFFCURVE",
"153 308 CURVE SMOOTH"
);
}
);
width = 427;
}
);
unicode = 0039;
},
{
glyphname = colon;
layers = (
{
layerId = "EAE98568-D1D1-402E-95FB-45A2161C7EBA";
name = img;
width = 220;
},
{
layerId = "0D43471E-84ED-412C-B4E5-2801B83B9DAE";
name = public.background;
paths = (
{
closed = 1;
nodes = (
"154 53 LINE SMOOTH",
"154 74 OFFCURVE",
"148 80 OFFCURVE",
"127 80 CURVE SMOOTH",
"66 80 LINE",
"66 27 LINE SMOOTH",
"66 6 OFFCURVE",
"72 0 OFFCURVE",
"93 0 CURVE SMOOTH",
"154 0 LINE"
);
},
{
closed = 1;
nodes = (
"154 423 LINE SMOOTH",
"154 444 OFFCURVE",
"148 450 OFFCURVE",
"127 450 CURVE SMOOTH",
"66 450 LINE",
"66 397 LINE SMOOTH",
"66 376 OFFCURVE",
"72 370 OFFCURVE",
"93 370 CURVE SMOOTH",
"154 370 LINE"
);
}
);
width = 220;
},
{
layerId = "02C7D3CC-A397-42E8-8789-73F6D8E29B25";
paths = (
{
closed = 1;
nodes = (
"154 53 LINE SMOOTH",
"154 74 OFFCURVE",
"148 80 OFFCURVE",
"127 80 CURVE SMOOTH",
"66 80 LINE",
"66 27 LINE SMOOTH",
"66 6 OFFCURVE",
"72 0 OFFCURVE",
"93 0 CURVE SMOOTH",
"154 0 LINE"
);
},
{
closed = 1;
nodes = (
"154 423 LINE SMOOTH",
"154 444 OFFCURVE",
"148 450 OFFCURVE",
"127 450 CURVE SMOOTH",
"66 450 LINE",
"66 397 LINE SMOOTH",
"66 376 OFFCURVE",
"72 370 OFFCURVE",
"93 370 CURVE SMOOTH",
"154 370 LINE"
);
}
);
width = 220;
}
);
unicode = 003A;
},
{
glyphname = semicolon;
layers = (
{
layerId = "EAE98568-D1D1-402E-95FB-45A2161C7EBA";
name = img;
width = 220;
},
{
layerId = "0D43471E-84ED-412C-B4E5-2801B83B9DAE";
name = public.background;
paths = (
{
closed = 1;
nodes = (
"95 -136 LINE",
"133 -128 OFFCURVE",
"153 -75 OFFCURVE",
"153 -32 CURVE SMOOTH",
"153 53 LINE SMOOTH",
"153 74 OFFCURVE",
"147 80 OFFCURVE",
"126 80 CURVE SMOOTH",
"65 80 LINE",
"65 27 LINE SMOOTH",
"65 6 OFFCURVE",
"71 0 OFFCURVE",
"92 0 CURVE SMOOTH",
"95 0 LINE"
);
},
{
closed = 1;
nodes = (
"153 423 LINE SMOOTH",
"153 444 OFFCURVE",
"147 450 OFFCURVE",
"126 450 CURVE SMOOTH",
"65 450 LINE",
"65 397 LINE SMOOTH",
"65 376 OFFCURVE",
"71 370 OFFCURVE",
"92 370 CURVE SMOOTH",
"153 370 LINE"
);
}
);
width = 220;
},
{
components = (
{
name = comma;
alignment = -1;
},
{
name = period;
transform = "{1, 0, 0, 1, 0, 370}";
alignment = -1;
}
);
guideLines = (
{
angle = 90;
position = "{265, 0}";
}
);
layerId = "02C7D3CC-A397-42E8-8789-73F6D8E29B25";
width = 220;
}
);
unicode = 003B;
},
{
glyphname = less;
layers = (
{
layerId = "0D43471E-84ED-412C-B4E5-2801B83B9DAE";
name = public.background;
paths = (
{
closed = 1;
nodes = (
"53 364 LINE SMOOTH",
"40 352 OFFCURVE",
"39 341 OFFCURVE",
"53 328 CURVE SMOOTH",
"258 125 LINE",
"281 148 LINE SMOOTH",
"296 163 OFFCURVE",
"295 170 OFFCURVE",
"280 185 CURVE SMOOTH",
"118 346 LINE",
"280 507 LINE SMOOTH",
"295 522 OFFCURVE",
"296 529 OFFCURVE",
"281 544 CURVE SMOOTH",
"258 567 LINE"
);
}
);
width = 349;
},
{
guideLines = (
{
position = "{0, 346}";
}
);
layerId = "02C7D3CC-A397-42E8-8789-73F6D8E29B25";
paths = (
{
closed = 1;
nodes = (
"53 364 LINE SMOOTH",
"40 352 OFFCURVE",
"39 341 OFFCURVE",
"53 328 CURVE SMOOTH",
"258 125 LINE",
"281 148 LINE SMOOTH",
"296 163 OFFCURVE",
"295 170 OFFCURVE",
"280 185 CURVE SMOOTH",
"118 346 LINE",
"280 507 LINE SMOOTH",
"295 522 OFFCURVE",
"296 529 OFFCURVE",
"281 544 CURVE SMOOTH",
"258 567 LINE"
);
}
);
width = 349;
}
);
unicode = 003C;
},
{
glyphname = equal;
layers = (
{
layerId = "0D43471E-84ED-412C-B4E5-2801B83B9DAE";
name = public.background;
paths = (
{
closed = 1;
nodes = (
"68 411 LINE SMOOTH",
"68 390 OFFCURVE",
"74 384 OFFCURVE",
"95 384 CURVE SMOOTH",
"368 384 LINE",
"368 415 LINE SMOOTH",
"368 436 OFFCURVE",
"362 442 OFFCURVE",
"341 442 CURVE SMOOTH",
"68 442 LINE"
);
},
{
closed = 1;
nodes = (
"68 276 LINE SMOOTH",
"68 255 OFFCURVE",
"74 249 OFFCURVE",
"95 249 CURVE SMOOTH",
"368 249 LINE",
"368 280 LINE SMOOTH",
"368 301 OFFCURVE",
"362 307 OFFCURVE",
"341 307 CURVE SMOOTH",
"68 307 LINE"
);
}
);
width = 436;
},
{
layerId = "02C7D3CC-A397-42E8-8789-73F6D8E29B25";
paths = (
{
closed = 1;
nodes = (
"68 411 LINE SMOOTH",
"68 390 OFFCURVE",
"74 384 OFFCURVE",
"95 384 CURVE SMOOTH",
"368 384 LINE",
"368 415 LINE SMOOTH",
"368 436 OFFCURVE",
"362 442 OFFCURVE",
"341 442 CURVE SMOOTH",
"68 442 LINE"
);
},
{
closed = 1;
nodes = (
"68 276 LINE SMOOTH",
"68 255 OFFCURVE",
"74 249 OFFCURVE",
"95 249 CURVE SMOOTH",
"368 249 LINE",
"368 280 LINE SMOOTH",
"368 301 OFFCURVE",
"362 307 OFFCURVE",
"341 307 CURVE SMOOTH",
"68 307 LINE"
);
}
);
width = 436;
}
);
unicode = 003D;
},
{
glyphname = greater;
layers = (
{
layerId = "0D43471E-84ED-412C-B4E5-2801B83B9DAE";
name = public.background;
paths = (
{
closed = 1;
nodes = (
"296 364 LINE SMOOTH",
"309 352 OFFCURVE",
"310 341 OFFCURVE",
"296 328 CURVE SMOOTH",
"91 125 LINE",
"68 148 LINE SMOOTH",
"53 163 OFFCURVE",
"54 170 OFFCURVE",
"69 185 CURVE SMOOTH",
"231 346 LINE",
"69 507 LINE SMOOTH",
"54 522 OFFCURVE",
"53 529 OFFCURVE",
"68 544 CURVE SMOOTH",
"91 567 LINE"
);
}
);
width = 349;
},
{
components = (
{
name = less;
transform = "{-1, 0, 0, 1, 349, 0}";
alignment = -1;
}
);
layerId = "02C7D3CC-A397-42E8-8789-73F6D8E29B25";
width = 349;
}
);
unicode = 003E;
},
{
glyphname = question;
layers = (
{
layerId = "EAE98568-D1D1-402E-95FB-45A2161C7EBA";
name = img;
width = 379;
},
{
layerId = "0D43471E-84ED-412C-B4E5-2801B83B9DAE";
name = public.background;
paths = (
{
closed = 1;
nodes = (
"184 53 LINE SMOOTH",
"184 74 OFFCURVE",
"178 80 OFFCURVE",
"157 80 CURVE SMOOTH",
"96 80 LINE",
"96 27 LINE SMOOTH",
"96 6 OFFCURVE",
"102 0 OFFCURVE",
"123 0 CURVE SMOOTH",
"184 0 LINE"
);
},
{
closed = 1;
nodes = (
"96 156 LINE",
"149 156 LINE SMOOTH",
"170 156 OFFCURVE",
"176 162 OFFCURVE",
"176 183 CURVE SMOOTH",
"176 295 LINE SMOOTH",
"176 336 OFFCURVE",
"182 352 OFFCURVE",
"223 352 CURVE SMOOTH",
"230 352 LINE SMOOTH",
"299 352 OFFCURVE",
"325 378 OFFCURVE",
"325 447 CURVE SMOOTH",
"325 605 LINE SMOOTH",
"325 674 OFFCURVE",
"299 700 OFFCURVE",
"230 700 CURVE SMOOTH",
"109 700 LINE SMOOTH",
"70 700 OFFCURVE",
"57 680 OFFCURVE",
"49 642 CURVE",
"198 642 LINE SMOOTH",
"239 642 OFFCURVE",
"245 626 OFFCURVE",
"245 585 CURVE SMOOTH",
"245 467 LINE SMOOTH",
"245 426 OFFCURVE",
"239 410 OFFCURVE",
"198 410 CURVE SMOOTH",
"191 410 LINE SMOOTH",
"122 410 OFFCURVE",
"96 384 OFFCURVE",
"96 315 CURVE SMOOTH"
);
}
);
width = 379;
},
{
guideLines = (
{
angle = 90;
position = "{129, 0}";
},
{
angle = 90;
position = "{130, 0}";
},
{
angle = 90;
position = "{218, 0}";
}
);
layerId = "02C7D3CC-A397-42E8-8789-73F6D8E29B25";
paths = (
{
closed = 1;
nodes = (
"184 53 LINE SMOOTH",
"184 74 OFFCURVE",
"178 80 OFFCURVE",
"157 80 CURVE SMOOTH",
"96 80 LINE",
"96 27 LINE SMOOTH",
"96 6 OFFCURVE",
"102 0 OFFCURVE",
"123 0 CURVE SMOOTH",
"184 0 LINE"
);
},
{
closed = 1;
nodes = (
"96 156 LINE",
"149 156 LINE SMOOTH",
"170 156 OFFCURVE",
"176 162 OFFCURVE",
"176 183 CURVE SMOOTH",
"176 295 LINE SMOOTH",
"176 336 OFFCURVE",
"182 352 OFFCURVE",
"223 352 CURVE SMOOTH",
"230 352 LINE SMOOTH",
"299 352 OFFCURVE",
"325 378 OFFCURVE",
"325 447 CURVE SMOOTH",
"325 605 LINE SMOOTH",
"325 674 OFFCURVE",
"299 700 OFFCURVE",
"230 700 CURVE SMOOTH",
"109 700 LINE SMOOTH",
"70 700 OFFCURVE",
"57 680 OFFCURVE",
"49 642 CURVE",
"198 642 LINE SMOOTH",
"239 642 OFFCURVE",
"245 626 OFFCURVE",
"245 585 CURVE SMOOTH",
"245 467 LINE SMOOTH",
"245 426 OFFCURVE",
"239 410 OFFCURVE",
"198 410 CURVE SMOOTH",
"191 410 LINE SMOOTH",
"122 410 OFFCURVE",
"96 384 OFFCURVE",
"96 315 CURVE SMOOTH"
);
}
);
width = 379;
}
);
unicode = 003F;
},
{
glyphname = at;
layers = (
{
layerId = "EAE98568-D1D1-402E-95FB-45A2161C7EBA";
name = img;
width = 498;
},
{
layerId = "0D43471E-84ED-412C-B4E5-2801B83B9DAE";
name = public.background;
paths = (
{
closed = 1;
nodes = (
"306 128 LINE",
"327 128 OFFCURVE",
"331 134 OFFCURVE",
"331 155 CURVE SMOOTH",
"331 186 LINE",
"326 186 LINE SMOOTH",
"285 186 OFFCURVE",
"279 194 OFFCURVE",
"279 243 CURVE SMOOTH",
"279 254 LINE SMOOTH",
"279 303 OFFCURVE",
"282 311 OFFCURVE",
"325 311 CURVE SMOOTH",
"362 311 LINE",
"362 155 LINE SMOOTH",
"362 134 OFFCURVE",
"368 128 OFFCURVE",
"389 128 CURVE SMOOTH",
"435 128 LINE",
"435 402 LINE SMOOTH",
"435 470 OFFCURVE",
"417 496 OFFCURVE",
"350 497 CURVE",
"161 497 LINE SMOOTH",
"92 497 OFFCURVE",
"66 471 OFFCURVE",
"66 402 CURVE SMOOTH",
"66 95 LINE SMOOTH",
"66 26 OFFCURVE",
"92 0 OFFCURVE",
"161 0 CURVE SMOOTH",
"398 0 LINE SMOOTH",
"419 0 OFFCURVE",
"425 6 OFFCURVE",
"425 27 CURVE SMOOTH",
"425 58 LINE",
"188 58 LINE SMOOTH",
"147 58 OFFCURVE",
"141 74 OFFCURVE",
"141 115 CURVE SMOOTH",
"141 382 LINE SMOOTH",
"141 423 OFFCURVE",
"147 439 OFFCURVE",
"188 439 CURVE SMOOTH",
"321 439 LINE",
"356 437 OFFCURVE",
"362 421 OFFCURVE",
"362 382 CURVE SMOOTH",
"362 369 LINE",
"304 369 LINE SMOOTH",
"235 369 OFFCURVE",
"209 343 OFFCURVE",
"209 274 CURVE SMOOTH",
"209 223 LINE SMOOTH",
"209 154 OFFCURVE",
"235 128 OFFCURVE",
"304 128 CURVE"
);
}
);
width = 498;
},
{
guideLines = (
{
angle = 90;
position = "{349, 0}";
}
);
layerId = "02C7D3CC-A397-42E8-8789-73F6D8E29B25";
paths = (
{
closed = 1;
nodes = (
"306 128 LINE",
"327 128 OFFCURVE",
"331 134 OFFCURVE",
"331 155 CURVE SMOOTH",
"331 186 LINE",
"326 186 LINE SMOOTH",
"285 186 OFFCURVE",
"279 194 OFFCURVE",
"279 243 CURVE SMOOTH",
"279 254 LINE SMOOTH",
"279 303 OFFCURVE",
"282 311 OFFCURVE",
"325 311 CURVE SMOOTH",
"362 311 LINE",
"362 155 LINE SMOOTH",
"362 134 OFFCURVE",
"368 128 OFFCURVE",
"389 128 CURVE SMOOTH",
"435 128 LINE",
"435 402 LINE SMOOTH",
"435 470 OFFCURVE",
"417 496 OFFCURVE",
"350 497 CURVE",
"161 497 LINE SMOOTH",
"92 497 OFFCURVE",
"66 471 OFFCURVE",
"66 402 CURVE SMOOTH",
"66 95 LINE SMOOTH",
"66 26 OFFCURVE",
"92 0 OFFCURVE",
"161 0 CURVE SMOOTH",
"398 0 LINE SMOOTH",
"419 0 OFFCURVE",
"425 6 OFFCURVE",
"425 27 CURVE SMOOTH",
"425 58 LINE",
"188 58 LINE SMOOTH",
"147 58 OFFCURVE",
"141 74 OFFCURVE",
"141 115 CURVE SMOOTH",
"141 382 LINE SMOOTH",
"141 423 OFFCURVE",
"147 439 OFFCURVE",
"188 439 CURVE SMOOTH",
"321 439 LINE",
"356 437 OFFCURVE",
"362 421 OFFCURVE",
"362 382 CURVE SMOOTH",
"362 369 LINE",
"304 369 LINE SMOOTH",
"235 369 OFFCURVE",
"209 343 OFFCURVE",
"209 274 CURVE SMOOTH",
"209 223 LINE SMOOTH",
"209 154 OFFCURVE",
"235 128 OFFCURVE",
"304 128 CURVE"
);
}
);
width = 498;
}
);
unicode = 0040;
},
{
glyphname = A;
layers = (
{
layerId = "EAE98568-D1D1-402E-95FB-45A2161C7EBA";
name = img;
width = 477;
},
{
layerId = "0D43471E-84ED-412C-B4E5-2801B83B9DAE";
name = public.background;
paths = (
{
closed = 1;
nodes = (
"261 334 LINE SMOOTH",
"282 334 OFFCURVE",
"286 340 OFFCURVE",
"286 361 CURVE SMOOTH",
"286 392 LINE",
"152 392 LINE",
"152 585 LINE SMOOTH",
"152 624 OFFCURVE",
"157 640 OFFCURVE",
"193 642 CURVE",
"285 642 LINE",
"320 640 OFFCURVE",
"326 624 OFFCURVE",
"326 585 CURVE SMOOTH",
"326 0 LINE",
"379 0 LINE SMOOTH",
"400 0 OFFCURVE",
"406 6 OFFCURVE",
"406 27 CURVE SMOOTH",
"406 605 LINE SMOOTH",
"406 674 OFFCURVE",
"380 700 OFFCURVE",
"311 700 CURVE SMOOTH",
"167 700 LINE SMOOTH",
"98 700 OFFCURVE",
"72 674 OFFCURVE",
"72 605 CURVE SMOOTH",
"72 0 LINE",
"125 0 LINE SMOOTH",
"146 0 OFFCURVE",
"152 6 OFFCURVE",
"152 27 CURVE SMOOTH",
"152 334 LINE"
);
}
);
width = 477;
},
{
anchors = (
{
name = top;
position = "{247, 722}";
}
);
layerId = "02C7D3CC-A397-42E8-8789-73F6D8E29B25";
paths = (
{
closed = 1;
nodes = (
"261 334 LINE SMOOTH",
"282 334 OFFCURVE",
"286 340 OFFCURVE",
"286 361 CURVE SMOOTH",
"286 392 LINE",
"152 392 LINE",
"152 585 LINE SMOOTH",
"152 624 OFFCURVE",
"157 640 OFFCURVE",
"193 642 CURVE",
"285 642 LINE",
"320 640 OFFCURVE",
"326 624 OFFCURVE",
"326 585 CURVE SMOOTH",
"326 0 LINE",
"379 0 LINE SMOOTH",
"400 0 OFFCURVE",
"406 6 OFFCURVE",
"406 27 CURVE SMOOTH",
"406 605 LINE SMOOTH",
"406 674 OFFCURVE",
"380 700 OFFCURVE",
"311 700 CURVE SMOOTH",
"167 700 LINE SMOOTH",
"98 700 OFFCURVE",
"72 674 OFFCURVE",
"72 605 CURVE SMOOTH",
"72 0 LINE",
"125 0 LINE SMOOTH",
"146 0 OFFCURVE",
"152 6 OFFCURVE",
"152 27 CURVE SMOOTH",
"152 334 LINE"
);
}
);
width = 477;
}
);
leftKerningGroup = _KERN_A_2ND;
rightKerningGroup = _KERN_A_1ST;
unicode = 0041;
},
{
glyphname = B;
layers = (
{
layerId = "0D43471E-84ED-412C-B4E5-2801B83B9DAE";
name = public.background;
paths = (
{
closed = 1;
nodes = (
"301 0 LINE SMOOTH",
"370 0 OFFCURVE",
"396 26 OFFCURVE",
"396 95 CURVE SMOOTH",
"396 277 LINE SMOOTH",
"396 330 OFFCURVE",
"380 357 OFFCURVE",
"341 367 CURVE",
"341 369 LINE",
"379 378 OFFCURVE",
"396 406 OFFCURVE",
"396 459 CURVE SMOOTH",
"396 605 LINE SMOOTH",
"396 674 OFFCURVE",
"370 700 OFFCURVE",
"301 700 CURVE SMOOTH",
"99 700 LINE SMOOTH",
"78 700 OFFCURVE",
"72 694 OFFCURVE",
"72 673 CURVE SMOOTH",
"72 0 LINE",
"152 0 LINE",
"152 334 LINE",
"269 334 LINE SMOOTH",
"310 334 OFFCURVE",
"316 318 OFFCURVE",
"316 277 CURVE SMOOTH",
"316 115 LINE SMOOTH",
"316 74 OFFCURVE",
"310 58 OFFCURVE",
"269 58 CURVE SMOOTH",
"192 58 LINE",
"192 27 LINE SMOOTH",
"192 6 OFFCURVE",
"196 0 OFFCURVE",
"217 0 CURVE SMOOTH"
);
},
{
closed = 1;
nodes = (
"269 642 LINE SMOOTH",
"310 642 OFFCURVE",
"316 626 OFFCURVE",
"316 585 CURVE SMOOTH",
"316 449 LINE SMOOTH",
"316 410 OFFCURVE",
"310 393 OFFCURVE",
"275 392 CURVE",
"152 392 LINE",
"152 642 LINE"
);
}
);
width = 465;
},
{
layerId = "02C7D3CC-A397-42E8-8789-73F6D8E29B25";
paths = (
{
closed = 1;
nodes = (
"301 0 LINE SMOOTH",
"370 0 OFFCURVE",
"396 26 OFFCURVE",
"396 95 CURVE SMOOTH",
"396 277 LINE SMOOTH",
"396 330 OFFCURVE",
"380 357 OFFCURVE",
"341 367 CURVE",
"341 369 LINE",
"379 378 OFFCURVE",
"396 406 OFFCURVE",
"396 459 CURVE SMOOTH",
"396 605 LINE SMOOTH",
"396 674 OFFCURVE",
"370 700 OFFCURVE",
"301 700 CURVE SMOOTH",
"99 700 LINE SMOOTH",
"78 700 OFFCURVE",
"72 694 OFFCURVE",
"72 673 CURVE SMOOTH",
"72 0 LINE",
"152 0 LINE",
"152 334 LINE",
"269 334 LINE SMOOTH",
"310 334 OFFCURVE",
"316 318 OFFCURVE",
"316 277 CURVE SMOOTH",
"316 115 LINE SMOOTH",
"316 74 OFFCURVE",
"310 58 OFFCURVE",
"269 58 CURVE SMOOTH",
"192 58 LINE",
"192 27 LINE SMOOTH",
"192 6 OFFCURVE",
"196 0 OFFCURVE",
"217 0 CURVE SMOOTH"
);
},
{
closed = 1;
nodes = (
"269 642 LINE SMOOTH",
"310 642 OFFCURVE",
"316 626 OFFCURVE",
"316 585 CURVE SMOOTH",
"316 449 LINE SMOOTH",
"316 410 OFFCURVE",
"310 393 OFFCURVE",
"275 392 CURVE",
"152 392 LINE",
"152 642 LINE"
);
}
);
width = 465;
}
);
leftKerningGroup = _KERN_I_2ND;
unicode = 0042;
},
{
glyphname = C;
layers = (
{
layerId = "EAE98568-D1D1-402E-95FB-45A2161C7EBA";
name = img;
width = 390;
},
{
layerId = "0D43471E-84ED-412C-B4E5-2801B83B9DAE";
name = public.background;
paths = (
{
closed = 1;
nodes = (
"329 0 LINE SMOOTH",
"350 0 OFFCURVE",
"354 6 OFFCURVE",
"354 27 CURVE SMOOTH",
"354 58 LINE",
"197 58 LINE SMOOTH",
"156 58 OFFCURVE",
"150 74 OFFCURVE",
"150 115 CURVE SMOOTH",
"150 585 LINE SMOOTH",
"150 626 OFFCURVE",
"156 642 OFFCURVE",
"197 642 CURVE SMOOTH",
"354 642 LINE",
"346 680 OFFCURVE",
"333 700 OFFCURVE",
"294 700 CURVE SMOOTH",
"165 700 LINE SMOOTH",
"96 700 OFFCURVE",
"70 674 OFFCURVE",
"70 605 CURVE SMOOTH",
"70 95 LINE SMOOTH",
"70 26 OFFCURVE",
"96 0 OFFCURVE",
"165 0 CURVE SMOOTH"
);
}
);
width = 390;
},
{
guideLines = (
{
angle = 90;
position = "{352, 0}";
}
);
layerId = "02C7D3CC-A397-42E8-8789-73F6D8E29B25";
paths = (
{
closed = 1;
nodes = (
"329 0 LINE SMOOTH",
"350 0 OFFCURVE",
"354 6 OFFCURVE",
"354 27 CURVE SMOOTH",
"354 58 LINE",
"197 58 LINE SMOOTH",
"156 58 OFFCURVE",
"150 74 OFFCURVE",
"150 115 CURVE SMOOTH",
"150 585 LINE SMOOTH",
"150 626 OFFCURVE",
"156 642 OFFCURVE",
"197 642 CURVE SMOOTH",
"354 642 LINE",
"346 680 OFFCURVE",
"333 700 OFFCURVE",
"294 700 CURVE SMOOTH",
"165 700 LINE SMOOTH",
"96 700 OFFCURVE",
"70 674 OFFCURVE",
"70 605 CURVE SMOOTH",
"70 95 LINE SMOOTH",
"70 26 OFFCURVE",
"96 0 OFFCURVE",
"165 0 CURVE SMOOTH"
);
}
);
width = 390;
}
);
leftKerningGroup = _KERN_O_2ND;
rightKerningGroup = _KERN_C_1ST;
unicode = 0043;
},
{
glyphname = D;
layers = (
{
layerId = "0D43471E-84ED-412C-B4E5-2801B83B9DAE";
name = public.background;
paths = (
{
closed = 1;
nodes = (
"311 0 LINE SMOOTH",
"380 0 OFFCURVE",
"406 26 OFFCURVE",
"406 95 CURVE SMOOTH",
"406 605 LINE SMOOTH",
"406 674 OFFCURVE",
"380 700 OFFCURVE",
"311 700 CURVE SMOOTH",
"99 700 LINE SMOOTH",
"78 700 OFFCURVE",
"72 694 OFFCURVE",
"72 673 CURVE SMOOTH",
"72 0 LINE",
"152 0 LINE",
"152 642 LINE",
"279 642 LINE SMOOTH",
"320 642 OFFCURVE",
"326 626 OFFCURVE",
"326 585 CURVE SMOOTH",
"326 115 LINE SMOOTH",
"326 74 OFFCURVE",
"320 58 OFFCURVE",
"279 58 CURVE SMOOTH",
"192 58 LINE",
"192 27 LINE SMOOTH",
"192 6 OFFCURVE",
"196 0 OFFCURVE",
"217 0 CURVE SMOOTH"
);
}
);
width = 476;
},
{
layerId = "02C7D3CC-A397-42E8-8789-73F6D8E29B25";
paths = (
{
closed = 1;
nodes = (
"311 0 LINE SMOOTH",
"380 0 OFFCURVE",
"406 26 OFFCURVE",
"406 95 CURVE SMOOTH",
"406 605 LINE SMOOTH",
"406 674 OFFCURVE",
"380 700 OFFCURVE",
"311 700 CURVE SMOOTH",
"99 700 LINE SMOOTH",
"78 700 OFFCURVE",
"72 694 OFFCURVE",
"72 673 CURVE SMOOTH",
"72 0 LINE",
"152 0 LINE",
"152 642 LINE",
"279 642 LINE SMOOTH",
"320 642 OFFCURVE",
"326 626 OFFCURVE",
"326 585 CURVE SMOOTH",
"326 115 LINE SMOOTH",
"326 74 OFFCURVE",
"320 58 OFFCURVE",
"279 58 CURVE SMOOTH",
"192 58 LINE",
"192 27 LINE SMOOTH",
"192 6 OFFCURVE",
"196 0 OFFCURVE",
"217 0 CURVE SMOOTH"
);
}
);
width = 476;
}
);
leftKerningGroup = _KERN_I_2ND;
rightKerningGroup = _KERN_D_1ST;
unicode = 0044;
},
{
glyphname = E;
layers = (
{
layerId = "0D43471E-84ED-412C-B4E5-2801B83B9DAE";
name = public.background;
paths = (
{
closed = 1;
nodes = (
"288 334 LINE SMOOTH",
"309 334 OFFCURVE",
"313 340 OFFCURVE",
"313 361 CURVE SMOOTH",
"313 392 LINE",
"152 392 LINE",
"152 642 LINE",
"318 642 LINE SMOOTH",
"339 642 OFFCURVE",
"343 648 OFFCURVE",
"343 669 CURVE SMOOTH",
"343 700 LINE",
"99 700 LINE SMOOTH",
"78 700 OFFCURVE",
"72 694 OFFCURVE",
"72 673 CURVE SMOOTH",
"72 0 LINE",
"316 0 LINE SMOOTH",
"337 0 OFFCURVE",
"343 6 OFFCURVE",
"343 27 CURVE SMOOTH",
"343 58 LINE",
"152 58 LINE",
"152 334 LINE"
);
}
);
width = 389;
},
{
anchors = (
{
name = top;
position = "{217, 750}";
}
);
guideLines = (
{
angle = 90;
position = "{336, 0}";
}
);
layerId = "02C7D3CC-A397-42E8-8789-73F6D8E29B25";
paths = (
{
closed = 1;
nodes = (
"288 334 LINE SMOOTH",
"309 334 OFFCURVE",
"313 340 OFFCURVE",
"313 361 CURVE SMOOTH",
"313 392 LINE",
"152 392 LINE",
"152 642 LINE",
"318 642 LINE SMOOTH",
"339 642 OFFCURVE",
"343 648 OFFCURVE",
"343 669 CURVE SMOOTH",
"343 700 LINE",
"99 700 LINE SMOOTH",
"78 700 OFFCURVE",
"72 694 OFFCURVE",
"72 673 CURVE SMOOTH",
"72 0 LINE",
"316 0 LINE SMOOTH",
"337 0 OFFCURVE",
"343 6 OFFCURVE",
"343 27 CURVE SMOOTH",
"343 58 LINE",
"152 58 LINE",
"152 334 LINE"
);
}
);
width = 389;
}
);
leftKerningGroup = _KERN_I_2ND;
rightKerningGroup = _KERN_E_1ST;
unicode = 0045;
},
{
glyphname = F;
layers = (
{
layerId = "0D43471E-84ED-412C-B4E5-2801B83B9DAE";
name = public.background;
paths = (
{
closed = 1;
nodes = (
"99 700 LINE SMOOTH",
"78 700 OFFCURVE",
"72 694 OFFCURVE",
"72 673 CURVE SMOOTH",
"72 0 LINE",
"125 0 LINE SMOOTH",
"146 0 OFFCURVE",
"152 6 OFFCURVE",
"152 27 CURVE SMOOTH",
"152 334 LINE",
"288 334 LINE SMOOTH",
"309 334 OFFCURVE",
"313 340 OFFCURVE",
"313 361 CURVE SMOOTH",
"313 392 LINE",
"152 392 LINE",
"152 642 LINE",
"318 642 LINE SMOOTH",
"339 642 OFFCURVE",
"343 648 OFFCURVE",
"343 669 CURVE SMOOTH",
"343 700 LINE"
);
}
);
width = 373;
},
{
guideLines = (
{
angle = 90;
position = "{326, 0}";
}
);
layerId = "02C7D3CC-A397-42E8-8789-73F6D8E29B25";
paths = (
{
closed = 1;
nodes = (
"99 700 LINE SMOOTH",
"78 700 OFFCURVE",
"72 694 OFFCURVE",
"72 673 CURVE SMOOTH",
"72 0 LINE",
"125 0 LINE SMOOTH",
"146 0 OFFCURVE",
"152 6 OFFCURVE",
"152 27 CURVE SMOOTH",
"152 334 LINE",
"288 334 LINE SMOOTH",
"309 334 OFFCURVE",
"313 340 OFFCURVE",
"313 361 CURVE SMOOTH",
"313 392 LINE",
"152 392 LINE",
"152 642 LINE",
"318 642 LINE SMOOTH",
"339 642 OFFCURVE",
"343 648 OFFCURVE",
"343 669 CURVE SMOOTH",
"343 700 LINE"
);
}
);
width = 373;
}
);
leftKerningGroup = _KERN_I_2ND;
unicode = 0046;
},
{
glyphname = H;
layers = (
{
layerId = "0D43471E-84ED-412C-B4E5-2801B83B9DAE";
name = public.background;
paths = (
{
closed = 1;
nodes = (
"373 700 LINE SMOOTH",
"352 700 OFFCURVE",
"346 694 OFFCURVE",
"346 673 CURVE SMOOTH",
"346 0 LINE",
"399 0 LINE SMOOTH",
"420 0 OFFCURVE",
"426 6 OFFCURVE",
"426 27 CURVE SMOOTH",
"426 700 LINE"
);
},
{
closed = 1;
nodes = (
"281 334 LINE SMOOTH",
"302 334 OFFCURVE",
"306 340 OFFCURVE",
"306 361 CURVE SMOOTH",
"306 392 LINE",
"152 392 LINE",
"152 700 LINE",
"99 700 LINE SMOOTH",
"78 700 OFFCURVE",
"72 694 OFFCURVE",
"72 673 CURVE SMOOTH",
"72 0 LINE",
"125 0 LINE SMOOTH",
"146 0 OFFCURVE",
"152 6 OFFCURVE",
"152 27 CURVE SMOOTH",
"152 334 LINE"
);
}
);
width = 498;
},
{
layerId = "02C7D3CC-A397-42E8-8789-73F6D8E29B25";
paths = (
{
closed = 1;
nodes = (
"373 700 LINE SMOOTH",
"352 700 OFFCURVE",
"346 694 OFFCURVE",
"346 673 CURVE SMOOTH",
"346 0 LINE",
"399 0 LINE SMOOTH",
"420 0 OFFCURVE",
"426 6 OFFCURVE",
"426 27 CURVE SMOOTH",
"426 700 LINE"
);
},
{
closed = 1;
nodes = (
"281 334 LINE SMOOTH",
"302 334 OFFCURVE",
"306 340 OFFCURVE",
"306 361 CURVE SMOOTH",
"306 392 LINE",
"152 392 LINE",
"152 700 LINE",
"99 700 LINE SMOOTH",
"78 700 OFFCURVE",
"72 694 OFFCURVE",
"72 673 CURVE SMOOTH",
"72 0 LINE",
"125 0 LINE SMOOTH",
"146 0 OFFCURVE",
"152 6 OFFCURVE",
"152 27 CURVE SMOOTH",
"152 334 LINE"
);
}
);
width = 498;
}
);
leftKerningGroup = _KERN_I_2ND;
rightKerningGroup = _KERN_I_1ST;
unicode = 0048;
},
{
glyphname = I;
layers = (
{
layerId = "0D43471E-84ED-412C-B4E5-2801B83B9DAE";
name = public.background;
paths = (
{
closed = 1;
nodes = (
"99 700 LINE SMOOTH",
"78 700 OFFCURVE",
"72 694 OFFCURVE",
"72 673 CURVE SMOOTH",
"72 0 LINE",
"125 0 LINE SMOOTH",
"146 0 OFFCURVE",
"152 6 OFFCURVE",
"152 27 CURVE SMOOTH",
"152 700 LINE"
);
}
);
width = 224;
},
{
anchors = (
{
name = top;
position = "{119, 750}";
}
);
layerId = "02C7D3CC-A397-42E8-8789-73F6D8E29B25";
paths = (
{
closed = 1;
nodes = (
"99 700 LINE SMOOTH",
"78 700 OFFCURVE",
"72 694 OFFCURVE",
"72 673 CURVE SMOOTH",
"72 0 LINE",
"125 0 LINE SMOOTH",
"146 0 OFFCURVE",
"152 6 OFFCURVE",
"152 27 CURVE SMOOTH",
"152 700 LINE"
);
}
);
width = 224;
}
);
leftKerningGroup = _KERN_I_2ND;
rightKerningGroup = _KERN_I_1ST;
unicode = 0049;
},
{
glyphname = J;
layers = (
{
layerId = "0D43471E-84ED-412C-B4E5-2801B83B9DAE";
name = public.background;
paths = (
{
closed = 1;
nodes = (
"-32 -115 LINE",
"57 -115 LINE SMOOTH",
"126 -115 OFFCURVE",
"152 -89 OFFCURVE",
"152 -20 CURVE SMOOTH",
"152 700 LINE",
"99 700 LINE SMOOTH",
"78 700 OFFCURVE",
"72 694 OFFCURVE",
"72 673 CURVE SMOOTH",
"72 0 LINE SMOOTH",
"72 -41 OFFCURVE",
"66 -57 OFFCURVE",
"25 -57 CURVE SMOOTH",
"-7 -57 LINE SMOOTH",
"-28 -57 OFFCURVE",
"-32 -63 OFFCURVE",
"-32 -84 CURVE SMOOTH"
);
}
);
width = 224;
},
{
guideLines = (
{
angle = 90;
position = "{30, 0}";
}
);
layerId = "02C7D3CC-A397-42E8-8789-73F6D8E29B25";
paths = (
{
closed = 1;
nodes = (
"-32 -115 LINE",
"57 -115 LINE SMOOTH",
"126 -115 OFFCURVE",
"152 -89 OFFCURVE",
"152 -20 CURVE SMOOTH",
"152 700 LINE",
"99 700 LINE SMOOTH",
"78 700 OFFCURVE",
"72 694 OFFCURVE",
"72 673 CURVE SMOOTH",
"72 0 LINE SMOOTH",
"72 -41 OFFCURVE",
"66 -57 OFFCURVE",
"25 -57 CURVE SMOOTH",
"-7 -57 LINE SMOOTH",
"-28 -57 OFFCURVE",
"-32 -63 OFFCURVE",
"-32 -84 CURVE SMOOTH"
);
}
);
width = 224;
}
);
leftKerningGroup = _KERN_I_2ND;
unicode = 004A;
},
{
glyphname = K;
layers = (
{
layerId = "0D43471E-84ED-412C-B4E5-2801B83B9DAE";
name = public.background;
paths = (
{
closed = 1;
nodes = (
"99 700 LINE SMOOTH",
"78 700 OFFCURVE",
"72 694 OFFCURVE",
"72 673 CURVE SMOOTH",
"72 0 LINE",
"125 0 LINE SMOOTH",
"146 0 OFFCURVE",
"152 6 OFFCURVE",
"152 27 CURVE SMOOTH",
"152 700 LINE"
);
},
{
closed = 1;
nodes = (
"252 369 LINE",
"426 700 LINE",
"384 700 LINE SMOOTH",
"363 700 OFFCURVE",
"342 692 OFFCURVE",
"333 673 CURVE",
"192 399 LINE",
"192 328 LINE",
"341 27 LINE",
"350 8 OFFCURVE",
"371 0 OFFCURVE",
"392 0 CURVE SMOOTH",
"442 0 LINE"
);
}
);
width = 457;
},
{
guideLines = (
{
angle = 90;
position = "{172, 0}";
}
);
layerId = "02C7D3CC-A397-42E8-8789-73F6D8E29B25";
paths = (
{
closed = 1;
nodes = (
"99 700 LINE SMOOTH",
"78 700 OFFCURVE",
"72 694 OFFCURVE",
"72 673 CURVE SMOOTH",
"72 0 LINE",
"125 0 LINE SMOOTH",
"146 0 OFFCURVE",
"152 6 OFFCURVE",
"152 27 CURVE SMOOTH",
"152 700 LINE"
);
},
{
closed = 1;
nodes = (
"252 369 LINE",
"426 700 LINE",
"384 700 LINE SMOOTH",
"363 700 OFFCURVE",
"342 692 OFFCURVE",
"333 673 CURVE",
"192 399 LINE",
"192 328 LINE",
"341 27 LINE SMOOTH",
"350 8 OFFCURVE",
"371 0 OFFCURVE",
"392 0 CURVE SMOOTH",
"442 0 LINE"
);
}
);
width = 457;
}
);
leftKerningGroup = _KERN_I_2ND;
unicode = 004B;
},
{
glyphname = L;
layers = (
{
layerId = "0D43471E-84ED-412C-B4E5-2801B83B9DAE";
name = public.background;
paths = (
{
closed = 1;
nodes = (
"336 0 LINE SMOOTH",
"357 0 OFFCURVE",
"363 6 OFFCURVE",
"363 27 CURVE SMOOTH",
"363 58 LINE",
"152 58 LINE",
"152 700 LINE",
"99 700 LINE SMOOTH",
"78 700 OFFCURVE",
"72 694 OFFCURVE",
"72 673 CURVE SMOOTH",
"72 0 LINE"
);
}
);
width = 388;
},
{
layerId = "02C7D3CC-A397-42E8-8789-73F6D8E29B25";
paths = (
{
closed = 1;
nodes = (
"336 0 LINE SMOOTH",
"357 0 OFFCURVE",
"363 6 OFFCURVE",
"363 27 CURVE SMOOTH",
"363 58 LINE",
"152 58 LINE",
"152 700 LINE",
"99 700 LINE SMOOTH",
"78 700 OFFCURVE",
"72 694 OFFCURVE",
"72 673 CURVE SMOOTH",
"72 0 LINE"
);
}
);
width = 388;
}
);
leftKerningGroup = _KERN_I_2ND;
unicode = 004C;
},
{
glyphname = N;
layers = (
{
layerId = "0D43471E-84ED-412C-B4E5-2801B83B9DAE";
name = public.background;
paths = (
{
closed = 1;
nodes = (
"153 700 LINE",
"99 700 LINE SMOOTH",
"78 700 OFFCURVE",
"72 694 OFFCURVE",
"72 673 CURVE SMOOTH",
"72 0 LINE",
"125 0 LINE SMOOTH",
"146 0 OFFCURVE",
"152 6 OFFCURVE",
"152 27 CURVE SMOOTH",
"152 441 LINE",
"137 581 LINE",
"143 581 LINE",
"199 420 LINE",
"384 0 LINE",
"436 0 LINE SMOOTH",
"457 0 OFFCURVE",
"463 6 OFFCURVE",
"463 27 CURVE SMOOTH",
"463 700 LINE",
"410 700 LINE SMOOTH",
"389 700 OFFCURVE",
"383 694 OFFCURVE",
"383 673 CURVE SMOOTH",
"383 275 LINE",
"399 123 LINE",
"393 123 LINE",
"338 272 LINE"
);
}
);
width = 535;
},
{
anchors = (
{
name = top;
position = "{257, 750}";
}
);
guideLines = (
{
angle = 90;
position = "{363, 0}";
},
{
angle = 90;
position = "{152, 0}";
}
);
layerId = "02C7D3CC-A397-42E8-8789-73F6D8E29B25";
paths = (
{
closed = 1;
nodes = (
"153 700 LINE",
"99 700 LINE SMOOTH",
"78 700 OFFCURVE",
"72 694 OFFCURVE",
"72 673 CURVE SMOOTH",
"72 0 LINE",
"125 0 LINE SMOOTH",
"146 0 OFFCURVE",
"152 6 OFFCURVE",
"152 27 CURVE SMOOTH",
"152 441 LINE",
"137 581 LINE",
"143 581 LINE",
"199 420 LINE",
"384 0 LINE",
"436 0 LINE SMOOTH",
"457 0 OFFCURVE",
"463 6 OFFCURVE",
"463 27 CURVE SMOOTH",
"463 700 LINE",
"410 700 LINE SMOOTH",
"389 700 OFFCURVE",
"383 694 OFFCURVE",
"383 673 CURVE SMOOTH",
"383 275 LINE",
"399 123 LINE",
"393 123 LINE",
"338 272 LINE"
);
}
);
width = 535;
}
);
leftKerningGroup = _KERN_I_2ND;
rightKerningGroup = _KERN_I_1ST;
unicode = 004E;
},
{
glyphname = O;
layers = (
{
layerId = "EAE98568-D1D1-402E-95FB-45A2161C7EBA";
name = img;
width = 484;
},
{
layerId = "0D43471E-84ED-412C-B4E5-2801B83B9DAE";
name = public.background;
paths = (
{
closed = 1;
nodes = (
"150 585 LINE SMOOTH",
"150 626 OFFCURVE",
"156 642 OFFCURVE",
"197 642 CURVE SMOOTH",
"287 642 LINE SMOOTH",
"328 642 OFFCURVE",
"334 626 OFFCURVE",
"334 585 CURVE SMOOTH",
"334 115 LINE SMOOTH",
"334 74 OFFCURVE",
"328 58 OFFCURVE",
"287 58 CURVE SMOOTH",
"197 58 LINE SMOOTH",
"156 58 OFFCURVE",
"150 74 OFFCURVE",
"150 115 CURVE SMOOTH"
);
},
{
closed = 1;
nodes = (
"70 95 LINE SMOOTH",
"70 26 OFFCURVE",
"96 0 OFFCURVE",
"165 0 CURVE SMOOTH",
"319 0 LINE SMOOTH",
"388 0 OFFCURVE",
"414 26 OFFCURVE",
"414 95 CURVE SMOOTH",
"414 605 LINE SMOOTH",
"414 674 OFFCURVE",
"388 700 OFFCURVE",
"319 700 CURVE SMOOTH",
"165 700 LINE SMOOTH",
"96 700 OFFCURVE",
"70 674 OFFCURVE",
"70 605 CURVE SMOOTH"
);
}
);
width = 484;
},
{
anchors = (
{
name = top;
position = "{243, 749}";
}
);
layerId = "02C7D3CC-A397-42E8-8789-73F6D8E29B25";
paths = (
{
closed = 1;
nodes = (
"150 585 LINE SMOOTH",
"150 626 OFFCURVE",
"156 642 OFFCURVE",
"197 642 CURVE SMOOTH",
"287 642 LINE SMOOTH",
"328 642 OFFCURVE",
"334 626 OFFCURVE",
"334 585 CURVE SMOOTH",
"334 115 LINE SMOOTH",
"334 74 OFFCURVE",
"328 58 OFFCURVE",
"287 58 CURVE SMOOTH",
"197 58 LINE SMOOTH",
"156 58 OFFCURVE",
"150 74 OFFCURVE",
"150 115 CURVE SMOOTH"
);
},
{
closed = 1;
nodes = (
"70 95 LINE SMOOTH",
"70 26 OFFCURVE",
"96 0 OFFCURVE",
"165 0 CURVE SMOOTH",
"319 0 LINE SMOOTH",
"388 0 OFFCURVE",
"414 26 OFFCURVE",
"414 95 CURVE SMOOTH",
"414 605 LINE SMOOTH",
"414 674 OFFCURVE",
"388 700 OFFCURVE",
"319 700 CURVE SMOOTH",
"165 700 LINE SMOOTH",
"96 700 OFFCURVE",
"70 674 OFFCURVE",
"70 605 CURVE SMOOTH"
);
}
);
width = 484;
}
);
leftKerningGroup = _KERN_O_2ND;
rightKerningGroup = _KERN_O_1ST;
unicode = 004F;
},
{
glyphname = P;
layers = (
{
layerId = "0D43471E-84ED-412C-B4E5-2801B83B9DAE";
name = public.background;
paths = (
{
closed = 1;
nodes = (
"192 352 LINE",
"192 321 LINE SMOOTH",
"192 300 OFFCURVE",
"196 294 OFFCURVE",
"217 294 CURVE SMOOTH",
"301 294 LINE SMOOTH",
"370 294 OFFCURVE",
"396 320 OFFCURVE",
"396 389 CURVE SMOOTH",
"396 605 LINE SMOOTH",
"396 674 OFFCURVE",
"370 700 OFFCURVE",
"301 700 CURVE SMOOTH",
"99 700 LINE SMOOTH",
"78 700 OFFCURVE",
"72 694 OFFCURVE",
"72 673 CURVE SMOOTH",
"72 0 LINE",
"125 0 LINE SMOOTH",
"146 0 OFFCURVE",
"152 6 OFFCURVE",
"152 27 CURVE SMOOTH",
"152 642 LINE",
"269 642 LINE SMOOTH",
"310 642 OFFCURVE",
"316 626 OFFCURVE",
"316 585 CURVE SMOOTH",
"316 409 LINE SMOOTH",
"316 368 OFFCURVE",
"310 352 OFFCURVE",
"269 352 CURVE SMOOTH"
);
}
);
width = 445;
},
{
layerId = "02C7D3CC-A397-42E8-8789-73F6D8E29B25";
paths = (
{
closed = 1;
nodes = (
"192 352 LINE",
"192 321 LINE SMOOTH",
"192 300 OFFCURVE",
"196 294 OFFCURVE",
"217 294 CURVE SMOOTH",
"301 294 LINE SMOOTH",
"370 294 OFFCURVE",
"396 320 OFFCURVE",
"396 389 CURVE SMOOTH",
"396 605 LINE SMOOTH",
"396 674 OFFCURVE",
"370 700 OFFCURVE",
"301 700 CURVE SMOOTH",
"99 700 LINE SMOOTH",
"78 700 OFFCURVE",
"72 694 OFFCURVE",
"72 673 CURVE SMOOTH",
"72 0 LINE",
"125 0 LINE SMOOTH",
"146 0 OFFCURVE",
"152 6 OFFCURVE",
"152 27 CURVE SMOOTH",
"152 642 LINE",
"269 642 LINE SMOOTH",
"310 642 OFFCURVE",
"316 626 OFFCURVE",
"316 585 CURVE SMOOTH",
"316 409 LINE SMOOTH",
"316 368 OFFCURVE",
"310 352 OFFCURVE",
"269 352 CURVE SMOOTH"
);
}
);
width = 445;
}
);
leftKerningGroup = _KERN_I_2ND;
unicode = 0050;
},
{
glyphname = Q;
layers = (
{
layerId = "EAE98568-D1D1-402E-95FB-45A2161C7EBA";
name = img;
width = 484;
},
{
layerId = "0D43471E-84ED-412C-B4E5-2801B83B9DAE";
name = public.background;
paths = (
{
closed = 1;
nodes = (
"70 95 LINE SMOOTH",
"70 26 OFFCURVE",
"96 0 OFFCURVE",
"165 0 CURVE SMOOTH",
"205 0 LINE",
"205 -28 LINE SMOOTH",
"205 -95 OFFCURVE",
"233 -123 OFFCURVE",
"290 -123 CURVE SMOOTH",
"328 -123 LINE SMOOTH",
"349 -123 OFFCURVE",
"353 -117 OFFCURVE",
"353 -96 CURVE SMOOTH",
"353 -65 LINE",
"310 -65 LINE SMOOTH",
"272 -65 OFFCURVE",
"263 -55 OFFCURVE",
"263 -8 CURVE SMOOTH",
"263 0 LINE",
"319 0 LINE SMOOTH",
"388 0 OFFCURVE",
"414 26 OFFCURVE",
"414 95 CURVE SMOOTH",
"414 605 LINE SMOOTH",
"414 674 OFFCURVE",
"388 700 OFFCURVE",
"319 700 CURVE SMOOTH",
"165 700 LINE SMOOTH",
"96 700 OFFCURVE",
"70 674 OFFCURVE",
"70 605 CURVE SMOOTH"
);
},
{
closed = 1;
nodes = (
"150 585 LINE SMOOTH",
"150 626 OFFCURVE",
"156 642 OFFCURVE",
"197 642 CURVE SMOOTH",
"287 642 LINE SMOOTH",
"328 642 OFFCURVE",
"334 626 OFFCURVE",
"334 585 CURVE SMOOTH",
"334 115 LINE SMOOTH",
"334 74 OFFCURVE",
"328 58 OFFCURVE",
"287 58 CURVE SMOOTH",
"197 58 LINE SMOOTH",
"156 58 OFFCURVE",
"150 74 OFFCURVE",
"150 115 CURVE SMOOTH"
);
}
);
width = 484;
},
{
layerId = "02C7D3CC-A397-42E8-8789-73F6D8E29B25";
paths = (
{
closed = 1;
nodes = (
"70 95 LINE SMOOTH",
"70 26 OFFCURVE",
"96 0 OFFCURVE",
"165 0 CURVE SMOOTH",
"205 0 LINE",
"205 -28 LINE SMOOTH",
"205 -95 OFFCURVE",
"233 -123 OFFCURVE",
"290 -123 CURVE SMOOTH",
"328 -123 LINE SMOOTH",
"349 -123 OFFCURVE",
"353 -117 OFFCURVE",
"353 -96 CURVE SMOOTH",
"353 -65 LINE",
"310 -65 LINE SMOOTH",
"272 -65 OFFCURVE",
"263 -55 OFFCURVE",
"263 -8 CURVE SMOOTH",
"263 0 LINE",
"319 0 LINE SMOOTH",
"388 0 OFFCURVE",
"414 26 OFFCURVE",
"414 95 CURVE SMOOTH",
"414 605 LINE SMOOTH",
"414 674 OFFCURVE",
"388 700 OFFCURVE",
"319 700 CURVE SMOOTH",
"165 700 LINE SMOOTH",
"96 700 OFFCURVE",
"70 674 OFFCURVE",
"70 605 CURVE SMOOTH"
);
},
{
closed = 1;
nodes = (
"150 585 LINE SMOOTH",
"150 626 OFFCURVE",
"156 642 OFFCURVE",
"197 642 CURVE SMOOTH",
"287 642 LINE SMOOTH",
"328 642 OFFCURVE",
"334 626 OFFCURVE",
"334 585 CURVE SMOOTH",
"334 115 LINE SMOOTH",
"334 74 OFFCURVE",
"328 58 OFFCURVE",
"287 58 CURVE SMOOTH",
"197 58 LINE SMOOTH",
"156 58 OFFCURVE",
"150 74 OFFCURVE",
"150 115 CURVE SMOOTH"
);
}
);
width = 484;
}
);
leftKerningGroup = _KERN_O_2ND;
rightKerningGroup = _KERN_O_1ST;
unicode = 0051;
},
{
glyphname = R;
layers = (
{
layerId = "0D43471E-84ED-412C-B4E5-2801B83B9DAE";
name = public.background;
paths = (
{
closed = 1;
nodes = (
"192 392 LINE",
"192 361 LINE SMOOTH",
"192 340 OFFCURVE",
"196 334 OFFCURVE",
"217 334 CURVE SMOOTH",
"247 334 LINE",
"340 27 LINE",
"347 6 OFFCURVE",
"355 0 OFFCURVE",
"376 0 CURVE SMOOTH",
"427 0 LINE",
"326 335 LINE",
"380 340 OFFCURVE",
"401 367 OFFCURVE",
"401 429 CURVE SMOOTH",
"401 605 LINE SMOOTH",
"401 674 OFFCURVE",
"375 700 OFFCURVE",
"306 700 CURVE SMOOTH",
"99 700 LINE SMOOTH",
"78 700 OFFCURVE",
"72 694 OFFCURVE",
"72 673 CURVE SMOOTH",
"72 0 LINE",
"125 0 LINE SMOOTH",
"146 0 OFFCURVE",
"152 6 OFFCURVE",
"152 27 CURVE SMOOTH",
"152 642 LINE",
"274 642 LINE SMOOTH",
"315 642 OFFCURVE",
"321 626 OFFCURVE",
"321 585 CURVE SMOOTH",
"321 449 LINE SMOOTH",
"321 408 OFFCURVE",
"315 392 OFFCURVE",
"274 392 CURVE SMOOTH"
);
}
);
width = 468;
},
{
guideLines = (
{
position = "{0, 324}";
}
);
layerId = "02C7D3CC-A397-42E8-8789-73F6D8E29B25";
paths = (
{
closed = 1;
nodes = (
"192 392 LINE",
"192 361 LINE SMOOTH",
"192 340 OFFCURVE",
"196 334 OFFCURVE",
"217 334 CURVE SMOOTH",
"247 334 LINE",
"340 27 LINE",
"347 6 OFFCURVE",
"355 0 OFFCURVE",
"376 0 CURVE SMOOTH",
"427 0 LINE",
"326 335 LINE",
"380 340 OFFCURVE",
"401 367 OFFCURVE",
"401 429 CURVE SMOOTH",
"401 605 LINE SMOOTH",
"401 674 OFFCURVE",
"375 700 OFFCURVE",
"306 700 CURVE SMOOTH",
"99 700 LINE SMOOTH",
"78 700 OFFCURVE",
"72 694 OFFCURVE",
"72 673 CURVE SMOOTH",
"72 0 LINE",
"125 0 LINE SMOOTH",
"146 0 OFFCURVE",
"152 6 OFFCURVE",
"152 27 CURVE SMOOTH",
"152 642 LINE",
"274 642 LINE SMOOTH",
"315 642 OFFCURVE",
"321 626 OFFCURVE",
"321 585 CURVE SMOOTH",
"321 449 LINE SMOOTH",
"321 408 OFFCURVE",
"315 392 OFFCURVE",
"274 392 CURVE SMOOTH"
);
}
);
width = 468;
}
);
leftKerningGroup = _KERN_I_2ND;
unicode = 0052;
},
{
glyphname = S;
layers = (
{
layerId = "EAE98568-D1D1-402E-95FB-45A2161C7EBA";
name = img;
width = 396;
},
{
layerId = "0D43471E-84ED-412C-B4E5-2801B83B9DAE";
name = public.background;
paths = (
{
closed = 1;
nodes = (
"336 297 LINE SMOOTH",
"336 366 OFFCURVE",
"310 392 OFFCURVE",
"241 392 CURVE SMOOTH",
"186 392 LINE SMOOTH",
"145 392 OFFCURVE",
"139 408 OFFCURVE",
"139 449 CURVE SMOOTH",
"139 585 LINE SMOOTH",
"139 626 OFFCURVE",
"145 642 OFFCURVE",
"186 642 CURVE SMOOTH",
"333 642 LINE",
"325 680 OFFCURVE",
"312 700 OFFCURVE",
"273 700 CURVE SMOOTH",
"154 700 LINE SMOOTH",
"85 700 OFFCURVE",
"59 674 OFFCURVE",
"59 605 CURVE SMOOTH",
"59 429 LINE SMOOTH",
"59 360 OFFCURVE",
"85 334 OFFCURVE",
"154 334 CURVE SMOOTH",
"205 334 LINE SMOOTH",
"250 334 OFFCURVE",
"256 318 OFFCURVE",
"256 277 CURVE SMOOTH",
"256 115 LINE SMOOTH",
"256 74 OFFCURVE",
"250 58 OFFCURVE",
"209 58 CURVE SMOOTH",
"59 58 LINE",
"67 20 OFFCURVE",
"80 0 OFFCURVE",
"119 0 CURVE SMOOTH",
"241 0 LINE SMOOTH",
"310 0 OFFCURVE",
"336 26 OFFCURVE",
"336 95 CURVE SMOOTH"
);
}
);
width = 396;
},
{
layerId = "02C7D3CC-A397-42E8-8789-73F6D8E29B25";
paths = (
{
closed = 1;
nodes = (
"336 297 LINE SMOOTH",
"336 366 OFFCURVE",
"310 392 OFFCURVE",
"241 392 CURVE SMOOTH",
"186 392 LINE SMOOTH",
"145 392 OFFCURVE",
"139 408 OFFCURVE",
"139 449 CURVE SMOOTH",
"139 585 LINE SMOOTH",
"139 626 OFFCURVE",
"145 642 OFFCURVE",
"186 642 CURVE SMOOTH",
"333 642 LINE",
"325 680 OFFCURVE",
"312 700 OFFCURVE",
"273 700 CURVE SMOOTH",
"154 700 LINE SMOOTH",
"85 700 OFFCURVE",
"59 674 OFFCURVE",
"59 605 CURVE SMOOTH",
"59 429 LINE SMOOTH",
"59 360 OFFCURVE",
"85 334 OFFCURVE",
"154 334 CURVE SMOOTH",
"205 334 LINE SMOOTH",
"250 334 OFFCURVE",
"256 318 OFFCURVE",
"256 277 CURVE SMOOTH",
"256 115 LINE SMOOTH",
"256 74 OFFCURVE",
"250 58 OFFCURVE",
"209 58 CURVE SMOOTH",
"59 58 LINE",
"67 20 OFFCURVE",
"80 0 OFFCURVE",
"119 0 CURVE SMOOTH",
"241 0 LINE SMOOTH",
"310 0 OFFCURVE",
"336 26 OFFCURVE",
"336 95 CURVE SMOOTH"
);
}
);
width = 396;
}
);
unicode = 0053;
},
{
glyphname = T;
layers = (
{
layerId = "0D43471E-84ED-412C-B4E5-2801B83B9DAE";
name = public.background;
paths = (
{
closed = 1;
nodes = (
"53 700 LINE SMOOTH",
"32 700 OFFCURVE",
"26 694 OFFCURVE",
"26 673 CURVE SMOOTH",
"26 642 LINE",
"171 642 LINE",
"171 0 LINE",
"224 0 LINE SMOOTH",
"245 0 OFFCURVE",
"251 6 OFFCURVE",
"251 27 CURVE SMOOTH",
"251 642 LINE",
"371 642 LINE SMOOTH",
"392 642 OFFCURVE",
"398 648 OFFCURVE",
"398 669 CURVE SMOOTH",
"398 700 LINE"
);
}
);
width = 422;
},
{
layerId = "02C7D3CC-A397-42E8-8789-73F6D8E29B25";
paths = (
{
closed = 1;
nodes = (
"53 700 LINE SMOOTH",
"32 700 OFFCURVE",
"26 694 OFFCURVE",
"26 673 CURVE SMOOTH",
"26 642 LINE",
"171 642 LINE",
"171 0 LINE",
"224 0 LINE SMOOTH",
"245 0 OFFCURVE",
"251 6 OFFCURVE",
"251 27 CURVE SMOOTH",
"251 642 LINE",
"371 642 LINE SMOOTH",
"392 642 OFFCURVE",
"398 648 OFFCURVE",
"398 669 CURVE SMOOTH",
"398 700 LINE"
);
}
);
width = 422;
}
);
unicode = 0054;
},
{
glyphname = U;
layers = (
{
layerId = "EAE98568-D1D1-402E-95FB-45A2161C7EBA";
name = img;
width = 492;
},
{
layerId = "0D43471E-84ED-412C-B4E5-2801B83B9DAE";
name = public.background;
paths = (
{
closed = 1;
nodes = (
"367 700 LINE SMOOTH",
"346 700 OFFCURVE",
"340 694 OFFCURVE",
"340 673 CURVE SMOOTH",
"340 115 LINE SMOOTH",
"340 74 OFFCURVE",
"334 58 OFFCURVE",
"293 58 CURVE SMOOTH",
"198 58 LINE SMOOTH",
"157 58 OFFCURVE",
"151 74 OFFCURVE",
"151 115 CURVE SMOOTH",
"151 700 LINE",
"98 700 LINE SMOOTH",
"77 700 OFFCURVE",
"71 694 OFFCURVE",
"71 673 CURVE SMOOTH",
"71 95 LINE SMOOTH",
"71 26 OFFCURVE",
"97 0 OFFCURVE",
"166 0 CURVE SMOOTH",
"325 0 LINE SMOOTH",
"394 0 OFFCURVE",
"420 26 OFFCURVE",
"420 95 CURVE SMOOTH",
"420 700 LINE"
);
}
);
width = 492;
},
{
anchors = (
{
name = top;
position = "{242, 750}";
}
);
layerId = "02C7D3CC-A397-42E8-8789-73F6D8E29B25";
paths = (
{
closed = 1;
nodes = (
"367 700 LINE SMOOTH",
"346 700 OFFCURVE",
"340 694 OFFCURVE",
"340 673 CURVE SMOOTH",
"340 115 LINE SMOOTH",
"340 74 OFFCURVE",
"334 58 OFFCURVE",
"293 58 CURVE SMOOTH",
"198 58 LINE SMOOTH",
"157 58 OFFCURVE",
"151 74 OFFCURVE",
"151 115 CURVE SMOOTH",
"151 700 LINE",
"98 700 LINE SMOOTH",
"77 700 OFFCURVE",
"71 694 OFFCURVE",
"71 673 CURVE SMOOTH",
"71 95 LINE SMOOTH",
"71 26 OFFCURVE",
"97 0 OFFCURVE",
"166 0 CURVE SMOOTH",
"325 0 LINE SMOOTH",
"394 0 OFFCURVE",
"420 26 OFFCURVE",
"420 95 CURVE SMOOTH",
"420 700 LINE"
);
}
);
width = 492;
}
);
leftKerningGroup = _KERN_U;
rightKerningGroup = _KERN_U;
unicode = 0055;
},
{
glyphname = X;
layers = (
{
layerId = "0D43471E-84ED-412C-B4E5-2801B83B9DAE";
name = public.background;
paths = (
{
closed = 1;
nodes = (
"59 700 LINE SMOOTH",
"38 700 OFFCURVE",
"34 694 OFFCURVE",
"34 673 CURVE",
"173 348 LINE",
"35 27 LINE",
"35 6 OFFCURVE",
"39 0 OFFCURVE",
"60 0 CURVE SMOOTH",
"103 0 LINE",
"195 224 LINE",
"215 293 LINE",
"221 293 LINE",
"242 224 LINE",
"334 0 LINE",
"377 0 LINE SMOOTH",
"398 0 OFFCURVE",
"402 6 OFFCURVE",
"402 27 CURVE",
"264 348 LINE",
"403 673 LINE",
"403 694 OFFCURVE",
"399 700 OFFCURVE",
"378 700 CURVE SMOOTH",
"335 700 LINE",
"240 476 LINE",
"222 402 LINE",
"216 402 LINE",
"197 476 LINE",
"102 700 LINE"
);
}
);
width = 437;
},
{
layerId = "02C7D3CC-A397-42E8-8789-73F6D8E29B25";
paths = (
{
closed = 1;
nodes = (
"59 700 LINE SMOOTH",
"38 700 OFFCURVE",
"34 694 OFFCURVE",
"34 673 CURVE",
"173 348 LINE",
"35 27 LINE",
"35 6 OFFCURVE",
"39 0 OFFCURVE",
"60 0 CURVE SMOOTH",
"103 0 LINE",
"195 224 LINE",
"215 293 LINE",
"221 293 LINE",
"242 224 LINE",
"334 0 LINE",
"377 0 LINE SMOOTH",
"398 0 OFFCURVE",
"402 6 OFFCURVE",
"402 27 CURVE",
"264 348 LINE",
"403 673 LINE",
"403 694 OFFCURVE",
"399 700 OFFCURVE",
"378 700 CURVE SMOOTH",
"335 700 LINE",
"240 476 LINE",
"222 402 LINE",
"216 402 LINE",
"197 476 LINE",
"102 700 LINE"
);
}
);
width = 437;
}
);
unicode = 0058;
},
{
glyphname = Y;
layers = (
{
layerId = "0D43471E-84ED-412C-B4E5-2801B83B9DAE";
name = public.background;
paths = (
{
closed = 1;
nodes = (
"43 700 LINE SMOOTH",
"22 700 OFFCURVE",
"10 694 OFFCURVE",
"18 673 CURVE SMOOTH",
"169 294 LINE",
"169 0 LINE",
"221 0 LINE SMOOTH",
"242 0 OFFCURVE",
"249 6 OFFCURVE",
"249 28 CURVE SMOOTH",
"249 294 LINE",
"409 700 LINE",
"364 700 LINE SMOOTH",
"342 700 OFFCURVE",
"335 693 OFFCURVE",
"328 673 CURVE SMOOTH",
"254 477 LINE",
"217 359 LINE",
"211 359 LINE",
"173 477 LINE",
"86 700 LINE"
);
}
);
width = 420;
},
{
guideLines = (
{
position = "{0, 480}";
},
{
position = "{0, 294}";
}
);
layerId = "02C7D3CC-A397-42E8-8789-73F6D8E29B25";
paths = (
{
closed = 1;
nodes = (
"43 700 LINE SMOOTH",
"22 700 OFFCURVE",
"10 694 OFFCURVE",
"18 673 CURVE SMOOTH",
"169 294 LINE",
"169 0 LINE",
"221 0 LINE SMOOTH",
"242 0 OFFCURVE",
"249 6 OFFCURVE",
"249 28 CURVE SMOOTH",
"249 294 LINE",
"409 700 LINE",
"364 700 LINE SMOOTH",
"342 700 OFFCURVE",
"335 693 OFFCURVE",
"328 673 CURVE SMOOTH",
"254 477 LINE",
"217 359 LINE",
"211 359 LINE",
"173 477 LINE",
"86 700 LINE"
);
}
);
width = 420;
}
);
leftKerningGroup = _KERN_Y;
rightKerningGroup = _KERN_Y;
unicode = 0059;
},
{
glyphname = Z;
layers = (
{
layerId = "0D43471E-84ED-412C-B4E5-2801B83B9DAE";
name = public.background;
paths = (
{
closed = 1;
nodes = (
"338 0 LINE SMOOTH",
"359 0 OFFCURVE",
"363 6 OFFCURVE",
"363 27 CURVE SMOOTH",
"363 58 LINE",
"117 58 LINE",
"366 642 LINE",
"366 673 LINE SMOOTH",
"366 694 OFFCURVE",
"362 700 OFFCURVE",
"341 700 CURVE SMOOTH",
"77 700 LINE SMOOTH",
"56 700 OFFCURVE",
"52 694 OFFCURVE",
"52 673 CURVE SMOOTH",
"52 642 LINE",
"286 642 LINE",
"38 58 LINE",
"38 27 LINE SMOOTH",
"38 6 OFFCURVE",
"42 0 OFFCURVE",
"63 0 CURVE SMOOTH"
);
}
);
width = 409;
},
{
guideLines = (
{
position = "{0, 642}";
},
{
position = "{0, 58}";
}
);
layerId = "02C7D3CC-A397-42E8-8789-73F6D8E29B25";
paths = (
{
closed = 1;
nodes = (
"338 0 LINE SMOOTH",
"359 0 OFFCURVE",
"363 6 OFFCURVE",
"363 27 CURVE SMOOTH",
"363 58 LINE",
"117 58 LINE",
"366 642 LINE",
"366 673 LINE SMOOTH",
"366 694 OFFCURVE",
"362 700 OFFCURVE",
"341 700 CURVE SMOOTH",
"77 700 LINE SMOOTH",
"56 700 OFFCURVE",
"52 694 OFFCURVE",
"52 673 CURVE SMOOTH",
"52 642 LINE",
"286 642 LINE",
"38 58 LINE",
"38 27 LINE SMOOTH",
"38 6 OFFCURVE",
"42 0 OFFCURVE",
"63 0 CURVE SMOOTH"
);
}
);
width = 409;
}
);
unicode = 005A;
},
{
glyphname = bracketleft;
layers = (
{
layerId = "0D43471E-84ED-412C-B4E5-2801B83B9DAE";
name = public.background;
paths = (
{
closed = 1;
nodes = (
"253 -130 LINE SMOOTH",
"274 -130 OFFCURVE",
"280 -124 OFFCURVE",
"280 -103 CURVE SMOOTH",
"280 -72 LINE",
"154 -72 LINE",
"154 702 LINE",
"253 702 LINE SMOOTH",
"274 702 OFFCURVE",
"280 708 OFFCURVE",
"280 729 CURVE SMOOTH",
"280 760 LINE",
"101 760 LINE SMOOTH",
"80 760 OFFCURVE",
"74 754 OFFCURVE",
"74 733 CURVE SMOOTH",
"74 -130 LINE"
);
}
);
width = 318;
},
{
layerId = "02C7D3CC-A397-42E8-8789-73F6D8E29B25";
paths = (
{
closed = 1;
nodes = (
"253 -130 LINE SMOOTH",
"274 -130 OFFCURVE",
"280 -124 OFFCURVE",
"280 -103 CURVE SMOOTH",
"280 -72 LINE",
"154 -72 LINE",
"154 702 LINE",
"253 702 LINE SMOOTH",
"274 702 OFFCURVE",
"280 708 OFFCURVE",
"280 729 CURVE SMOOTH",
"280 760 LINE",
"101 760 LINE SMOOTH",
"80 760 OFFCURVE",
"74 754 OFFCURVE",
"74 733 CURVE SMOOTH",
"74 -130 LINE"
);
}
);
width = 318;
}
);
unicode = 005B;
},
{
glyphname = backslash;
layers = (
{
layerId = "0D43471E-84ED-412C-B4E5-2801B83B9DAE";
name = public.background;
paths = (
{
closed = 1;
nodes = (
"65 760 LINE SMOOTH",
"44 760 OFFCURVE",
"39 754 OFFCURVE",
"45 733 CURVE SMOOTH",
"273 -121 LINE",
"322 -121 LINE SMOOTH",
"343 -121 OFFCURVE",
"348 -115 OFFCURVE",
"342 -94 CURVE SMOOTH",
"114 760 LINE"
);
}
);
width = 386;
},
{
layerId = "02C7D3CC-A397-42E8-8789-73F6D8E29B25";
paths = (
{
closed = 1;
nodes = (
"65 760 LINE SMOOTH",
"44 760 OFFCURVE",
"39 754 OFFCURVE",
"45 733 CURVE SMOOTH",
"273 -121 LINE",
"322 -121 LINE SMOOTH",
"343 -121 OFFCURVE",
"348 -115 OFFCURVE",
"342 -94 CURVE SMOOTH",
"114 760 LINE"
);
}
);
width = 386;
}
);
unicode = 005C;
},
{
glyphname = bracketright;
layers = (
{
layerId = "0D43471E-84ED-412C-B4E5-2801B83B9DAE";
name = public.background;
paths = (
{
closed = 1;
nodes = (
"65 -130 LINE SMOOTH",
"44 -130 OFFCURVE",
"38 -124 OFFCURVE",
"38 -103 CURVE SMOOTH",
"38 -72 LINE",
"164 -72 LINE",
"164 702 LINE",
"65 702 LINE SMOOTH",
"44 702 OFFCURVE",
"38 708 OFFCURVE",
"38 729 CURVE SMOOTH",
"38 760 LINE",
"217 760 LINE SMOOTH",
"238 760 OFFCURVE",
"244 754 OFFCURVE",
"244 733 CURVE SMOOTH",
"244 -130 LINE"
);
}
);
width = 318;
},
{
components = (
{
name = bracketleft;
transform = "{-1, 0, 0, 1, 318, 0}";
alignment = -1;
}
);
layerId = "02C7D3CC-A397-42E8-8789-73F6D8E29B25";
width = 318;
}
);
unicode = 005D;
},
{
glyphname = underscore;
layers = (
{
layerId = "0D43471E-84ED-412C-B4E5-2801B83B9DAE";
name = public.background;
paths = (
{
closed = 1;
nodes = (
"0 -31 LINE SMOOTH",
"0 -52 OFFCURVE",
"6 -58 OFFCURVE",
"27 -58 CURVE SMOOTH",
"450 -58 LINE",
"450 -27 LINE SMOOTH",
"450 -6 OFFCURVE",
"444 0 OFFCURVE",
"423 0 CURVE SMOOTH",
"0 0 LINE"
);
}
);
width = 450;
},
{
hints = (
{
horizontal = 1;
place = "{-68, 68}";
type = Stem;
}
);
layerId = "02C7D3CC-A397-42E8-8789-73F6D8E29B25";
paths = (
{
closed = 1;
nodes = (
"0 -31 LINE SMOOTH",
"0 -52 OFFCURVE",
"6 -58 OFFCURVE",
"27 -58 CURVE SMOOTH",
"450 -58 LINE",
"450 -27 LINE SMOOTH",
"450 -6 OFFCURVE",
"444 0 OFFCURVE",
"423 0 CURVE SMOOTH",
"0 0 LINE"
);
}
);
width = 450;
}
);
unicode = 005F;
},
{
glyphname = grave;
layers = (
{
layerId = "0D43471E-84ED-412C-B4E5-2801B83B9DAE";
name = public.background;
paths = (
{
closed = 1;
nodes = (
"161 559 LINE",
"187 559 LINE SMOOTH",
"211 559 OFFCURVE",
"207 577 OFFCURVE",
"203 583 CURVE",
"146 700 LINE",
"97 700 LINE SMOOTH",
"77 700 OFFCURVE",
"72 694 OFFCURVE",
"72 676 CURVE"
);
}
);
width = 255;
},
{
anchors = (
{
name = _top;
position = "{183, 550}";
}
);
layerId = "02C7D3CC-A397-42E8-8789-73F6D8E29B25";
paths = (
{
closed = 1;
nodes = (
"161 559 LINE",
"187 559 LINE SMOOTH",
"211 559 OFFCURVE",
"207 577 OFFCURVE",
"203 583 CURVE",
"146 700 LINE",
"97 700 LINE SMOOTH",
"77 700 OFFCURVE",
"72 694 OFFCURVE",
"72 676 CURVE"
);
}
);
width = 255;
}
);
unicode = 0060;
},
{
glyphname = b;
layers = (
{
layerId = "0D43471E-84ED-412C-B4E5-2801B83B9DAE";
name = public.background;
paths = (
{
closed = 1;
nodes = (
"211 508 LINE SMOOTH",
"190 508 OFFCURVE",
"186 502 OFFCURVE",
"186 481 CURVE SMOOTH",
"186 450 LINE",
"269 450 LINE SMOOTH",
"310 450 OFFCURVE",
"316 434 OFFCURVE",
"316 393 CURVE SMOOTH",
"316 115 LINE SMOOTH",
"316 74 OFFCURVE",
"310 58 OFFCURVE",
"269 58 CURVE SMOOTH",
"146 58 LINE",
"146 700 LINE",
"93 700 LINE SMOOTH",
"72 700 OFFCURVE",
"66 694 OFFCURVE",
"66 673 CURVE SMOOTH",
"66 0 LINE",
"119 0 LINE SMOOTH",
"140 0 OFFCURVE",
"146 6 OFFCURVE",
"146 27 CURVE SMOOTH",
"146 58 LINE",
"154 20 OFFCURVE",
"167 0 OFFCURVE",
"206 0 CURVE SMOOTH",
"301 0 LINE SMOOTH",
"370 0 OFFCURVE",
"396 26 OFFCURVE",
"396 95 CURVE SMOOTH",
"396 413 LINE SMOOTH",
"396 482 OFFCURVE",
"370 508 OFFCURVE",
"301 508 CURVE SMOOTH"
);
}
);
width = 459;
},
{
layerId = "02C7D3CC-A397-42E8-8789-73F6D8E29B25";
paths = (
{
closed = 1;
nodes = (
"211 508 LINE SMOOTH",
"190 508 OFFCURVE",
"186 502 OFFCURVE",
"186 481 CURVE SMOOTH",
"186 450 LINE",
"269 450 LINE SMOOTH",
"310 450 OFFCURVE",
"316 434 OFFCURVE",
"316 393 CURVE SMOOTH",
"316 115 LINE SMOOTH",
"316 74 OFFCURVE",
"310 58 OFFCURVE",
"269 58 CURVE SMOOTH",
"146 58 LINE",
"146 700 LINE",
"93 700 LINE SMOOTH",
"72 700 OFFCURVE",
"66 694 OFFCURVE",
"66 673 CURVE SMOOTH",
"66 0 LINE",
"119 0 LINE SMOOTH",
"140 0 OFFCURVE",
"146 6 OFFCURVE",
"146 27 CURVE SMOOTH",
"146 58 LINE",
"154 20 OFFCURVE",
"167 0 OFFCURVE",
"206 0 CURVE SMOOTH",
"301 0 LINE SMOOTH",
"370 0 OFFCURVE",
"396 26 OFFCURVE",
"396 95 CURVE SMOOTH",
"396 413 LINE SMOOTH",
"396 482 OFFCURVE",
"370 508 OFFCURVE",
"301 508 CURVE SMOOTH"
);
}
);
width = 459;
}
);
leftKerningGroup = _KERN_h_2ND;
rightKerningGroup = _KERN_o_1ST;
unicode = 0062;
},
{
glyphname = c;
layers = (
{
layerId = "0D43471E-84ED-412C-B4E5-2801B83B9DAE";
name = public.background;
paths = (
{
closed = 1;
nodes = (
"158 508 LINE SMOOTH",
"89 508 OFFCURVE",
"63 482 OFFCURVE",
"63 413 CURVE SMOOTH",
"63 95 LINE SMOOTH",
"63 26 OFFCURVE",
"89 0 OFFCURVE",
"158 0 CURVE SMOOTH",
"288 0 LINE SMOOTH",
"309 0 OFFCURVE",
"313 6 OFFCURVE",
"313 27 CURVE SMOOTH",
"313 58 LINE",
"190 58 LINE SMOOTH",
"149 58 OFFCURVE",
"143 74 OFFCURVE",
"143 115 CURVE SMOOTH",
"143 393 LINE SMOOTH",
"143 434 OFFCURVE",
"149 450 OFFCURVE",
"190 450 CURVE SMOOTH",
"313 450 LINE",
"313 481 LINE SMOOTH",
"313 502 OFFCURVE",
"309 508 OFFCURVE",
"288 508 CURVE SMOOTH"
);
}
);
width = 355;
},
{
anchors = (
{
name = bottom;
position = "{210, 0}";
}
);
guideLines = (
{
angle = 90;
position = "{305, 0}";
}
);
layerId = "02C7D3CC-A397-42E8-8789-73F6D8E29B25";
paths = (
{
closed = 1;
nodes = (
"158 508 LINE SMOOTH",
"89 508 OFFCURVE",
"63 482 OFFCURVE",
"63 413 CURVE SMOOTH",
"63 95 LINE SMOOTH",
"63 26 OFFCURVE",
"89 0 OFFCURVE",
"158 0 CURVE SMOOTH",
"288 0 LINE SMOOTH",
"309 0 OFFCURVE",
"313 6 OFFCURVE",
"313 27 CURVE SMOOTH",
"313 58 LINE",
"190 58 LINE SMOOTH",
"149 58 OFFCURVE",
"143 74 OFFCURVE",
"143 115 CURVE SMOOTH",
"143 393 LINE SMOOTH",
"143 434 OFFCURVE",
"149 450 OFFCURVE",
"190 450 CURVE SMOOTH",
"313 450 LINE",
"313 481 LINE SMOOTH",
"313 502 OFFCURVE",
"309 508 OFFCURVE",
"288 508 CURVE SMOOTH"
);
}
);
width = 355;
}
);
leftKerningGroup = _KERN_o_2ND;
rightKerningGroup = _KERN_c_1ST;
unicode = 0063;
},
{
glyphname = d;
layers = (
{
layerId = "0D43471E-84ED-412C-B4E5-2801B83B9DAE";
name = public.background;
paths = (
{
closed = 1;
nodes = (
"340 700 LINE SMOOTH",
"319 700 OFFCURVE",
"313 694 OFFCURVE",
"313 673 CURVE SMOOTH",
"313 0 LINE",
"366 0 LINE SMOOTH",
"387 0 OFFCURVE",
"393 6 OFFCURVE",
"393 27 CURVE SMOOTH",
"393 700 LINE"
);
},
{
closed = 1;
nodes = (
"248 0 LINE SMOOTH",
"269 0 OFFCURVE",
"273 6 OFFCURVE",
"273 27 CURVE SMOOTH",
"273 58 LINE",
"190 58 LINE SMOOTH",
"149 58 OFFCURVE",
"143 74 OFFCURVE",
"143 115 CURVE SMOOTH",
"143 393 LINE SMOOTH",
"143 434 OFFCURVE",
"149 450 OFFCURVE",
"190 450 CURVE SMOOTH",
"313 450 LINE",
"305 488 OFFCURVE",
"292 508 OFFCURVE",
"253 508 CURVE SMOOTH",
"158 508 LINE SMOOTH",
"89 508 OFFCURVE",
"63 482 OFFCURVE",
"63 413 CURVE SMOOTH",
"63 95 LINE SMOOTH",
"63 26 OFFCURVE",
"89 0 OFFCURVE",
"158 0 CURVE SMOOTH"
);
}
);
width = 458;
},
{
layerId = "02C7D3CC-A397-42E8-8789-73F6D8E29B25";
paths = (
{
closed = 1;
nodes = (
"340 700 LINE SMOOTH",
"319 700 OFFCURVE",
"313 694 OFFCURVE",
"313 673 CURVE SMOOTH",
"313 0 LINE",
"366 0 LINE SMOOTH",
"387 0 OFFCURVE",
"393 6 OFFCURVE",
"393 27 CURVE SMOOTH",
"393 700 LINE"
);
},
{
closed = 1;
nodes = (
"248 0 LINE SMOOTH",
"269 0 OFFCURVE",
"273 6 OFFCURVE",
"273 27 CURVE SMOOTH",
"273 58 LINE",
"190 58 LINE SMOOTH",
"149 58 OFFCURVE",
"143 74 OFFCURVE",
"143 115 CURVE SMOOTH",
"143 393 LINE SMOOTH",
"143 434 OFFCURVE",
"149 450 OFFCURVE",
"190 450 CURVE SMOOTH",
"313 450 LINE",
"305 488 OFFCURVE",
"292 508 OFFCURVE",
"253 508 CURVE SMOOTH",
"158 508 LINE SMOOTH",
"89 508 OFFCURVE",
"63 482 OFFCURVE",
"63 413 CURVE SMOOTH",
"63 95 LINE SMOOTH",
"63 26 OFFCURVE",
"89 0 OFFCURVE",
"158 0 CURVE SMOOTH"
);
}
);
width = 458;
}
);
leftKerningGroup = _KERN_o_2ND;
unicode = 0064;
},
{
glyphname = e;
layers = (
{
layerId = "0D43471E-84ED-412C-B4E5-2801B83B9DAE";
name = public.background;
paths = (
{
closed = 1;
nodes = (
"190 58 LINE SMOOTH",
"149 58 OFFCURVE",
"143 74 OFFCURVE",
"143 115 CURVE SMOOTH",
"143 393 LINE SMOOTH",
"143 434 OFFCURVE",
"159 450 OFFCURVE",
"200 450 CURVE SMOOTH",
"231 450 LINE SMOOTH",
"272 450 OFFCURVE",
"288 434 OFFCURVE",
"288 393 CURVE SMOOTH",
"288 321 LINE SMOOTH",
"288 280 OFFCURVE",
"282 264 OFFCURVE",
"241 264 CURVE SMOOTH",
"183 264 LINE",
"183 233 LINE SMOOTH",
"183 212 OFFCURVE",
"187 206 OFFCURVE",
"208 206 CURVE SMOOTH",
"268 206 LINE SMOOTH",
"337 206 OFFCURVE",
"363 232 OFFCURVE",
"363 301 CURVE SMOOTH",
"363 413 LINE SMOOTH",
"363 482 OFFCURVE",
"337 508 OFFCURVE",
"268 508 CURVE SMOOTH",
"158 508 LINE SMOOTH",
"89 508 OFFCURVE",
"63 482 OFFCURVE",
"63 413 CURVE SMOOTH",
"63 95 LINE SMOOTH",
"63 26 OFFCURVE",
"89 0 OFFCURVE",
"158 0 CURVE SMOOTH",
"309 0 LINE SMOOTH",
"330 0 OFFCURVE",
"334 6 OFFCURVE",
"334 27 CURVE SMOOTH",
"334 58 LINE"
);
}
);
width = 413;
},
{
anchors = (
{
name = top;
position = "{223, 550}";
}
);
layerId = "02C7D3CC-A397-42E8-8789-73F6D8E29B25";
paths = (
{
closed = 1;
nodes = (
"190 58 LINE SMOOTH",
"149 58 OFFCURVE",
"143 74 OFFCURVE",
"143 115 CURVE SMOOTH",
"143 393 LINE SMOOTH",
"143 439 OFFCURVE",
"150 450 OFFCURVE",
"194 450 CURVE SMOOTH",
"237 450 LINE SMOOTH",
"278 450 OFFCURVE",
"288 439 OFFCURVE",
"288 398 CURVE SMOOTH",
"288 321 LINE SMOOTH",
"288 280 OFFCURVE",
"282 264 OFFCURVE",
"241 264 CURVE SMOOTH",
"183 264 LINE",
"183 233 LINE SMOOTH",
"183 212 OFFCURVE",
"187 206 OFFCURVE",
"208 206 CURVE SMOOTH",
"268 206 LINE SMOOTH",
"337 206 OFFCURVE",
"363 232 OFFCURVE",
"363 301 CURVE SMOOTH",
"363 413 LINE SMOOTH",
"363 482 OFFCURVE",
"337 508 OFFCURVE",
"268 508 CURVE SMOOTH",
"158 508 LINE SMOOTH",
"89 508 OFFCURVE",
"63 482 OFFCURVE",
"63 413 CURVE SMOOTH",
"63 95 LINE SMOOTH",
"63 26 OFFCURVE",
"89 0 OFFCURVE",
"158 0 CURVE SMOOTH",
"309 0 LINE SMOOTH",
"330 0 OFFCURVE",
"334 6 OFFCURVE",
"334 27 CURVE SMOOTH",
"334 58 LINE"
);
}
);
width = 413;
}
);
leftKerningGroup = _KERN_o_2ND;
rightKerningGroup = _KERN_e_1ST;
unicode = 0065;
},
{
glyphname = f;
layers = (
{
layerId = "EAE98568-D1D1-402E-95FB-45A2161C7EBA";
name = img;
width = 301;
},
{
layerId = "0D43471E-84ED-412C-B4E5-2801B83B9DAE";
name = public.background;
paths = (
{
closed = 1;
nodes = (
"161 700 LINE SMOOTH",
"92 700 OFFCURVE",
"66 674 OFFCURVE",
"66 605 CURVE SMOOTH",
"66 0 LINE",
"119 0 LINE SMOOTH",
"140 0 OFFCURVE",
"146 6 OFFCURVE",
"146 27 CURVE SMOOTH",
"146 450 LINE",
"269 450 LINE",
"269 481 LINE SMOOTH",
"269 502 OFFCURVE",
"265 508 OFFCURVE",
"244 508 CURVE SMOOTH",
"146 508 LINE",
"146 585 LINE SMOOTH",
"146 635 OFFCURVE",
"152 642 OFFCURVE",
"193 642 CURVE SMOOTH",
"306 642 LINE",
"306 673 LINE SMOOTH",
"306 694 OFFCURVE",
"302 700 OFFCURVE",
"281 700 CURVE SMOOTH"
);
}
);
width = 301;
},
{
guideLines = (
{
angle = 90;
position = "{267, 0}";
}
);
layerId = "02C7D3CC-A397-42E8-8789-73F6D8E29B25";
paths = (
{
closed = 1;
nodes = (
"161 700 LINE SMOOTH",
"92 700 OFFCURVE",
"66 674 OFFCURVE",
"66 605 CURVE SMOOTH",
"66 0 LINE",
"119 0 LINE SMOOTH",
"140 0 OFFCURVE",
"146 6 OFFCURVE",
"146 27 CURVE SMOOTH",
"146 450 LINE",
"269 450 LINE",
"269 481 LINE SMOOTH",
"269 502 OFFCURVE",
"265 508 OFFCURVE",
"244 508 CURVE SMOOTH",
"146 508 LINE",
"146 585 LINE SMOOTH",
"146 635 OFFCURVE",
"152 642 OFFCURVE",
"193 642 CURVE SMOOTH",
"306 642 LINE",
"306 673 LINE SMOOTH",
"306 694 OFFCURVE",
"302 700 OFFCURVE",
"281 700 CURVE SMOOTH"
);
}
);
width = 301;
}
);
unicode = 0066;
},
{
glyphname = h;
layers = (
{
layerId = "0D43471E-84ED-412C-B4E5-2801B83B9DAE";
name = public.background;
paths = (
{
closed = 1;
nodes = (
"396 413 LINE SMOOTH",
"396 482 OFFCURVE",
"370 508 OFFCURVE",
"301 508 CURVE SMOOTH",
"206 508 LINE SMOOTH",
"167 508 OFFCURVE",
"154 488 OFFCURVE",
"146 450 CURVE",
"146 700 LINE",
"93 700 LINE SMOOTH",
"72 700 OFFCURVE",
"66 694 OFFCURVE",
"66 673 CURVE SMOOTH",
"66 0 LINE",
"119 0 LINE SMOOTH",
"140 0 OFFCURVE",
"146 6 OFFCURVE",
"146 27 CURVE SMOOTH",
"146 450 LINE",
"269 450 LINE SMOOTH",
"310 450 OFFCURVE",
"316 434 OFFCURVE",
"316 393 CURVE SMOOTH",
"316 0 LINE",
"369 0 LINE SMOOTH",
"390 0 OFFCURVE",
"396 6 OFFCURVE",
"396 27 CURVE SMOOTH"
);
}
);
width = 460;
},
{
layerId = "02C7D3CC-A397-42E8-8789-73F6D8E29B25";
paths = (
{
closed = 1;
nodes = (
"396 413 LINE SMOOTH",
"396 482 OFFCURVE",
"370 508 OFFCURVE",
"301 508 CURVE SMOOTH",
"206 508 LINE SMOOTH",
"167 508 OFFCURVE",
"154 488 OFFCURVE",
"146 450 CURVE",
"146 700 LINE",
"93 700 LINE SMOOTH",
"72 700 OFFCURVE",
"66 694 OFFCURVE",
"66 673 CURVE SMOOTH",
"66 0 LINE",
"119 0 LINE SMOOTH",
"140 0 OFFCURVE",
"146 6 OFFCURVE",
"146 27 CURVE SMOOTH",
"146 450 LINE",
"269 450 LINE SMOOTH",
"310 450 OFFCURVE",
"316 434 OFFCURVE",
"316 393 CURVE SMOOTH",
"316 0 LINE",
"369 0 LINE SMOOTH",
"390 0 OFFCURVE",
"396 6 OFFCURVE",
"396 27 CURVE SMOOTH"
);
}
);
width = 460;
}
);
leftKerningGroup = _KERN_h_2ND;
rightKerningGroup = _KERN_a_1ST;
unicode = 0068;
},
{
glyphname = i;
layers = (
{
layerId = "0D43471E-84ED-412C-B4E5-2801B83B9DAE";
name = public.background;
paths = (
{
closed = 1;
nodes = (
"61 562 LINE",
"122 562 LINE SMOOTH",
"143 562 OFFCURVE",
"149 568 OFFCURVE",
"149 589 CURVE SMOOTH",
"149 642 LINE",
"88 642 LINE SMOOTH",
"67 642 OFFCURVE",
"61 636 OFFCURVE",
"61 615 CURVE SMOOTH"
);
},
{
closed = 1;
nodes = (
"92 508 LINE SMOOTH",
"71 508 OFFCURVE",
"65 502 OFFCURVE",
"65 481 CURVE SMOOTH",
"65 0 LINE",
"118 0 LINE SMOOTH",
"139 0 OFFCURVE",
"145 6 OFFCURVE",
"145 27 CURVE SMOOTH",
"145 508 LINE"
);
}
);
width = 210;
},
{
layerId = "02C7D3CC-A397-42E8-8789-73F6D8E29B25";
paths = (
{
closed = 1;
nodes = (
"61 562 LINE",
"122 562 LINE SMOOTH",
"143 562 OFFCURVE",
"149 568 OFFCURVE",
"149 589 CURVE SMOOTH",
"149 642 LINE",
"88 642 LINE SMOOTH",
"67 642 OFFCURVE",
"61 636 OFFCURVE",
"61 615 CURVE SMOOTH"
);
},
{
closed = 1;
nodes = (
"92 508 LINE SMOOTH",
"71 508 OFFCURVE",
"65 502 OFFCURVE",
"65 481 CURVE SMOOTH",
"65 0 LINE",
"118 0 LINE SMOOTH",
"139 0 OFFCURVE",
"145 6 OFFCURVE",
"145 27 CURVE SMOOTH",
"145 508 LINE"
);
}
);
width = 210;
}
);
leftKerningGroup = _KERN_i;
rightKerningGroup = _KERN_i;
unicode = 0069;
},
{
glyphname = j;
layers = (
{
layerId = "0D43471E-84ED-412C-B4E5-2801B83B9DAE";
name = public.background;
paths = (
{
closed = 1;
nodes = (
"65 -201 LINE",
"118 -190 OFFCURVE",
"145 -172 OFFCURVE",
"145 -118 CURVE SMOOTH",
"145 508 LINE",
"92 508 LINE SMOOTH",
"71 508 OFFCURVE",
"65 502 OFFCURVE",
"65 481 CURVE"
);
},
{
closed = 1;
nodes = (
"61 562 LINE",
"122 562 LINE SMOOTH",
"143 562 OFFCURVE",
"149 568 OFFCURVE",
"149 589 CURVE SMOOTH",
"149 642 LINE",
"88 642 LINE SMOOTH",
"67 642 OFFCURVE",
"61 636 OFFCURVE",
"61 615 CURVE SMOOTH"
);
}
);
width = 211;
},
{
layerId = "02C7D3CC-A397-42E8-8789-73F6D8E29B25";
paths = (
{
closed = 1;
nodes = (
"65 -201 LINE",
"118 -190 OFFCURVE",
"145 -172 OFFCURVE",
"145 -118 CURVE SMOOTH",
"145 508 LINE",
"92 508 LINE SMOOTH",
"71 508 OFFCURVE",
"65 502 OFFCURVE",
"65 481 CURVE"
);
},
{
closed = 1;
nodes = (
"61 562 LINE",
"122 562 LINE SMOOTH",
"143 562 OFFCURVE",
"149 568 OFFCURVE",
"149 589 CURVE SMOOTH",
"149 642 LINE",
"88 642 LINE SMOOTH",
"67 642 OFFCURVE",
"61 636 OFFCURVE",
"61 615 CURVE SMOOTH"
);
}
);
width = 211;
}
);
leftKerningGroup = _KERN_i;
rightKerningGroup = _KERN_i;
unicode = 006A;
},
{
glyphname = k;
layers = (
{
layerId = "0D43471E-84ED-412C-B4E5-2801B83B9DAE";
name = public.background;
paths = (
{
closed = 1;
nodes = (
"146 700 LINE",
"93 700 LINE SMOOTH",
"72 700 OFFCURVE",
"66 694 OFFCURVE",
"66 673 CURVE SMOOTH",
"66 0 LINE",
"119 0 LINE SMOOTH",
"140 0 OFFCURVE",
"146 6 OFFCURVE",
"146 27 CURVE SMOOTH"
);
},
{
closed = 1;
nodes = (
"166 243 LINE",
"290 27 LINE",
"301 9 OFFCURVE",
"307 0 OFFCURVE",
"328 0 CURVE SMOOTH",
"397 0 LINE",
"225 282 LINE",
"387 508 LINE",
"324 508 LINE SMOOTH",
"303 508 OFFCURVE",
"297 499 OFFCURVE",
"286 481 CURVE",
"166 307 LINE"
);
}
);
width = 418;
},
{
guideLines = (
{
angle = 90;
position = "{166, 0}";
}
);
layerId = "02C7D3CC-A397-42E8-8789-73F6D8E29B25";
paths = (
{
closed = 1;
nodes = (
"146 700 LINE",
"93 700 LINE SMOOTH",
"72 700 OFFCURVE",
"66 694 OFFCURVE",
"66 673 CURVE SMOOTH",
"66 0 LINE",
"119 0 LINE SMOOTH",
"140 0 OFFCURVE",
"146 6 OFFCURVE",
"146 27 CURVE SMOOTH"
);
},
{
closed = 1;
nodes = (
"176 243 LINE",
"290 27 LINE",
"301 9 OFFCURVE",
"307 0 OFFCURVE",
"328 0 CURVE SMOOTH",
"397 0 LINE",
"235 282 LINE",
"387 508 LINE",
"324 508 LINE SMOOTH",
"303 508 OFFCURVE",
"297 499 OFFCURVE",
"286 481 CURVE SMOOTH",
"176 307 LINE"
);
}
);
width = 418;
}
);
leftKerningGroup = _KERN_h_2ND;
unicode = 006B;
},
{
glyphname = l;
layers = (
{
layerId = "EAE98568-D1D1-402E-95FB-45A2161C7EBA";
name = img;
width = 221;
},
{
layerId = "0D43471E-84ED-412C-B4E5-2801B83B9DAE";
name = public.background;
paths = (
{
closed = 1;
nodes = (
"98 700 LINE SMOOTH",
"77 700 OFFCURVE",
"71 694 OFFCURVE",
"71 673 CURVE SMOOTH",
"71 0 LINE",
"124 0 LINE SMOOTH",
"145 0 OFFCURVE",
"151 6 OFFCURVE",
"151 27 CURVE SMOOTH",
"151 700 LINE"
);
}
);
width = 221;
},
{
layerId = "02C7D3CC-A397-42E8-8789-73F6D8E29B25";
paths = (
{
closed = 1;
nodes = (
"98 700 LINE SMOOTH",
"77 700 OFFCURVE",
"71 694 OFFCURVE",
"71 673 CURVE SMOOTH",
"71 0 LINE",
"124 0 LINE SMOOTH",
"145 0 OFFCURVE",
"151 6 OFFCURVE",
"151 27 CURVE SMOOTH",
"151 700 LINE"
);
}
);
width = 221;
}
);
unicode = 006C;
},
{
glyphname = m;
layers = (
{
layerId = "0D43471E-84ED-412C-B4E5-2801B83B9DAE";
name = public.background;
paths = (
{
closed = 1;
nodes = (
"389 413 LINE SMOOTH",
"389 482 OFFCURVE",
"363 508 OFFCURVE",
"294 508 CURVE SMOOTH",
"205 508 LINE SMOOTH",
"166 508 OFFCURVE",
"153 488 OFFCURVE",
"145 450 CURVE",
"145 508 LINE",
"92 508 LINE SMOOTH",
"71 508 OFFCURVE",
"65 502 OFFCURVE",
"65 481 CURVE SMOOTH",
"65 0 LINE",
"118 0 LINE SMOOTH",
"139 0 OFFCURVE",
"145 6 OFFCURVE",
"145 27 CURVE SMOOTH",
"145 450 LINE",
"262 450 LINE SMOOTH",
"303 450 OFFCURVE",
"309 434 OFFCURVE",
"309 393 CURVE SMOOTH",
"309 0 LINE",
"362 0 LINE SMOOTH",
"383 0 OFFCURVE",
"389 6 OFFCURVE",
"389 27 CURVE SMOOTH"
);
},
{
closed = 1;
nodes = (
"633 413 LINE SMOOTH",
"633 482 OFFCURVE",
"607 508 OFFCURVE",
"538 508 CURVE SMOOTH",
"446 508 LINE SMOOTH",
"407 508 OFFCURVE",
"394 488 OFFCURVE",
"386 450 CURVE",
"506 450 LINE SMOOTH",
"547 450 OFFCURVE",
"553 434 OFFCURVE",
"553 393 CURVE SMOOTH",
"553 0 LINE",
"606 0 LINE SMOOTH",
"627 0 OFFCURVE",
"633 6 OFFCURVE",
"633 27 CURVE SMOOTH"
);
}
);
width = 697;
},
{
layerId = "02C7D3CC-A397-42E8-8789-73F6D8E29B25";
paths = (
{
closed = 1;
nodes = (
"389 413 LINE SMOOTH",
"389 482 OFFCURVE",
"363 508 OFFCURVE",
"294 508 CURVE SMOOTH",
"205 508 LINE SMOOTH",
"166 508 OFFCURVE",
"153 488 OFFCURVE",
"145 450 CURVE",
"145 508 LINE",
"92 508 LINE SMOOTH",
"71 508 OFFCURVE",
"65 502 OFFCURVE",
"65 481 CURVE SMOOTH",
"65 0 LINE",
"118 0 LINE SMOOTH",
"139 0 OFFCURVE",
"145 6 OFFCURVE",
"145 27 CURVE SMOOTH",
"145 450 LINE",
"262 450 LINE SMOOTH",
"303 450 OFFCURVE",
"309 434 OFFCURVE",
"309 393 CURVE SMOOTH",
"309 0 LINE",
"362 0 LINE SMOOTH",
"383 0 OFFCURVE",
"389 6 OFFCURVE",
"389 27 CURVE SMOOTH"
);
},
{
closed = 1;
nodes = (
"633 413 LINE SMOOTH",
"633 482 OFFCURVE",
"607 508 OFFCURVE",
"538 508 CURVE SMOOTH",
"446 508 LINE SMOOTH",
"407 508 OFFCURVE",
"394 488 OFFCURVE",
"386 450 CURVE",
"506 450 LINE SMOOTH",
"547 450 OFFCURVE",
"553 434 OFFCURVE",
"553 393 CURVE SMOOTH",
"553 0 LINE",
"606 0 LINE SMOOTH",
"627 0 OFFCURVE",
"633 6 OFFCURVE",
"633 27 CURVE SMOOTH"
);
}
);
width = 697;
}
);
leftKerningGroup = _KERN_n_2ND;
rightKerningGroup = _KERN_a_1ST;
unicode = 006D;
},
{
glyphname = n;
layers = (
{
layerId = "0D43471E-84ED-412C-B4E5-2801B83B9DAE";
name = public.background;
paths = (
{
closed = 1;
nodes = (
"205 508 LINE SMOOTH",
"166 508 OFFCURVE",
"153 488 OFFCURVE",
"145 450 CURVE",
"145 508 LINE",
"92 508 LINE SMOOTH",
"71 508 OFFCURVE",
"65 502 OFFCURVE",
"65 481 CURVE SMOOTH",
"65 0 LINE",
"118 0 LINE SMOOTH",
"139 0 OFFCURVE",
"145 6 OFFCURVE",
"145 27 CURVE SMOOTH",
"145 450 LINE",
"268 450 LINE SMOOTH",
"309 450 OFFCURVE",
"315 434 OFFCURVE",
"315 393 CURVE SMOOTH",
"315 0 LINE",
"368 0 LINE SMOOTH",
"389 0 OFFCURVE",
"395 6 OFFCURVE",
"395 27 CURVE SMOOTH",
"395 413 LINE SMOOTH",
"395 482 OFFCURVE",
"369 508 OFFCURVE",
"300 508 CURVE SMOOTH"
);
}
);
width = 459;
},
{
anchors = (
{
name = top;
position = "{235, 550}";
}
);
layerId = "02C7D3CC-A397-42E8-8789-73F6D8E29B25";
paths = (
{
closed = 1;
nodes = (
"205 508 LINE SMOOTH",
"166 508 OFFCURVE",
"153 488 OFFCURVE",
"145 450 CURVE",
"145 508 LINE",
"92 508 LINE SMOOTH",
"71 508 OFFCURVE",
"65 502 OFFCURVE",
"65 481 CURVE SMOOTH",
"65 0 LINE",
"118 0 LINE SMOOTH",
"139 0 OFFCURVE",
"145 6 OFFCURVE",
"145 27 CURVE SMOOTH",
"145 450 LINE",
"268 450 LINE SMOOTH",
"309 450 OFFCURVE",
"315 434 OFFCURVE",
"315 393 CURVE SMOOTH",
"315 0 LINE",
"368 0 LINE SMOOTH",
"389 0 OFFCURVE",
"395 6 OFFCURVE",
"395 27 CURVE SMOOTH",
"395 413 LINE SMOOTH",
"395 482 OFFCURVE",
"369 508 OFFCURVE",
"300 508 CURVE SMOOTH"
);
}
);
width = 459;
}
);
leftKerningGroup = _KERN_n_2ND;
rightKerningGroup = _KERN_a_1ST;
unicode = 006E;
},
{
glyphname = o;
layers = (
{
layerId = "0D43471E-84ED-412C-B4E5-2801B83B9DAE";
name = public.background;
paths = (
{
closed = 1;
nodes = (
"63 95 LINE SMOOTH",
"63 26 OFFCURVE",
"89 0 OFFCURVE",
"158 0 CURVE SMOOTH",
"298 0 LINE SMOOTH",
"367 0 OFFCURVE",
"393 26 OFFCURVE",
"393 95 CURVE SMOOTH",
"393 413 LINE SMOOTH",
"393 482 OFFCURVE",
"367 508 OFFCURVE",
"298 508 CURVE SMOOTH",
"158 508 LINE SMOOTH",
"89 508 OFFCURVE",
"63 482 OFFCURVE",
"63 413 CURVE"
);
},
{
closed = 1;
nodes = (
"266 450 LINE SMOOTH",
"307 450 OFFCURVE",
"313 434 OFFCURVE",
"313 393 CURVE SMOOTH",
"313 115 LINE SMOOTH",
"313 74 OFFCURVE",
"307 58 OFFCURVE",
"266 58 CURVE SMOOTH",
"190 58 LINE SMOOTH",
"149 58 OFFCURVE",
"143 74 OFFCURVE",
"143 115 CURVE SMOOTH",
"143 393 LINE SMOOTH",
"143 434 OFFCURVE",
"149 450 OFFCURVE",
"190 450 CURVE SMOOTH"
);
}
);
width = 456;
},
{
anchors = (
{
name = top;
position = "{231, 550}";
}
);
layerId = "02C7D3CC-A397-42E8-8789-73F6D8E29B25";
paths = (
{
closed = 1;
nodes = (
"63 95 LINE SMOOTH",
"63 26 OFFCURVE",
"89 0 OFFCURVE",
"158 0 CURVE SMOOTH",
"298 0 LINE SMOOTH",
"367 0 OFFCURVE",
"393 26 OFFCURVE",
"393 95 CURVE SMOOTH",
"393 413 LINE SMOOTH",
"393 482 OFFCURVE",
"367 508 OFFCURVE",
"298 508 CURVE SMOOTH",
"158 508 LINE SMOOTH",
"89 508 OFFCURVE",
"63 482 OFFCURVE",
"63 413 CURVE"
);
},
{
closed = 1;
nodes = (
"266 450 LINE SMOOTH",
"307 450 OFFCURVE",
"313 434 OFFCURVE",
"313 393 CURVE SMOOTH",
"313 115 LINE SMOOTH",
"313 74 OFFCURVE",
"307 58 OFFCURVE",
"266 58 CURVE SMOOTH",
"190 58 LINE SMOOTH",
"149 58 OFFCURVE",
"143 74 OFFCURVE",
"143 115 CURVE SMOOTH",
"143 393 LINE SMOOTH",
"143 434 OFFCURVE",
"149 450 OFFCURVE",
"190 450 CURVE SMOOTH"
);
}
);
width = 456;
}
);
leftKerningGroup = _KERN_o_2ND;
rightKerningGroup = _KERN_o_1ST;
unicode = 006F;
},
{
glyphname = p;
layers = (
{
layerId = "0D43471E-84ED-412C-B4E5-2801B83B9DAE";
name = public.background;
paths = (
{
closed = 1;
nodes = (
"210 508 LINE SMOOTH",
"189 508 OFFCURVE",
"185 502 OFFCURVE",
"185 481 CURVE SMOOTH",
"185 450 LINE",
"268 450 LINE SMOOTH",
"309 450 OFFCURVE",
"315 434 OFFCURVE",
"315 393 CURVE SMOOTH",
"315 115 LINE SMOOTH",
"315 74 OFFCURVE",
"309 58 OFFCURVE",
"268 58 CURVE SMOOTH",
"145 58 LINE",
"145 508 LINE",
"92 508 LINE SMOOTH",
"71 508 OFFCURVE",
"65 502 OFFCURVE",
"65 481 CURVE SMOOTH",
"65 -201 LINE",
"118 -201 LINE SMOOTH",
"139 -201 OFFCURVE",
"145 -195 OFFCURVE",
"145 -174 CURVE SMOOTH",
"145 58 LINE",
"153 20 OFFCURVE",
"166 0 OFFCURVE",
"205 0 CURVE SMOOTH",
"300 0 LINE SMOOTH",
"369 0 OFFCURVE",
"395 26 OFFCURVE",
"395 95 CURVE SMOOTH",
"395 413 LINE SMOOTH",
"395 482 OFFCURVE",
"369 508 OFFCURVE",
"300 508 CURVE SMOOTH"
);
}
);
width = 458;
},
{
layerId = "02C7D3CC-A397-42E8-8789-73F6D8E29B25";
paths = (
{
closed = 1;
nodes = (
"210 508 LINE SMOOTH",
"189 508 OFFCURVE",
"185 502 OFFCURVE",
"185 481 CURVE SMOOTH",
"185 450 LINE",
"268 450 LINE SMOOTH",
"309 450 OFFCURVE",
"315 434 OFFCURVE",
"315 393 CURVE SMOOTH",
"315 115 LINE SMOOTH",
"315 74 OFFCURVE",
"309 58 OFFCURVE",
"268 58 CURVE SMOOTH",
"145 58 LINE",
"145 508 LINE",
"92 508 LINE SMOOTH",
"71 508 OFFCURVE",
"65 502 OFFCURVE",
"65 481 CURVE SMOOTH",
"65 -201 LINE",
"118 -201 LINE SMOOTH",
"139 -201 OFFCURVE",
"145 -195 OFFCURVE",
"145 -174 CURVE SMOOTH",
"145 58 LINE",
"153 20 OFFCURVE",
"166 0 OFFCURVE",
"205 0 CURVE SMOOTH",
"300 0 LINE SMOOTH",
"369 0 OFFCURVE",
"395 26 OFFCURVE",
"395 95 CURVE SMOOTH",
"395 413 LINE SMOOTH",
"395 482 OFFCURVE",
"369 508 OFFCURVE",
"300 508 CURVE SMOOTH"
);
}
);
width = 458;
}
);
leftKerningGroup = _KERN_n_2ND;
rightKerningGroup = _KERN_o_1ST;
unicode = 0070;
},
{
glyphname = q;
layers = (
{
layerId = "0D43471E-84ED-412C-B4E5-2801B83B9DAE";
name = public.background;
paths = (
{
closed = 1;
nodes = (
"366 -201 LINE SMOOTH",
"387 -201 OFFCURVE",
"393 -195 OFFCURVE",
"393 -174 CURVE SMOOTH",
"393 508 LINE",
"340 508 LINE SMOOTH",
"319 508 OFFCURVE",
"313 502 OFFCURVE",
"313 481 CURVE SMOOTH",
"313 -201 LINE"
);
},
{
closed = 1;
nodes = (
"248 0 LINE SMOOTH",
"269 0 OFFCURVE",
"273 6 OFFCURVE",
"273 27 CURVE SMOOTH",
"273 58 LINE",
"190 58 LINE SMOOTH",
"149 58 OFFCURVE",
"143 74 OFFCURVE",
"143 115 CURVE SMOOTH",
"143 393 LINE SMOOTH",
"143 434 OFFCURVE",
"149 450 OFFCURVE",
"190 450 CURVE SMOOTH",
"313 450 LINE",
"305 488 OFFCURVE",
"292 508 OFFCURVE",
"253 508 CURVE SMOOTH",
"158 508 LINE SMOOTH",
"89 508 OFFCURVE",
"63 482 OFFCURVE",
"63 413 CURVE SMOOTH",
"63 95 LINE SMOOTH",
"63 26 OFFCURVE",
"89 0 OFFCURVE",
"158 0 CURVE SMOOTH"
);
}
);
width = 459;
},
{
layerId = "02C7D3CC-A397-42E8-8789-73F6D8E29B25";
paths = (
{
closed = 1;
nodes = (
"366 -201 LINE SMOOTH",
"387 -201 OFFCURVE",
"393 -195 OFFCURVE",
"393 -174 CURVE SMOOTH",
"393 508 LINE",
"340 508 LINE SMOOTH",
"319 508 OFFCURVE",
"313 502 OFFCURVE",
"313 481 CURVE SMOOTH",
"313 -201 LINE"
);
},
{
closed = 1;
nodes = (
"248 0 LINE SMOOTH",
"269 0 OFFCURVE",
"273 6 OFFCURVE",
"273 27 CURVE SMOOTH",
"273 58 LINE",
"190 58 LINE SMOOTH",
"149 58 OFFCURVE",
"143 74 OFFCURVE",
"143 115 CURVE SMOOTH",
"143 393 LINE SMOOTH",
"143 434 OFFCURVE",
"149 450 OFFCURVE",
"190 450 CURVE SMOOTH",
"313 450 LINE",
"305 488 OFFCURVE",
"292 508 OFFCURVE",
"253 508 CURVE SMOOTH",
"158 508 LINE SMOOTH",
"89 508 OFFCURVE",
"63 482 OFFCURVE",
"63 413 CURVE SMOOTH",
"63 95 LINE SMOOTH",
"63 26 OFFCURVE",
"89 0 OFFCURVE",
"158 0 CURVE SMOOTH"
);
}
);
width = 459;
}
);
leftKerningGroup = _KERN_o_2ND;
rightKerningGroup = _KERN_u_1ST;
unicode = 0071;
},
{
glyphname = r;
layers = (
{
layerId = "0D43471E-84ED-412C-B4E5-2801B83B9DAE";
name = public.background;
paths = (
{
closed = 1;
nodes = (
"279 450 LINE",
"279 481 LINE SMOOTH",
"279 502 OFFCURVE",
"275 508 OFFCURVE",
"254 508 CURVE SMOOTH",
"215 508 LINE SMOOTH",
"176 508 OFFCURVE",
"162 496 OFFCURVE",
"145 450 CURVE",
"145 508 LINE",
"92 508 LINE SMOOTH",
"71 508 OFFCURVE",
"65 502 OFFCURVE",
"65 481 CURVE SMOOTH",
"65 0 LINE",
"118 0 LINE SMOOTH",
"139 0 OFFCURVE",
"145 6 OFFCURVE",
"145 27 CURVE SMOOTH",
"145 450 LINE"
);
}
);
width = 310;
},
{
guideLines = (
{
position = "{0, 392}";
}
);
layerId = "02C7D3CC-A397-42E8-8789-73F6D8E29B25";
paths = (
{
closed = 1;
nodes = (
"279 450 LINE",
"279 481 LINE SMOOTH",
"279 502 OFFCURVE",
"275 508 OFFCURVE",
"254 508 CURVE SMOOTH",
"215 508 LINE SMOOTH",
"176 508 OFFCURVE",
"162 496 OFFCURVE",
"145 450 CURVE",
"145 508 LINE",
"92 508 LINE SMOOTH",
"71 508 OFFCURVE",
"65 502 OFFCURVE",
"65 481 CURVE SMOOTH",
"65 0 LINE",
"118 0 LINE SMOOTH",
"139 0 OFFCURVE",
"145 6 OFFCURVE",
"145 27 CURVE SMOOTH",
"145 450 LINE"
);
}
);
width = 310;
}
);
leftKerningGroup = _KERN_n_2ND;
unicode = 0072;
},
{
glyphname = s;
layers = (
{
layerId = "0D43471E-84ED-412C-B4E5-2801B83B9DAE";
name = public.background;
paths = (
{
closed = 1;
nodes = (
"199 225 LINE SMOOTH",
"240 225 OFFCURVE",
"246 209 OFFCURVE",
"246 168 CURVE SMOOTH",
"246 115 LINE SMOOTH",
"246 74 OFFCURVE",
"240 58 OFFCURVE",
"199 58 CURVE SMOOTH",
"57 58 LINE",
"57 27 LINE SMOOTH",
"57 6 OFFCURVE",
"61 0 OFFCURVE",
"82 0 CURVE SMOOTH",
"226 0 LINE SMOOTH",
"295 0 OFFCURVE",
"321 26 OFFCURVE",
"321 95 CURVE SMOOTH",
"321 194 LINE SMOOTH",
"321 263 OFFCURVE",
"305 283 OFFCURVE",
"236 283 CURVE SMOOTH",
"179 283 LINE SMOOTH",
"138 283 OFFCURVE",
"132 291 OFFCURVE",
"132 340 CURVE SMOOTH",
"132 393 LINE SMOOTH",
"132 434 OFFCURVE",
"138 450 OFFCURVE",
"179 450 CURVE SMOOTH",
"311 450 LINE",
"311 481 LINE SMOOTH",
"311 502 OFFCURVE",
"307 508 OFFCURVE",
"286 508 CURVE SMOOTH",
"152 508 LINE SMOOTH",
"83 508 OFFCURVE",
"57 482 OFFCURVE",
"57 413 CURVE SMOOTH",
"57 314 LINE SMOOTH",
"57 245 OFFCURVE",
"73 225 OFFCURVE",
"142 225 CURVE SMOOTH"
);
}
);
width = 375;
},
{
guideLines = (
{
angle = 90;
position = "{65, 0}";
},
{
angle = 90;
position = "{318, 0}";
}
);
layerId = "02C7D3CC-A397-42E8-8789-73F6D8E29B25";
paths = (
{
closed = 1;
nodes = (
"199 225 LINE SMOOTH",
"240 225 OFFCURVE",
"246 209 OFFCURVE",
"246 168 CURVE SMOOTH",
"246 115 LINE SMOOTH",
"246 74 OFFCURVE",
"240 58 OFFCURVE",
"199 58 CURVE SMOOTH",
"57 58 LINE",
"57 27 LINE SMOOTH",
"57 6 OFFCURVE",
"61 0 OFFCURVE",
"82 0 CURVE SMOOTH",
"226 0 LINE SMOOTH",
"295 0 OFFCURVE",
"321 26 OFFCURVE",
"321 95 CURVE SMOOTH",
"321 194 LINE SMOOTH",
"321 263 OFFCURVE",
"305 283 OFFCURVE",
"236 283 CURVE SMOOTH",
"179 283 LINE SMOOTH",
"138 283 OFFCURVE",
"132 291 OFFCURVE",
"132 340 CURVE SMOOTH",
"132 393 LINE SMOOTH",
"132 434 OFFCURVE",
"138 450 OFFCURVE",
"179 450 CURVE SMOOTH",
"311 450 LINE",
"311 481 LINE SMOOTH",
"311 502 OFFCURVE",
"307 508 OFFCURVE",
"286 508 CURVE SMOOTH",
"152 508 LINE SMOOTH",
"83 508 OFFCURVE",
"57 482 OFFCURVE",
"57 413 CURVE SMOOTH",
"57 314 LINE SMOOTH",
"57 245 OFFCURVE",
"73 225 OFFCURVE",
"142 225 CURVE SMOOTH"
);
}
);
width = 375;
}
);
unicode = 0073;
},
{
glyphname = t;
layers = (
{
layerId = "EAE98568-D1D1-402E-95FB-45A2161C7EBA";
name = img;
width = 304;
},
{
layerId = "0D43471E-84ED-412C-B4E5-2801B83B9DAE";
name = public.background;
paths = (
{
closed = 1;
nodes = (
"146 508 LINE",
"146 624 LINE",
"93 624 LINE SMOOTH",
"72 624 OFFCURVE",
"66 618 OFFCURVE",
"66 597 CURVE SMOOTH",
"66 95 LINE SMOOTH",
"66 26 OFFCURVE",
"92 0 OFFCURVE",
"161 0 CURVE SMOOTH",
"230 0 LINE SMOOTH",
"269 0 OFFCURVE",
"278 20 OFFCURVE",
"280 58 CURVE",
"193 58 LINE SMOOTH",
"152 58 OFFCURVE",
"146 74 OFFCURVE",
"146 115 CURVE SMOOTH",
"146 450 LINE",
"269 450 LINE",
"269 481 LINE SMOOTH",
"269 502 OFFCURVE",
"265 508 OFFCURVE",
"244 508 CURVE SMOOTH"
);
}
);
width = 304;
},
{
layerId = "02C7D3CC-A397-42E8-8789-73F6D8E29B25";
paths = (
{
closed = 1;
nodes = (
"146 508 LINE",
"146 624 LINE",
"93 624 LINE SMOOTH",
"72 624 OFFCURVE",
"66 618 OFFCURVE",
"66 597 CURVE SMOOTH",
"66 95 LINE SMOOTH",
"66 26 OFFCURVE",
"92 0 OFFCURVE",
"161 0 CURVE SMOOTH",
"230 0 LINE SMOOTH",
"269 0 OFFCURVE",
"278 20 OFFCURVE",
"280 58 CURVE",
"193 58 LINE SMOOTH",
"152 58 OFFCURVE",
"146 74 OFFCURVE",
"146 115 CURVE SMOOTH",
"146 450 LINE",
"269 450 LINE",
"269 481 LINE SMOOTH",
"269 502 OFFCURVE",
"265 508 OFFCURVE",
"244 508 CURVE SMOOTH"
);
}
);
width = 304;
}
);
unicode = 0074;
},
{
glyphname = u;
layers = (
{
layerId = "0D43471E-84ED-412C-B4E5-2801B83B9DAE";
name = public.background;
paths = (
{
closed = 1;
nodes = (
"367 0 LINE SMOOTH",
"388 0 OFFCURVE",
"394 6 OFFCURVE",
"394 27 CURVE SMOOTH",
"394 508 LINE",
"341 508 LINE SMOOTH",
"320 508 OFFCURVE",
"314 502 OFFCURVE",
"314 481 CURVE SMOOTH",
"314 0 LINE"
);
},
{
closed = 1;
nodes = (
"64 95 LINE SMOOTH",
"64 26 OFFCURVE",
"90 0 OFFCURVE",
"159 0 CURVE SMOOTH",
"249 0 LINE SMOOTH",
"270 0 OFFCURVE",
"274 6 OFFCURVE",
"274 27 CURVE SMOOTH",
"274 58 LINE",
"191 58 LINE SMOOTH",
"150 58 OFFCURVE",
"144 74 OFFCURVE",
"144 115 CURVE SMOOTH",
"144 508 LINE",
"91 508 LINE SMOOTH",
"70 508 OFFCURVE",
"64 502 OFFCURVE",
"64 481 CURVE SMOOTH"
);
}
);
width = 459;
},
{
layerId = "02C7D3CC-A397-42E8-8789-73F6D8E29B25";
paths = (
{
closed = 1;
nodes = (
"367 0 LINE SMOOTH",
"388 0 OFFCURVE",
"394 6 OFFCURVE",
"394 27 CURVE SMOOTH",
"394 508 LINE",
"341 508 LINE SMOOTH",
"320 508 OFFCURVE",
"314 502 OFFCURVE",
"314 481 CURVE SMOOTH",
"314 0 LINE"
);
},
{
closed = 1;
nodes = (
"64 95 LINE SMOOTH",
"64 26 OFFCURVE",
"90 0 OFFCURVE",
"159 0 CURVE SMOOTH",
"249 0 LINE SMOOTH",
"270 0 OFFCURVE",
"274 6 OFFCURVE",
"274 27 CURVE SMOOTH",
"274 58 LINE",
"191 58 LINE SMOOTH",
"150 58 OFFCURVE",
"144 74 OFFCURVE",
"144 115 CURVE SMOOTH",
"144 508 LINE",
"91 508 LINE SMOOTH",
"70 508 OFFCURVE",
"64 502 OFFCURVE",
"64 481 CURVE SMOOTH"
);
}
);
width = 459;
}
);
leftKerningGroup = _KERN_u_2ND;
rightKerningGroup = _KERN_u_1ST;
unicode = 0075;
},
{
glyphname = x;
layers = (
{
layerId = "0D43471E-84ED-412C-B4E5-2801B83B9DAE";
name = public.background;
paths = (
{
closed = 1;
nodes = (
"102 508 LINE",
"53 508 LINE SMOOTH",
"29 508 OFFCURVE",
"31 495 OFFCURVE",
"37 484 CURVE SMOOTH",
"156 262 LINE",
"38 24 LINE SMOOTH",
"32 13 OFFCURVE",
"30 0 OFFCURVE",
"54 0 CURVE SMOOTH",
"105 0 LINE",
"169 138 LINE",
"195 207 LINE",
"201 207 LINE",
"229 138 LINE",
"304 0 LINE",
"353 0 LINE SMOOTH",
"377 0 OFFCURVE",
"375 13 OFFCURVE",
"369 24 CURVE SMOOTH",
"240 252 LINE",
"367 484 LINE SMOOTH",
"373 495 OFFCURVE",
"375 508 OFFCURVE",
"351 508 CURVE SMOOTH",
"300 508 LINE",
"234 377 LINE",
"206 309 LINE",
"200 309 LINE",
"173 377 LINE"
);
}
);
width = 405;
},
{
guideLines = (
{
position = "{0, 377}";
},
{
position = "{0, 138}";
}
);
layerId = "02C7D3CC-A397-42E8-8789-73F6D8E29B25";
paths = (
{
closed = 1;
nodes = (
"102 508 LINE",
"53 508 LINE SMOOTH",
"29 508 OFFCURVE",
"31 495 OFFCURVE",
"37 484 CURVE SMOOTH",
"156 262 LINE",
"38 24 LINE SMOOTH",
"32 13 OFFCURVE",
"30 0 OFFCURVE",
"54 0 CURVE SMOOTH",
"105 0 LINE",
"169 138 LINE",
"195 207 LINE",
"201 207 LINE",
"229 138 LINE",
"304 0 LINE",
"353 0 LINE SMOOTH",
"377 0 OFFCURVE",
"375 13 OFFCURVE",
"369 24 CURVE SMOOTH",
"240 252 LINE",
"367 484 LINE SMOOTH",
"373 495 OFFCURVE",
"375 508 OFFCURVE",
"351 508 CURVE SMOOTH",
"300 508 LINE",
"234 377 LINE",
"206 309 LINE",
"200 309 LINE",
"173 377 LINE"
);
}
);
width = 405;
}
);
unicode = 0078;
},
{
glyphname = y;
layers = (
{
layerId = "0D43471E-84ED-412C-B4E5-2801B83B9DAE";
name = public.background;
paths = (
{
closed = 1;
nodes = (
"355 508 LINE SMOOTH",
"334 508 OFFCURVE",
"326 502 OFFCURVE",
"321 481 CURVE",
"234 184 LINE",
"209 64 LINE",
"203 64 LINE",
"183 185 LINE",
"98 508 LINE",
"53 508 LINE SMOOTH",
"37 508 OFFCURVE",
"29 498 OFFCURVE",
"33 481 CURVE SMOOTH",
"156 0 LINE",
"182 0 LINE",
"129 -201 LINE",
"173 -201 LINE SMOOTH",
"194 -201 OFFCURVE",
"201 -195 OFFCURVE",
"207 -174 CURVE SMOOTH",
"396 508 LINE"
);
}
);
width = 424;
},
{
guideLines = (
{
position = "{0, 185}";
}
);
layerId = "02C7D3CC-A397-42E8-8789-73F6D8E29B25";
paths = (
{
closed = 1;
nodes = (
"355 508 LINE SMOOTH",
"334 508 OFFCURVE",
"326 502 OFFCURVE",
"321 481 CURVE",
"234 184 LINE",
"209 64 LINE",
"203 64 LINE",
"183 185 LINE",
"98 508 LINE",
"53 508 LINE SMOOTH",
"37 508 OFFCURVE",
"29 498 OFFCURVE",
"33 481 CURVE SMOOTH",
"156 0 LINE",
"182 0 LINE",
"129 -201 LINE",
"173 -201 LINE SMOOTH",
"194 -201 OFFCURVE",
"201 -195 OFFCURVE",
"207 -174 CURVE SMOOTH",
"396 508 LINE"
);
}
);
width = 424;
}
);
leftKerningGroup = _KERN_y;
rightKerningGroup = _KERN_y;
unicode = 0079;
},
{
glyphname = z;
layers = (
{
layerId = "0D43471E-84ED-412C-B4E5-2801B83B9DAE";
name = public.background;
paths = (
{
closed = 1;
nodes = (
"293 0 LINE SMOOTH",
"314 0 OFFCURVE",
"318 6 OFFCURVE",
"318 27 CURVE SMOOTH",
"318 58 LINE",
"114 58 LINE",
"318 450 LINE",
"318 481 LINE SMOOTH",
"318 502 OFFCURVE",
"314 508 OFFCURVE",
"293 508 CURVE SMOOTH",
"72 508 LINE SMOOTH",
"51 508 OFFCURVE",
"47 502 OFFCURVE",
"47 481 CURVE SMOOTH",
"47 450 LINE",
"243 450 LINE",
"38 58 LINE",
"38 27 LINE SMOOTH",
"38 6 OFFCURVE",
"42 0 OFFCURVE",
"63 0 CURVE SMOOTH"
);
}
);
width = 368;
},
{
guideLines = (
{
position = "{0, 58}";
},
{
angle = 90;
position = "{332, 0}";
},
{
angle = 90;
position = "{57, 0}";
},
{
angle = 90;
position = "{318, 0}";
}
);
layerId = "02C7D3CC-A397-42E8-8789-73F6D8E29B25";
paths = (
{
closed = 1;
nodes = (
"293 0 LINE SMOOTH",
"314 0 OFFCURVE",
"318 6 OFFCURVE",
"318 27 CURVE SMOOTH",
"318 58 LINE",
"114 58 LINE",
"318 450 LINE",
"318 481 LINE SMOOTH",
"318 502 OFFCURVE",
"314 508 OFFCURVE",
"293 508 CURVE SMOOTH",
"72 508 LINE SMOOTH",
"51 508 OFFCURVE",
"47 502 OFFCURVE",
"47 481 CURVE SMOOTH",
"47 450 LINE",
"243 450 LINE",
"38 58 LINE",
"38 27 LINE SMOOTH",
"38 6 OFFCURVE",
"42 0 OFFCURVE",
"63 0 CURVE SMOOTH"
);
}
);
width = 368;
}
);
unicode = 007A;
},
{
glyphname = braceleft;
layers = (
{
layerId = "0D43471E-84ED-412C-B4E5-2801B83B9DAE";
name = public.background;
paths = (
{
closed = 1;
nodes = (
"207 221 LINE SMOOTH",
"207 286 OFFCURVE",
"193 312 OFFCURVE",
"151 315 CURVE",
"151 317 LINE",
"193 320 OFFCURVE",
"207 349 OFFCURVE",
"207 411 CURVE SMOOTH",
"207 645 LINE SMOOTH",
"207 686 OFFCURVE",
"223 702 OFFCURVE",
"264 702 CURVE SMOOTH",
"302 702 LINE SMOOTH",
"323 702 OFFCURVE",
"327 708 OFFCURVE",
"327 729 CURVE SMOOTH",
"327 760 LINE",
"222 760 LINE SMOOTH",
"153 760 OFFCURVE",
"127 734 OFFCURVE",
"127 665 CURVE SMOOTH",
"127 401 LINE SMOOTH",
"127 350 OFFCURVE",
"118 345 OFFCURVE",
"69 345 CURVE SMOOTH",
"48 345 LINE SMOOTH",
"26 345 OFFCURVE",
"22 337 OFFCURVE",
"22 316 CURVE SMOOTH",
"22 295 OFFCURVE",
"26 286 OFFCURVE",
"48 287 CURVE",
"68 287 LINE SMOOTH",
"117 287 OFFCURVE",
"127 285 OFFCURVE",
"127 231 CURVE SMOOTH",
"127 -33 LINE SMOOTH",
"127 -102 OFFCURVE",
"153 -128 OFFCURVE",
"222 -128 CURVE SMOOTH",
"327 -128 LINE",
"327 -97 LINE SMOOTH",
"327 -76 OFFCURVE",
"323 -70 OFFCURVE",
"302 -70 CURVE SMOOTH",
"264 -70 LINE SMOOTH",
"223 -70 OFFCURVE",
"207 -54 OFFCURVE",
"207 -13 CURVE SMOOTH"
);
}
);
width = 363;
},
{
guideLines = (
{
position = "{0, 316}";
}
);
layerId = "02C7D3CC-A397-42E8-8789-73F6D8E29B25";
paths = (
{
closed = 1;
nodes = (
"207 221 LINE SMOOTH",
"207 286 OFFCURVE",
"193 312 OFFCURVE",
"151 315 CURVE",
"151 317 LINE",
"193 320 OFFCURVE",
"207 349 OFFCURVE",
"207 411 CURVE SMOOTH",
"207 645 LINE SMOOTH",
"207 686 OFFCURVE",
"223 702 OFFCURVE",
"264 702 CURVE SMOOTH",
"302 702 LINE SMOOTH",
"323 702 OFFCURVE",
"327 708 OFFCURVE",
"327 729 CURVE SMOOTH",
"327 760 LINE",
"222 760 LINE SMOOTH",
"153 760 OFFCURVE",
"127 734 OFFCURVE",
"127 665 CURVE SMOOTH",
"127 401 LINE SMOOTH",
"127 350 OFFCURVE",
"118 345 OFFCURVE",
"69 345 CURVE SMOOTH",
"48 345 LINE SMOOTH",
"26 345 OFFCURVE",
"22 337 OFFCURVE",
"22 316 CURVE SMOOTH",
"22 295 OFFCURVE",
"26 286 OFFCURVE",
"48 287 CURVE",
"68 287 LINE SMOOTH",
"117 287 OFFCURVE",
"127 285 OFFCURVE",
"127 231 CURVE SMOOTH",
"127 -33 LINE SMOOTH",
"127 -102 OFFCURVE",
"153 -128 OFFCURVE",
"222 -128 CURVE SMOOTH",
"327 -128 LINE",
"327 -97 LINE SMOOTH",
"327 -76 OFFCURVE",
"323 -70 OFFCURVE",
"302 -70 CURVE SMOOTH",
"264 -70 LINE SMOOTH",
"223 -70 OFFCURVE",
"207 -54 OFFCURVE",
"207 -13 CURVE SMOOTH"
);
}
);
width = 363;
}
);
unicode = 007B;
},
{
glyphname = bar;
layers = (
{
layerId = "0D43471E-84ED-412C-B4E5-2801B83B9DAE";
name = public.background;
paths = (
{
closed = 1;
nodes = (
"101 760 LINE SMOOTH",
"80 760 OFFCURVE",
"74 754 OFFCURVE",
"74 733 CURVE SMOOTH",
"74 -128 LINE",
"123 -128 LINE SMOOTH",
"144 -128 OFFCURVE",
"150 -122 OFFCURVE",
"150 -101 CURVE SMOOTH",
"150 760 LINE"
);
}
);
width = 223;
},
{
layerId = "02C7D3CC-A397-42E8-8789-73F6D8E29B25";
paths = (
{
closed = 1;
nodes = (
"101 760 LINE SMOOTH",
"80 760 OFFCURVE",
"74 754 OFFCURVE",
"74 733 CURVE SMOOTH",
"74 -128 LINE",
"123 -128 LINE SMOOTH",
"144 -128 OFFCURVE",
"150 -122 OFFCURVE",
"150 -101 CURVE SMOOTH",
"150 760 LINE"
);
}
);
width = 223;
}
);
unicode = 007C;
},
{
glyphname = braceright;
layers = (
{
layerId = "0D43471E-84ED-412C-B4E5-2801B83B9DAE";
name = public.background;
paths = (
{
closed = 1;
nodes = (
"156 221 LINE SMOOTH",
"156 286 OFFCURVE",
"170 312 OFFCURVE",
"212 315 CURVE",
"212 317 LINE",
"170 320 OFFCURVE",
"156 349 OFFCURVE",
"156 411 CURVE SMOOTH",
"156 645 LINE SMOOTH",
"156 686 OFFCURVE",
"140 702 OFFCURVE",
"99 702 CURVE SMOOTH",
"61 702 LINE SMOOTH",
"40 702 OFFCURVE",
"36 708 OFFCURVE",
"36 729 CURVE SMOOTH",
"36 760 LINE",
"141 760 LINE SMOOTH",
"210 760 OFFCURVE",
"236 734 OFFCURVE",
"236 665 CURVE SMOOTH",
"236 401 LINE SMOOTH",
"236 350 OFFCURVE",
"245 345 OFFCURVE",
"294 345 CURVE SMOOTH",
"315 345 LINE SMOOTH",
"337 345 OFFCURVE",
"341 337 OFFCURVE",
"341 316 CURVE SMOOTH",
"341 295 OFFCURVE",
"337 286 OFFCURVE",
"315 287 CURVE",
"295 287 LINE SMOOTH",
"246 287 OFFCURVE",
"236 285 OFFCURVE",
"236 231 CURVE SMOOTH",
"236 -33 LINE SMOOTH",
"236 -102 OFFCURVE",
"210 -128 OFFCURVE",
"141 -128 CURVE SMOOTH",
"36 -128 LINE",
"36 -97 LINE SMOOTH",
"36 -76 OFFCURVE",
"40 -70 OFFCURVE",
"61 -70 CURVE SMOOTH",
"99 -70 LINE SMOOTH",
"140 -70 OFFCURVE",
"156 -54 OFFCURVE",
"156 -13 CURVE SMOOTH"
);
}
);
width = 363;
},
{
components = (
{
name = braceleft;
transform = "{-1, 0, 0, 1, 363, 0}";
alignment = -1;
}
);
guideLines = (
{
position = "{0, 349}";
},
{
position = "{0, 283}";
},
{
position = "{0, 316}";
}
);
layerId = "02C7D3CC-A397-42E8-8789-73F6D8E29B25";
width = 363;
}
);
unicode = 007D;
},
{
glyphname = asciitilde;
layers = (
{
layerId = "0D43471E-84ED-412C-B4E5-2801B83B9DAE";
name = public.background;
paths = (
{
closed = 1;
nodes = (
"240 310 LINE SMOOTH",
"264 286 OFFCURVE",
"286 274 OFFCURVE",
"307 274 CURVE SMOOTH",
"328 274 OFFCURVE",
"349 286 OFFCURVE",
"374 310 CURVE",
"390 327 LINE",
"404 340 OFFCURVE",
"409 352 OFFCURVE",
"409 365 CURVE SMOOTH",
"409 379 OFFCURVE",
"403 394 OFFCURVE",
"392 410 CURVE",
"340 358 LINE SMOOTH",
"327 345 OFFCURVE",
"318 340 OFFCURVE",
"308 340 CURVE SMOOTH",
"295 340 OFFCURVE",
"282 350 OFFCURVE",
"266 366 CURVE SMOOTH",
"218 414 LINE SMOOTH",
"194 438 OFFCURVE",
"172 450 OFFCURVE",
"151 450 CURVE SMOOTH",
"130 450 OFFCURVE",
"108 438 OFFCURVE",
"84 414 CURVE",
"68 397 LINE",
"54 384 OFFCURVE",
"49 372 OFFCURVE",
"49 359 CURVE SMOOTH",
"49 345 OFFCURVE",
"55 330 OFFCURVE",
"66 314 CURVE",
"118 366 LINE SMOOTH",
"131 379 OFFCURVE",
"140 384 OFFCURVE",
"150 384 CURVE SMOOTH",
"163 384 OFFCURVE",
"176 374 OFFCURVE",
"192 358 CURVE SMOOTH"
);
}
);
width = 457;
},
{
layerId = "02C7D3CC-A397-42E8-8789-73F6D8E29B25";
paths = (
{
closed = 1;
nodes = (
"240 310 LINE SMOOTH",
"264 286 OFFCURVE",
"286 274 OFFCURVE",
"307 274 CURVE SMOOTH",
"328 274 OFFCURVE",
"349 286 OFFCURVE",
"374 310 CURVE",
"390 327 LINE",
"404 340 OFFCURVE",
"409 352 OFFCURVE",
"409 365 CURVE SMOOTH",
"409 379 OFFCURVE",
"403 394 OFFCURVE",
"392 410 CURVE",
"340 358 LINE SMOOTH",
"327 345 OFFCURVE",
"318 340 OFFCURVE",
"308 340 CURVE SMOOTH",
"295 340 OFFCURVE",
"282 350 OFFCURVE",
"266 366 CURVE SMOOTH",
"218 414 LINE SMOOTH",
"194 438 OFFCURVE",
"172 450 OFFCURVE",
"151 450 CURVE SMOOTH",
"130 450 OFFCURVE",
"108 438 OFFCURVE",
"84 414 CURVE",
"68 397 LINE",
"54 384 OFFCURVE",
"49 372 OFFCURVE",
"49 359 CURVE SMOOTH",
"49 345 OFFCURVE",
"55 330 OFFCURVE",
"66 314 CURVE",
"118 366 LINE SMOOTH",
"131 379 OFFCURVE",
"140 384 OFFCURVE",
"150 384 CURVE SMOOTH",
"163 384 OFFCURVE",
"176 374 OFFCURVE",
"192 358 CURVE SMOOTH"
);
}
);
width = 457;
}
);
unicode = 007E;
},
{
glyphname = exclamdown;
layers = (
{
layerId = "0D43471E-84ED-412C-B4E5-2801B83B9DAE";
name = public.background;
paths = (
{
closed = 1;
nodes = (
"126 -250 LINE SMOOTH",
"147 -250 OFFCURVE",
"153 -244 OFFCURVE",
"153 -223 CURVE SMOOTH",
"153 290 LINE",
"100 290 LINE SMOOTH",
"79 290 OFFCURVE",
"73 284 OFFCURVE",
"73 263 CURVE SMOOTH",
"73 -250 LINE"
);
},
{
closed = 1;
nodes = (
"65 397 LINE SMOOTH",
"65 376 OFFCURVE",
"71 370 OFFCURVE",
"92 370 CURVE SMOOTH",
"153 370 LINE",
"153 423 LINE SMOOTH",
"153 444 OFFCURVE",
"147 450 OFFCURVE",
"126 450 CURVE SMOOTH",
"65 450 LINE"
);
}
);
width = 226;
},
{
components = (
{
name = exclam;
transform = "{-1, 0, 0, -1, 225, 450}";
alignment = -1;
}
);
layerId = "02C7D3CC-A397-42E8-8789-73F6D8E29B25";
width = 226;
}
);
unicode = 00A1;
},
{
glyphname = sterling;
layers = (
{
layerId = "EAE98568-D1D1-402E-95FB-45A2161C7EBA";
name = img;
width = 443;
},
{
layerId = "0D43471E-84ED-412C-B4E5-2801B83B9DAE";
name = public.background;
paths = (
{
closed = 1;
nodes = (
"217 392 LINE",
"350 392 LINE",
"350 423 LINE SMOOTH",
"350 444 OFFCURVE",
"346 450 OFFCURVE",
"325 450 CURVE SMOOTH",
"217 450 LINE",
"217 585 LINE SMOOTH",
"217 635 OFFCURVE",
"223 642 OFFCURVE",
"264 642 CURVE SMOOTH",
"391 642 LINE",
"383 680 OFFCURVE",
"370 700 OFFCURVE",
"327 700 CURVE SMOOTH",
"232 700 LINE SMOOTH",
"163 700 OFFCURVE",
"137 674 OFFCURVE",
"137 605 CURVE SMOOTH",
"137 58 LINE",
"44 58 LINE",
"52 20 OFFCURVE",
"65 0 OFFCURVE",
"108 0 CURVE SMOOTH",
"372 0 LINE",
"364 38 OFFCURVE",
"351 58 OFFCURVE",
"308 58 CURVE SMOOTH",
"217 58 LINE"
);
}
);
width = 443;
},
{
layerId = "02C7D3CC-A397-42E8-8789-73F6D8E29B25";
paths = (
{
closed = 1;
nodes = (
"217 392 LINE",
"350 392 LINE",
"350 423 LINE SMOOTH",
"350 444 OFFCURVE",
"346 450 OFFCURVE",
"325 450 CURVE SMOOTH",
"217 450 LINE",
"217 585 LINE SMOOTH",
"217 635 OFFCURVE",
"223 642 OFFCURVE",
"264 642 CURVE SMOOTH",
"391 642 LINE",
"383 680 OFFCURVE",
"370 700 OFFCURVE",
"327 700 CURVE SMOOTH",
"232 700 LINE SMOOTH",
"163 700 OFFCURVE",
"137 674 OFFCURVE",
"137 605 CURVE SMOOTH",
"137 58 LINE",
"44 58 LINE",
"52 20 OFFCURVE",
"65 0 OFFCURVE",
"108 0 CURVE SMOOTH",
"372 0 LINE",
"364 38 OFFCURVE",
"351 58 OFFCURVE",
"308 58 CURVE SMOOTH",
"217 58 LINE"
);
}
);
width = 443;
}
);
unicode = 00A3;
},
{
glyphname = yen;
layers = (
{
layerId = "0D43471E-84ED-412C-B4E5-2801B83B9DAE";
name = public.background;
paths = (
{
closed = 1;
nodes = (
"252 303 LINE",
"435 303 LINE",
"435 334 LINE SMOOTH",
"435 355 OFFCURVE",
"429 361 OFFCURVE",
"408 361 CURVE SMOOTH",
"252 361 LINE"
);
},
{
closed = 1;
nodes = (
"53 210 LINE SMOOTH",
"53 189 OFFCURVE",
"59 183 OFFCURVE",
"80 183 CURVE SMOOTH",
"434 183 LINE",
"434 214 LINE SMOOTH",
"434 235 OFFCURVE",
"428 241 OFFCURVE",
"407 241 CURVE SMOOTH",
"53 241 LINE"
);
},
{
closed = 1;
nodes = (
"53 330 LINE SMOOTH",
"53 309 OFFCURVE",
"59 303 OFFCURVE",
"80 303 CURVE SMOOTH",
"226 303 LINE",
"226 361 LINE",
"53 361 LINE"
);
},
{
closed = 1;
nodes = (
"78 700 LINE SMOOTH",
"57 700 OFFCURVE",
"45 694 OFFCURVE",
"53 673 CURVE SMOOTH",
"204 294 LINE",
"204 0 LINE",
"256 0 LINE SMOOTH",
"277 0 OFFCURVE",
"284 6 OFFCURVE",
"284 28 CURVE SMOOTH",
"284 294 LINE",
"444 700 LINE",
"399 700 LINE SMOOTH",
"377 700 OFFCURVE",
"370 693 OFFCURVE",
"363 673 CURVE SMOOTH",
"289 477 LINE",
"252 359 LINE",
"246 359 LINE",
"208 477 LINE",
"121 700 LINE"
);
}
);
width = 489;
},
{
components = (
{
name = Y;
transform = "{1, 0, 0, 1, 35, 0}";
alignment = -1;
}
);
guideLines = (
{
angle = 90;
position = "{37, 0}";
}
);
layerId = "02C7D3CC-A397-42E8-8789-73F6D8E29B25";
paths = (
{
closed = 1;
nodes = (
"252 303 LINE",
"435 303 LINE",
"435 334 LINE SMOOTH",
"435 355 OFFCURVE",
"429 361 OFFCURVE",
"408 361 CURVE SMOOTH",
"252 361 LINE"
);
},
{
closed = 1;
nodes = (
"53 210 LINE SMOOTH",
"53 189 OFFCURVE",
"59 183 OFFCURVE",
"80 183 CURVE SMOOTH",
"434 183 LINE",
"434 214 LINE SMOOTH",
"434 235 OFFCURVE",
"428 241 OFFCURVE",
"407 241 CURVE SMOOTH",
"53 241 LINE"
);
},
{
closed = 1;
nodes = (
"53 330 LINE SMOOTH",
"53 309 OFFCURVE",
"59 303 OFFCURVE",
"80 303 CURVE SMOOTH",
"226 303 LINE",
"226 361 LINE",
"53 361 LINE"
);
}
);
width = 489;
}
);
unicode = 00A5;
},
{
glyphname = brokenbar;
layers = (
{
layerId = "0D43471E-84ED-412C-B4E5-2801B83B9DAE";
name = public.background;
paths = (
{
closed = 1;
nodes = (
"102 170 LINE SMOOTH",
"81 170 OFFCURVE",
"75 164 OFFCURVE",
"75 143 CURVE SMOOTH",
"75 -240 LINE",
"123 -240 LINE SMOOTH",
"144 -240 OFFCURVE",
"150 -234 OFFCURVE",
"150 -213 CURVE SMOOTH",
"150 170 LINE"
);
},
{
closed = 1;
nodes = (
"102 760 LINE SMOOTH",
"81 760 OFFCURVE",
"75 754 OFFCURVE",
"75 733 CURVE SMOOTH",
"75 350 LINE",
"123 350 LINE SMOOTH",
"144 350 OFFCURVE",
"150 356 OFFCURVE",
"150 377 CURVE SMOOTH",
"150 760 LINE"
);
}
);
width = 223;
},
{
layerId = "02C7D3CC-A397-42E8-8789-73F6D8E29B25";
paths = (
{
closed = 1;
nodes = (
"102 170 LINE SMOOTH",
"81 170 OFFCURVE",
"75 164 OFFCURVE",
"75 143 CURVE SMOOTH",
"75 -240 LINE",
"123 -240 LINE SMOOTH",
"144 -240 OFFCURVE",
"150 -234 OFFCURVE",
"150 -213 CURVE SMOOTH",
"150 170 LINE"
);
},
{
closed = 1;
nodes = (
"102 760 LINE SMOOTH",
"81 760 OFFCURVE",
"75 754 OFFCURVE",
"75 733 CURVE SMOOTH",
"75 350 LINE",
"123 350 LINE SMOOTH",
"144 350 OFFCURVE",
"150 356 OFFCURVE",
"150 377 CURVE SMOOTH",
"150 760 LINE"
);
}
);
width = 223;
}
);
unicode = 00A6;
},
{
glyphname = section;
layers = (
{
layerId = "0D43471E-84ED-412C-B4E5-2801B83B9DAE";
name = public.background;
paths = (
{
closed = 1;
nodes = (
"358 409 LINE SMOOTH",
"358 478 OFFCURVE",
"332 504 OFFCURVE",
"263 504 CURVE SMOOTH",
"187 504 LINE SMOOTH",
"146 504 OFFCURVE",
"140 520 OFFCURVE",
"140 561 CURVE SMOOTH",
"140 585 LINE SMOOTH",
"140 626 OFFCURVE",
"146 642 OFFCURVE",
"187 642 CURVE SMOOTH",
"328 642 LINE",
"320 680 OFFCURVE",
"307 700 OFFCURVE",
"268 700 CURVE SMOOTH",
"155 700 LINE SMOOTH",
"86 700 OFFCURVE",
"60 674 OFFCURVE",
"60 605 CURVE SMOOTH",
"60 541 LINE SMOOTH",
"60 472 OFFCURVE",
"86 446 OFFCURVE",
"155 446 CURVE SMOOTH",
"231 446 LINE SMOOTH",
"272 446 OFFCURVE",
"278 430 OFFCURVE",
"278 389 CURVE SMOOTH",
"278 255 LINE",
"330 266 OFFCURVE",
"358 284 OFFCURVE",
"358 337 CURVE SMOOTH"
);
},
{
closed = 1;
nodes = (
"60 292 LINE SMOOTH",
"60 223 OFFCURVE",
"86 197 OFFCURVE",
"155 197 CURVE SMOOTH",
"231 197 LINE SMOOTH",
"272 197 OFFCURVE",
"278 181 OFFCURVE",
"278 140 CURVE SMOOTH",
"278 116 LINE SMOOTH",
"278 75 OFFCURVE",
"272 59 OFFCURVE",
"231 59 CURVE SMOOTH",
"90 59 LINE",
"98 21 OFFCURVE",
"111 1 OFFCURVE",
"150 1 CURVE SMOOTH",
"263 1 LINE SMOOTH",
"332 1 OFFCURVE",
"358 27 OFFCURVE",
"358 96 CURVE SMOOTH",
"358 160 LINE SMOOTH",
"358 229 OFFCURVE",
"332 255 OFFCURVE",
"263 255 CURVE SMOOTH",
"187 255 LINE SMOOTH",
"146 255 OFFCURVE",
"140 271 OFFCURVE",
"140 312 CURVE SMOOTH",
"140 446 LINE",
"88 435 OFFCURVE",
"60 417 OFFCURVE",
"60 364 CURVE SMOOTH"
);
}
);
width = 418;
},
{
layerId = "02C7D3CC-A397-42E8-8789-73F6D8E29B25";
paths = (
{
closed = 1;
nodes = (
"358 409 LINE SMOOTH",
"358 478 OFFCURVE",
"332 504 OFFCURVE",
"263 504 CURVE SMOOTH",
"187 504 LINE SMOOTH",
"146 504 OFFCURVE",
"140 520 OFFCURVE",
"140 561 CURVE SMOOTH",
"140 585 LINE SMOOTH",
"140 626 OFFCURVE",
"146 642 OFFCURVE",
"187 642 CURVE SMOOTH",
"328 642 LINE",
"320 680 OFFCURVE",
"307 700 OFFCURVE",
"268 700 CURVE SMOOTH",
"155 700 LINE SMOOTH",
"86 700 OFFCURVE",
"60 674 OFFCURVE",
"60 605 CURVE SMOOTH",
"60 541 LINE SMOOTH",
"60 472 OFFCURVE",
"86 446 OFFCURVE",
"155 446 CURVE SMOOTH",
"231 446 LINE SMOOTH",
"272 446 OFFCURVE",
"278 430 OFFCURVE",
"278 389 CURVE SMOOTH",
"278 255 LINE",
"330 266 OFFCURVE",
"358 284 OFFCURVE",
"358 337 CURVE SMOOTH"
);
},
{
closed = 1;
nodes = (
"60 292 LINE SMOOTH",
"60 223 OFFCURVE",
"86 197 OFFCURVE",
"155 197 CURVE SMOOTH",
"231 197 LINE SMOOTH",
"272 197 OFFCURVE",
"278 181 OFFCURVE",
"278 140 CURVE SMOOTH",
"278 116 LINE SMOOTH",
"278 75 OFFCURVE",
"272 59 OFFCURVE",
"231 59 CURVE SMOOTH",
"90 59 LINE",
"98 21 OFFCURVE",
"111 1 OFFCURVE",
"150 1 CURVE SMOOTH",
"263 1 LINE SMOOTH",
"332 1 OFFCURVE",
"358 27 OFFCURVE",
"358 96 CURVE SMOOTH",
"358 160 LINE SMOOTH",
"358 229 OFFCURVE",
"332 255 OFFCURVE",
"263 255 CURVE SMOOTH",
"187 255 LINE SMOOTH",
"146 255 OFFCURVE",
"140 271 OFFCURVE",
"140 312 CURVE SMOOTH",
"140 446 LINE",
"88 435 OFFCURVE",
"60 417 OFFCURVE",
"60 364 CURVE SMOOTH"
);
}
);
width = 418;
}
);
unicode = 00A7;
},
{
glyphname = dieresis;
layers = (
{
layerId = "0D43471E-84ED-412C-B4E5-2801B83B9DAE";
name = public.background;
paths = (
{
closed = 1;
nodes = (
"148 653 LINE SMOOTH",
"148 674 OFFCURVE",
"142 680 OFFCURVE",
"121 680 CURVE SMOOTH",
"60 680 LINE",
"60 627 LINE SMOOTH",
"60 606 OFFCURVE",
"66 600 OFFCURVE",
"87 600 CURVE SMOOTH",
"148 600 LINE"
);
},
{
closed = 1;
nodes = (
"282 653 LINE SMOOTH",
"282 674 OFFCURVE",
"276 680 OFFCURVE",
"255 680 CURVE SMOOTH",
"194 680 LINE",
"194 627 LINE SMOOTH",
"194 606 OFFCURVE",
"200 600 OFFCURVE",
"221 600 CURVE SMOOTH",
"282 600 LINE"
);
}
);
width = 342;
},
{
anchors = (
{
name = _top;
position = "{175, 550}";
}
);
layerId = "02C7D3CC-A397-42E8-8789-73F6D8E29B25";
paths = (
{
closed = 1;
nodes = (
"148 653 LINE SMOOTH",
"148 674 OFFCURVE",
"142 680 OFFCURVE",
"121 680 CURVE SMOOTH",
"60 680 LINE",
"60 627 LINE SMOOTH",
"60 606 OFFCURVE",
"66 600 OFFCURVE",
"87 600 CURVE SMOOTH",
"148 600 LINE"
);
},
{
closed = 1;
nodes = (
"282 653 LINE SMOOTH",
"282 674 OFFCURVE",
"276 680 OFFCURVE",
"255 680 CURVE SMOOTH",
"194 680 LINE",
"194 627 LINE SMOOTH",
"194 606 OFFCURVE",
"200 600 OFFCURVE",
"221 600 CURVE SMOOTH",
"282 600 LINE"
);
}
);
width = 342;
}
);
unicode = 00A8;
},
{
glyphname = copyright;
layers = (
{
layerId = "0D43471E-84ED-412C-B4E5-2801B83B9DAE";
name = public.background;
paths = (
{
closed = 1;
nodes = (
"150 585 LINE SMOOTH",
"150 626 OFFCURVE",
"156 642 OFFCURVE",
"197 642 CURVE SMOOTH",
"477 642 LINE SMOOTH",
"518 642 OFFCURVE",
"524 626 OFFCURVE",
"524 585 CURVE SMOOTH",
"524 115 LINE SMOOTH",
"524 74 OFFCURVE",
"518 58 OFFCURVE",
"477 58 CURVE SMOOTH",
"197 58 LINE SMOOTH",
"156 58 OFFCURVE",
"150 74 OFFCURVE",
"150 115 CURVE SMOOTH"
);
},
{
closed = 1;
nodes = (
"70 95 LINE SMOOTH",
"70 26 OFFCURVE",
"96 0 OFFCURVE",
"165 0 CURVE SMOOTH",
"509 0 LINE SMOOTH",
"578 0 OFFCURVE",
"604 26 OFFCURVE",
"604 95 CURVE SMOOTH",
"604 605 LINE SMOOTH",
"604 674 OFFCURVE",
"578 700 OFFCURVE",
"509 700 CURVE SMOOTH",
"165 700 LINE SMOOTH",
"96 700 OFFCURVE",
"70 674 OFFCURVE",
"70 605 CURVE SMOOTH"
);
},
{
closed = 1;
nodes = (
"305 585 LINE SMOOTH",
"236 585 OFFCURVE",
"210 559 OFFCURVE",
"210 490 CURVE SMOOTH",
"210 212 LINE SMOOTH",
"210 143 OFFCURVE",
"236 117 OFFCURVE",
"305 117 CURVE SMOOTH",
"425 117 LINE SMOOTH",
"446 117 OFFCURVE",
"450 123 OFFCURVE",
"450 144 CURVE SMOOTH",
"450 175 LINE",
"337 175 LINE SMOOTH",
"296 175 OFFCURVE",
"290 191 OFFCURVE",
"290 232 CURVE SMOOTH",
"290 470 LINE SMOOTH",
"290 511 OFFCURVE",
"296 527 OFFCURVE",
"337 527 CURVE SMOOTH",
"450 527 LINE",
"450 558 LINE SMOOTH",
"450 579 OFFCURVE",
"446 585 OFFCURVE",
"425 585 CURVE SMOOTH"
);
}
);
width = 674;
},
{
layerId = "02C7D3CC-A397-42E8-8789-73F6D8E29B25";
paths = (
{
closed = 1;
nodes = (
"150 585 LINE SMOOTH",
"150 626 OFFCURVE",
"156 642 OFFCURVE",
"197 642 CURVE SMOOTH",
"477 642 LINE SMOOTH",
"518 642 OFFCURVE",
"524 626 OFFCURVE",
"524 585 CURVE SMOOTH",
"524 115 LINE SMOOTH",
"524 74 OFFCURVE",
"518 58 OFFCURVE",
"477 58 CURVE SMOOTH",
"197 58 LINE SMOOTH",
"156 58 OFFCURVE",
"150 74 OFFCURVE",
"150 115 CURVE SMOOTH"
);
},
{
closed = 1;
nodes = (
"70 95 LINE SMOOTH",
"70 26 OFFCURVE",
"96 0 OFFCURVE",
"165 0 CURVE SMOOTH",
"509 0 LINE SMOOTH",
"578 0 OFFCURVE",
"604 26 OFFCURVE",
"604 95 CURVE SMOOTH",
"604 605 LINE SMOOTH",
"604 674 OFFCURVE",
"578 700 OFFCURVE",
"509 700 CURVE SMOOTH",
"165 700 LINE SMOOTH",
"96 700 OFFCURVE",
"70 674 OFFCURVE",
"70 605 CURVE SMOOTH"
);
},
{
closed = 1;
nodes = (
"305 585 LINE SMOOTH",
"236 585 OFFCURVE",
"210 559 OFFCURVE",
"210 490 CURVE SMOOTH",
"210 212 LINE SMOOTH",
"210 143 OFFCURVE",
"236 117 OFFCURVE",
"305 117 CURVE SMOOTH",
"425 117 LINE SMOOTH",
"446 117 OFFCURVE",
"450 123 OFFCURVE",
"450 144 CURVE SMOOTH",
"450 175 LINE",
"337 175 LINE SMOOTH",
"296 175 OFFCURVE",
"290 191 OFFCURVE",
"290 232 CURVE SMOOTH",
"290 470 LINE SMOOTH",
"290 511 OFFCURVE",
"296 527 OFFCURVE",
"337 527 CURVE SMOOTH",
"450 527 LINE",
"450 558 LINE SMOOTH",
"450 579 OFFCURVE",
"446 585 OFFCURVE",
"425 585 CURVE SMOOTH"
);
}
);
width = 674;
}
);
unicode = 00A9;
},
{
glyphname = ordfeminine;
layers = (
{
layerId = "EAE98568-D1D1-402E-95FB-45A2161C7EBA";
name = img;
width = 394;
},
{
layerId = "0D43471E-84ED-412C-B4E5-2801B83B9DAE";
name = public.background;
paths = (
{
closed = 1;
nodes = (
"182 300 LINE SMOOTH",
"203 300 OFFCURVE",
"207 306 OFFCURVE",
"207 327 CURVE SMOOTH",
"207 358 LINE",
"185 358 LINE SMOOTH",
"144 358 OFFCURVE",
"128 374 OFFCURVE",
"128 415 CURVE SMOOTH",
"128 436 LINE SMOOTH",
"128 477 OFFCURVE",
"144 493 OFFCURVE",
"185 493 CURVE SMOOTH",
"247 493 LINE",
"247 327 LINE SMOOTH",
"247 306 OFFCURVE",
"253 300 OFFCURVE",
"274 300 CURVE SMOOTH",
"327 300 LINE",
"327 605 LINE SMOOTH",
"327 674 OFFCURVE",
"301 700 OFFCURVE",
"232 700 CURVE SMOOTH",
"133 700 LINE SMOOTH",
"94 700 OFFCURVE",
"81 680 OFFCURVE",
"73 642 CURVE",
"200 642 LINE SMOOTH",
"241 642 OFFCURVE",
"247 626 OFFCURVE",
"247 585 CURVE SMOOTH",
"247 551 LINE",
"148 551 LINE SMOOTH",
"79 551 OFFCURVE",
"53 525 OFFCURVE",
"53 456 CURVE SMOOTH",
"53 395 LINE SMOOTH",
"53 326 OFFCURVE",
"79 300 OFFCURVE",
"148 300 CURVE SMOOTH"
);
}
);
width = 394;
},
{
layerId = "02C7D3CC-A397-42E8-8789-73F6D8E29B25";
paths = (
{
closed = 1;
nodes = (
"182 300 LINE SMOOTH",
"203 300 OFFCURVE",
"207 306 OFFCURVE",
"207 327 CURVE SMOOTH",
"207 358 LINE",
"185 358 LINE SMOOTH",
"144 358 OFFCURVE",
"128 374 OFFCURVE",
"128 415 CURVE SMOOTH",
"128 436 LINE SMOOTH",
"128 477 OFFCURVE",
"144 493 OFFCURVE",
"185 493 CURVE SMOOTH",
"247 493 LINE",
"247 327 LINE SMOOTH",
"247 306 OFFCURVE",
"253 300 OFFCURVE",
"274 300 CURVE SMOOTH",
"327 300 LINE",
"327 605 LINE SMOOTH",
"327 674 OFFCURVE",
"301 700 OFFCURVE",
"232 700 CURVE SMOOTH",
"133 700 LINE SMOOTH",
"94 700 OFFCURVE",
"81 680 OFFCURVE",
"73 642 CURVE",
"200 642 LINE SMOOTH",
"241 642 OFFCURVE",
"247 626 OFFCURVE",
"247 585 CURVE SMOOTH",
"247 551 LINE",
"148 551 LINE SMOOTH",
"79 551 OFFCURVE",
"53 525 OFFCURVE",
"53 456 CURVE SMOOTH",
"53 395 LINE SMOOTH",
"53 326 OFFCURVE",
"79 300 OFFCURVE",
"148 300 CURVE SMOOTH"
);
}
);
width = 394;
}
);
unicode = 00AA;
},
{
glyphname = guillemotleft;
layers = (
{
layerId = "0D43471E-84ED-412C-B4E5-2801B83B9DAE";
name = public.background;
paths = (
{
closed = 1;
nodes = (
"126 299 LINE",
"184 357 LINE SMOOTH",
"204 377 OFFCURVE",
"222 410 OFFCURVE",
"222 439 CURVE SMOOTH",
"222 450 OFFCURVE",
"220 459 OFFCURVE",
"214 468 CURVE",
"46 302 LINE",
"46 292 LINE",
"212 127 LINE",
"218 136 OFFCURVE",
"221 146 OFFCURVE",
"221 157 CURVE SMOOTH",
"221 186 OFFCURVE",
"203 219 OFFCURVE",
"183 239 CURVE SMOOTH",
"126 297 LINE"
);
},
{
closed = 1;
nodes = (
"281 299 LINE",
"339 357 LINE SMOOTH",
"359 377 OFFCURVE",
"377 410 OFFCURVE",
"377 439 CURVE SMOOTH",
"377 450 OFFCURVE",
"375 459 OFFCURVE",
"369 468 CURVE",
"201 302 LINE",
"201 292 LINE",
"367 127 LINE",
"373 136 OFFCURVE",
"376 146 OFFCURVE",
"376 157 CURVE SMOOTH",
"376 186 OFFCURVE",
"358 219 OFFCURVE",
"338 239 CURVE SMOOTH",
"281 297 LINE"
);
}
);
width = 445;
},
{
layerId = "02C7D3CC-A397-42E8-8789-73F6D8E29B25";
paths = (
{
closed = 1;
nodes = (
"126 299 LINE",
"184 357 LINE SMOOTH",
"204 377 OFFCURVE",
"222 410 OFFCURVE",
"222 439 CURVE SMOOTH",
"222 450 OFFCURVE",
"220 459 OFFCURVE",
"214 468 CURVE",
"46 302 LINE",
"46 292 LINE",
"212 127 LINE",
"218 136 OFFCURVE",
"221 146 OFFCURVE",
"221 157 CURVE SMOOTH",
"221 186 OFFCURVE",
"203 219 OFFCURVE",
"183 239 CURVE SMOOTH",
"126 297 LINE"
);
},
{
closed = 1;
nodes = (
"281 299 LINE",
"339 357 LINE SMOOTH",
"359 377 OFFCURVE",
"377 410 OFFCURVE",
"377 439 CURVE SMOOTH",
"377 450 OFFCURVE",
"375 459 OFFCURVE",
"369 468 CURVE",
"201 302 LINE",
"201 292 LINE",
"367 127 LINE",
"373 136 OFFCURVE",
"376 146 OFFCURVE",
"376 157 CURVE SMOOTH",
"376 186 OFFCURVE",
"358 219 OFFCURVE",
"338 239 CURVE SMOOTH",
"281 297 LINE"
);
}
);
width = 445;
}
);
leftKerningGroup = _KERN_guilsinglleft;
rightKerningGroup = _KERN_guilsinglleft;
unicode = 00AB;
},
{
glyphname = logicalnot;
layers = (
{
layerId = "0D43471E-84ED-412C-B4E5-2801B83B9DAE";
name = public.background;
paths = (
{
closed = 1;
nodes = (
"68 359 LINE SMOOTH",
"68 338 OFFCURVE",
"74 332 OFFCURVE",
"95 332 CURVE SMOOTH",
"288 332 LINE",
"288 253 LINE SMOOTH",
"288 232 OFFCURVE",
"294 228 OFFCURVE",
"315 228 CURVE SMOOTH",
"368 228 LINE",
"368 365 LINE SMOOTH",
"368 386 OFFCURVE",
"362 390 OFFCURVE",
"341 390 CURVE SMOOTH",
"68 390 LINE"
);
}
);
width = 436;
},
{
layerId = "02C7D3CC-A397-42E8-8789-73F6D8E29B25";
paths = (
{
closed = 1;
nodes = (
"68 359 LINE SMOOTH",
"68 338 OFFCURVE",
"74 332 OFFCURVE",
"95 332 CURVE SMOOTH",
"288 332 LINE",
"288 253 LINE SMOOTH",
"288 232 OFFCURVE",
"294 228 OFFCURVE",
"315 228 CURVE SMOOTH",
"368 228 LINE",
"368 365 LINE SMOOTH",
"368 386 OFFCURVE",
"362 390 OFFCURVE",
"341 390 CURVE SMOOTH",
"68 390 LINE"
);
}
);
width = 436;
}
);
unicode = 00AC;
},
{
glyphname = uni00AD;
layers = (
{
layerId = "0D43471E-84ED-412C-B4E5-2801B83B9DAE";
name = public.background;
paths = (
{
closed = 1;
nodes = (
"66 361 LINE SMOOTH",
"66 340 OFFCURVE",
"72 334 OFFCURVE",
"93 334 CURVE SMOOTH",
"366 334 LINE",
"366 365 LINE SMOOTH",
"366 386 OFFCURVE",
"360 392 OFFCURVE",
"339 392 CURVE SMOOTH",
"66 392 LINE"
);
}
);
width = 432;
},
{
components = (
{
name = hyphen;
alignment = -1;
}
);
layerId = "02C7D3CC-A397-42E8-8789-73F6D8E29B25";
width = 432;
}
);
leftKerningGroup = _KERN_hyphen;
rightKerningGroup = _KERN_hyphen;
unicode = 00AD;
},
{
glyphname = registered;
layers = (
{
layerId = "0D43471E-84ED-412C-B4E5-2801B83B9DAE";
name = public.background;
paths = (
{
closed = 1;
nodes = (
"150 585 LINE SMOOTH",
"150 626 OFFCURVE",
"156 642 OFFCURVE",
"197 642 CURVE SMOOTH",
"477 642 LINE SMOOTH",
"518 642 OFFCURVE",
"524 626 OFFCURVE",
"524 585 CURVE SMOOTH",
"524 115 LINE SMOOTH",
"524 74 OFFCURVE",
"518 58 OFFCURVE",
"477 58 CURVE SMOOTH",
"197 58 LINE SMOOTH",
"156 58 OFFCURVE",
"150 74 OFFCURVE",
"150 115 CURVE SMOOTH"
);
},
{
closed = 1;
nodes = (
"70 95 LINE SMOOTH",
"70 26 OFFCURVE",
"96 0 OFFCURVE",
"165 0 CURVE SMOOTH",
"509 0 LINE SMOOTH",
"578 0 OFFCURVE",
"604 26 OFFCURVE",
"604 95 CURVE SMOOTH",
"604 605 LINE SMOOTH",
"604 674 OFFCURVE",
"578 700 OFFCURVE",
"509 700 CURVE SMOOTH",
"165 700 LINE SMOOTH",
"96 700 OFFCURVE",
"70 674 OFFCURVE",
"70 605 CURVE SMOOTH"
);
},
{
closed = 1;
nodes = (
"232 585 LINE SMOOTH",
"211 585 OFFCURVE",
"205 579 OFFCURVE",
"205 558 CURVE SMOOTH",
"205 118 LINE",
"248 118 LINE SMOOTH",
"269 118 OFFCURVE",
"275 124 OFFCURVE",
"275 145 CURVE SMOOTH",
"275 329 LINE",
"339 329 LINE",
"395 145 LINE",
"402 124 OFFCURVE",
"410 118 OFFCURVE",
"431 118 CURVE SMOOTH",
"472 118 LINE",
"407 332 LINE",
"450 340 OFFCURVE",
"467 368 OFFCURVE",
"467 424 CURVE SMOOTH",
"467 490 LINE SMOOTH",
"467 559 OFFCURVE",
"441 585 OFFCURVE",
"372 585 CURVE SMOOTH"
);
},
{
closed = 1;
nodes = (
"397 434 LINE SMOOTH",
"397 393 OFFCURVE",
"391 377 OFFCURVE",
"350 377 CURVE SMOOTH",
"275 377 LINE",
"275 527 LINE",
"350 527 LINE SMOOTH",
"391 527 OFFCURVE",
"397 511 OFFCURVE",
"397 470 CURVE SMOOTH"
);
}
);
width = 674;
},
{
guideLines = (
{
position = "{0, 585}";
},
{
position = "{0, 118}";
}
);
layerId = "02C7D3CC-A397-42E8-8789-73F6D8E29B25";
paths = (
{
closed = 1;
nodes = (
"150 585 LINE SMOOTH",
"150 626 OFFCURVE",
"156 642 OFFCURVE",
"197 642 CURVE SMOOTH",
"477 642 LINE SMOOTH",
"518 642 OFFCURVE",
"524 626 OFFCURVE",
"524 585 CURVE SMOOTH",
"524 115 LINE SMOOTH",
"524 74 OFFCURVE",
"518 58 OFFCURVE",
"477 58 CURVE SMOOTH",
"197 58 LINE SMOOTH",
"156 58 OFFCURVE",
"150 74 OFFCURVE",
"150 115 CURVE SMOOTH"
);
},
{
closed = 1;
nodes = (
"70 95 LINE SMOOTH",
"70 26 OFFCURVE",
"96 0 OFFCURVE",
"165 0 CURVE SMOOTH",
"509 0 LINE SMOOTH",
"578 0 OFFCURVE",
"604 26 OFFCURVE",
"604 95 CURVE SMOOTH",
"604 605 LINE SMOOTH",
"604 674 OFFCURVE",
"578 700 OFFCURVE",
"509 700 CURVE SMOOTH",
"165 700 LINE SMOOTH",
"96 700 OFFCURVE",
"70 674 OFFCURVE",
"70 605 CURVE SMOOTH"
);
},
{
closed = 1;
nodes = (
"232 585 LINE SMOOTH",
"211 585 OFFCURVE",
"205 579 OFFCURVE",
"205 558 CURVE SMOOTH",
"205 118 LINE",
"248 118 LINE SMOOTH",
"269 118 OFFCURVE",
"275 124 OFFCURVE",
"275 145 CURVE SMOOTH",
"275 329 LINE",
"339 329 LINE",
"395 145 LINE",
"402 124 OFFCURVE",
"410 118 OFFCURVE",
"431 118 CURVE SMOOTH",
"472 118 LINE",
"407 332 LINE",
"450 340 OFFCURVE",
"467 368 OFFCURVE",
"467 424 CURVE SMOOTH",
"467 490 LINE SMOOTH",
"467 559 OFFCURVE",
"441 585 OFFCURVE",
"372 585 CURVE SMOOTH"
);
},
{
closed = 1;
nodes = (
"397 434 LINE SMOOTH",
"397 393 OFFCURVE",
"391 377 OFFCURVE",
"350 377 CURVE SMOOTH",
"275 377 LINE",
"275 527 LINE",
"350 527 LINE SMOOTH",
"391 527 OFFCURVE",
"397 511 OFFCURVE",
"397 470 CURVE SMOOTH"
);
}
);
width = 674;
}
);
unicode = 00AE;
},
{
glyphname = macron;
layers = (
{
layerId = "0D43471E-84ED-412C-B4E5-2801B83B9DAE";
name = public.background;
paths = (
{
closed = 1;
nodes = (
"0 620 LINE SMOOTH",
"0 599 OFFCURVE",
"6 593 OFFCURVE",
"27 593 CURVE SMOOTH",
"450 593 LINE",
"450 624 LINE SMOOTH",
"450 645 OFFCURVE",
"444 651 OFFCURVE",
"423 651 CURVE SMOOTH",
"0 651 LINE"
);
}
);
width = 450;
},
{
components = (
{
name = underscore;
transform = "{1, 0, 0, 1, 0, 651}";
alignment = -1;
}
);
hints = (
{
horizontal = 1;
place = "{583, 68}";
type = Stem;
}
);
layerId = "02C7D3CC-A397-42E8-8789-73F6D8E29B25";
width = 450;
}
);
unicode = 00AF;
},
{
glyphname = degree;
layers = (
{
layerId = "0D43471E-84ED-412C-B4E5-2801B83B9DAE";
name = public.background;
paths = (
{
closed = 1;
nodes = (
"45 479 OFFCURVE",
"113 411 OFFCURVE",
"196 411 CURVE SMOOTH",
"280 411 OFFCURVE",
"348 479 OFFCURVE",
"348 562 CURVE SMOOTH",
"348 646 OFFCURVE",
"280 714 OFFCURVE",
"196 714 CURVE SMOOTH",
"113 714 OFFCURVE",
"45 646 OFFCURVE",
"45 562 CURVE SMOOTH"
);
},
{
closed = 1;
nodes = (
"105 613 OFFCURVE",
"145 655 OFFCURVE",
"196 655 CURVE SMOOTH",
"248 655 OFFCURVE",
"288 613 OFFCURVE",
"288 562 CURVE SMOOTH",
"288 512 OFFCURVE",
"248 470 OFFCURVE",
"196 470 CURVE SMOOTH",
"145 470 OFFCURVE",
"105 512 OFFCURVE",
"105 562 CURVE SMOOTH"
);
}
);
width = 393;
},
{
layerId = "02C7D3CC-A397-42E8-8789-73F6D8E29B25";
paths = (
{
closed = 1;
nodes = (
"45 479 OFFCURVE",
"113 411 OFFCURVE",
"196 411 CURVE SMOOTH",
"280 411 OFFCURVE",
"348 479 OFFCURVE",
"348 562 CURVE SMOOTH",
"348 646 OFFCURVE",
"280 714 OFFCURVE",
"196 714 CURVE SMOOTH",
"113 714 OFFCURVE",
"45 646 OFFCURVE",
"45 562 CURVE SMOOTH"
);
},
{
closed = 1;
nodes = (
"105 613 OFFCURVE",
"145 655 OFFCURVE",
"196 655 CURVE SMOOTH",
"248 655 OFFCURVE",
"288 613 OFFCURVE",
"288 562 CURVE SMOOTH",
"288 512 OFFCURVE",
"248 470 OFFCURVE",
"196 470 CURVE SMOOTH",
"145 470 OFFCURVE",
"105 512 OFFCURVE",
"105 562 CURVE SMOOTH"
);
}
);
width = 393;
}
);
unicode = 00B0;
},
{
glyphname = plusminus;
layers = (
{
layerId = "0D43471E-84ED-412C-B4E5-2801B83B9DAE";
name = public.background;
paths = (
{
closed = 1;
nodes = (
"216 512 LINE SMOOTH",
"195 512 OFFCURVE",
"189 506 OFFCURVE",
"189 485 CURVE SMOOTH",
"189 392 LINE",
"68 392 LINE",
"68 361 LINE SMOOTH",
"68 340 OFFCURVE",
"74 334 OFFCURVE",
"95 334 CURVE SMOOTH",
"189 334 LINE",
"189 212 LINE",
"220 212 LINE SMOOTH",
"241 212 OFFCURVE",
"247 218 OFFCURVE",
"247 239 CURVE SMOOTH",
"247 334 LINE",
"368 334 LINE",
"368 365 LINE SMOOTH",
"368 386 OFFCURVE",
"362 392 OFFCURVE",
"341 392 CURVE SMOOTH",
"247 392 LINE",
"247 512 LINE"
);
},
{
closed = 1;
nodes = (
"68 159 LINE SMOOTH",
"68 138 OFFCURVE",
"74 132 OFFCURVE",
"95 132 CURVE SMOOTH",
"368 132 LINE",
"368 163 LINE SMOOTH",
"368 184 OFFCURVE",
"362 190 OFFCURVE",
"341 190 CURVE SMOOTH",
"68 190 LINE"
);
}
);
width = 436;
},
{
layerId = "02C7D3CC-A397-42E8-8789-73F6D8E29B25";
paths = (
{
closed = 1;
nodes = (
"216 512 LINE SMOOTH",
"195 512 OFFCURVE",
"189 506 OFFCURVE",
"189 485 CURVE SMOOTH",
"189 392 LINE",
"68 392 LINE",
"68 361 LINE SMOOTH",
"68 340 OFFCURVE",
"74 334 OFFCURVE",
"95 334 CURVE SMOOTH",
"189 334 LINE",
"189 212 LINE",
"220 212 LINE SMOOTH",
"241 212 OFFCURVE",
"247 218 OFFCURVE",
"247 239 CURVE SMOOTH",
"247 334 LINE",
"368 334 LINE",
"368 365 LINE SMOOTH",
"368 386 OFFCURVE",
"362 392 OFFCURVE",
"341 392 CURVE SMOOTH",
"247 392 LINE",
"247 512 LINE"
);
},
{
closed = 1;
nodes = (
"68 159 LINE SMOOTH",
"68 138 OFFCURVE",
"74 132 OFFCURVE",
"95 132 CURVE SMOOTH",
"368 132 LINE",
"368 163 LINE SMOOTH",
"368 184 OFFCURVE",
"362 190 OFFCURVE",
"341 190 CURVE SMOOTH",
"68 190 LINE"
);
}
);
width = 436;
}
);
unicode = 00B1;
},
{
glyphname = acute;
layers = (
{
layerId = "0D43471E-84ED-412C-B4E5-2801B83B9DAE";
name = public.background;
paths = (
{
closed = 1;
nodes = (
"185 676 LINE",
"185 694 OFFCURVE",
"180 700 OFFCURVE",
"160 700 CURVE SMOOTH",
"107 700 LINE",
"50 583 LINE",
"46 577 OFFCURVE",
"42 559 OFFCURVE",
"66 559 CURVE SMOOTH",
"92 559 LINE"
);
}
);
width = 255;
},
{
anchors = (
{
name = _top;
position = "{68, 550}";
}
);
layerId = "02C7D3CC-A397-42E8-8789-73F6D8E29B25";
paths = (
{
closed = 1;
nodes = (
"185 676 LINE",
"185 694 OFFCURVE",
"180 700 OFFCURVE",
"160 700 CURVE SMOOTH",
"107 700 LINE",
"50 583 LINE",
"46 577 OFFCURVE",
"42 559 OFFCURVE",
"66 559 CURVE SMOOTH",
"92 559 LINE"
);
}
);
width = 255;
}
);
unicode = 00B4;
},
{
glyphname = paragraph;
layers = (
{
layerId = "0D43471E-84ED-412C-B4E5-2801B83B9DAE";
name = public.background;
paths = (
{
closed = 1;
nodes = (
"146 700 LINE SMOOTH",
"77 700 OFFCURVE",
"51 674 OFFCURVE",
"51 605 CURVE SMOOTH",
"51 469 LINE SMOOTH",
"51 400 OFFCURVE",
"77 374 OFFCURVE",
"146 374 CURVE SMOOTH",
"173 374 LINE",
"173 27 LINE SMOOTH",
"173 6 OFFCURVE",
"179 0 OFFCURVE",
"200 0 CURVE SMOOTH",
"253 0 LINE",
"253 673 LINE SMOOTH",
"253 694 OFFCURVE",
"247 700 OFFCURVE",
"226 700 CURVE SMOOTH"
);
},
{
closed = 1;
nodes = (
"336 700 LINE SMOOTH",
"315 700 OFFCURVE",
"309 694 OFFCURVE",
"309 673 CURVE SMOOTH",
"309 0 LINE",
"362 0 LINE SMOOTH",
"383 0 OFFCURVE",
"389 6 OFFCURVE",
"389 27 CURVE SMOOTH",
"389 700 LINE"
);
}
);
width = 464;
},
{
layerId = "02C7D3CC-A397-42E8-8789-73F6D8E29B25";
paths = (
{
closed = 1;
nodes = (
"146 700 LINE SMOOTH",
"77 700 OFFCURVE",
"51 674 OFFCURVE",
"51 605 CURVE SMOOTH",
"51 469 LINE SMOOTH",
"51 400 OFFCURVE",
"77 374 OFFCURVE",
"146 374 CURVE SMOOTH",
"173 374 LINE",
"173 27 LINE SMOOTH",
"173 6 OFFCURVE",
"179 0 OFFCURVE",
"200 0 CURVE SMOOTH",
"253 0 LINE",
"253 673 LINE SMOOTH",
"253 694 OFFCURVE",
"247 700 OFFCURVE",
"226 700 CURVE SMOOTH"
);
},
{
closed = 1;
nodes = (
"336 700 LINE SMOOTH",
"315 700 OFFCURVE",
"309 694 OFFCURVE",
"309 673 CURVE SMOOTH",
"309 0 LINE",
"362 0 LINE SMOOTH",
"383 0 OFFCURVE",
"389 6 OFFCURVE",
"389 27 CURVE SMOOTH",
"389 700 LINE"
);
}
);
width = 464;
}
);
unicode = 00B6;
},
{
glyphname = periodcentered;
layers = (
{
layerId = "0D43471E-84ED-412C-B4E5-2801B83B9DAE";
name = public.background;
paths = (
{
closed = 1;
nodes = (
"58 252 OFFCURVE",
"86 235 OFFCURVE",
"121 235 CURVE SMOOTH",
"156 235 OFFCURVE",
"184 252 OFFCURVE",
"184 303 CURVE SMOOTH",
"184 354 OFFCURVE",
"156 371 OFFCURVE",
"121 371 CURVE SMOOTH",
"86 371 OFFCURVE",
"58 354 OFFCURVE",
"58 303 CURVE SMOOTH"
);
}
);
width = 242;
},
{
layerId = "02C7D3CC-A397-42E8-8789-73F6D8E29B25";
paths = (
{
closed = 1;
nodes = (
"58 252 OFFCURVE",
"86 235 OFFCURVE",
"121 235 CURVE SMOOTH",
"156 235 OFFCURVE",
"184 252 OFFCURVE",
"184 303 CURVE SMOOTH",
"184 354 OFFCURVE",
"156 371 OFFCURVE",
"121 371 CURVE SMOOTH",
"86 371 OFFCURVE",
"58 354 OFFCURVE",
"58 303 CURVE SMOOTH"
);
}
);
width = 242;
}
);
unicode = 00B7;
},
{
glyphname = cedilla;
layers = (
{
layerId = "0D43471E-84ED-412C-B4E5-2801B83B9DAE";
name = public.background;
paths = (
{
closed = 1;
nodes = (
"129 31 LINE SMOOTH",
"108 31 OFFCURVE",
"102 25 OFFCURVE",
"102 4 CURVE SMOOTH",
"102 -100 LINE",
"133 -100 LINE SMOOTH",
"154 -100 OFFCURVE",
"160 -94 OFFCURVE",
"160 -73 CURVE SMOOTH",
"160 31 LINE"
);
}
);
width = 251;
},
{
anchors = (
{
name = _bottom;
position = "{138, 0}";
}
);
layerId = "02C7D3CC-A397-42E8-8789-73F6D8E29B25";
paths = (
{
closed = 1;
nodes = (
"129 31 LINE SMOOTH",
"108 31 OFFCURVE",
"102 25 OFFCURVE",
"102 4 CURVE SMOOTH",
"102 -100 LINE",
"133 -100 LINE SMOOTH",
"154 -100 OFFCURVE",
"160 -94 OFFCURVE",
"160 -73 CURVE SMOOTH",
"160 31 LINE"
);
}
);
width = 251;
}
);
unicode = 00B8;
},
{
glyphname = ordmasculine;
layers = (
{
layerId = "EAE98568-D1D1-402E-95FB-45A2161C7EBA";
name = img;
width = 398;
},
{
layerId = "0D43471E-84ED-412C-B4E5-2801B83B9DAE";
name = public.background;
paths = (
{
closed = 1;
nodes = (
"62 395 LINE SMOOTH",
"62 326 OFFCURVE",
"88 300 OFFCURVE",
"157 300 CURVE SMOOTH",
"241 300 LINE SMOOTH",
"310 300 OFFCURVE",
"336 326 OFFCURVE",
"336 395 CURVE SMOOTH",
"336 605 LINE SMOOTH",
"336 674 OFFCURVE",
"310 700 OFFCURVE",
"241 700 CURVE SMOOTH",
"157 700 LINE SMOOTH",
"88 700 OFFCURVE",
"62 674 OFFCURVE",
"62 605 CURVE"
);
},
{
closed = 1;
nodes = (
"209 642 LINE SMOOTH",
"250 642 OFFCURVE",
"256 626 OFFCURVE",
"256 585 CURVE SMOOTH",
"256 415 LINE SMOOTH",
"256 374 OFFCURVE",
"250 358 OFFCURVE",
"209 358 CURVE SMOOTH",
"189 358 LINE SMOOTH",
"148 358 OFFCURVE",
"142 374 OFFCURVE",
"142 415 CURVE SMOOTH",
"142 585 LINE SMOOTH",
"142 626 OFFCURVE",
"148 642 OFFCURVE",
"189 642 CURVE SMOOTH"
);
}
);
width = 398;
},
{
layerId = "02C7D3CC-A397-42E8-8789-73F6D8E29B25";
paths = (
{
closed = 1;
nodes = (
"62 395 LINE SMOOTH",
"62 326 OFFCURVE",
"88 300 OFFCURVE",
"157 300 CURVE SMOOTH",
"241 300 LINE SMOOTH",
"310 300 OFFCURVE",
"336 326 OFFCURVE",
"336 395 CURVE SMOOTH",
"336 605 LINE SMOOTH",
"336 674 OFFCURVE",
"310 700 OFFCURVE",
"241 700 CURVE SMOOTH",
"157 700 LINE SMOOTH",
"88 700 OFFCURVE",
"62 674 OFFCURVE",
"62 605 CURVE"
);
},
{
closed = 1;
nodes = (
"209 642 LINE SMOOTH",
"250 642 OFFCURVE",
"256 626 OFFCURVE",
"256 585 CURVE SMOOTH",
"256 415 LINE SMOOTH",
"256 374 OFFCURVE",
"250 358 OFFCURVE",
"209 358 CURVE SMOOTH",
"189 358 LINE SMOOTH",
"148 358 OFFCURVE",
"142 374 OFFCURVE",
"142 415 CURVE SMOOTH",
"142 585 LINE SMOOTH",
"142 626 OFFCURVE",
"148 642 OFFCURVE",
"189 642 CURVE SMOOTH"
);
}
);
width = 398;
}
);
unicode = 00BA;
},
{
glyphname = guillemotright;
layers = (
{
layerId = "0D43471E-84ED-412C-B4E5-2801B83B9DAE";
name = public.background;
paths = (
{
closed = 1;
nodes = (
"318 299 LINE",
"260 357 LINE SMOOTH",
"240 377 OFFCURVE",
"222 410 OFFCURVE",
"222 439 CURVE SMOOTH",
"222 450 OFFCURVE",
"224 459 OFFCURVE",
"230 468 CURVE",
"398 302 LINE",
"398 292 LINE",
"232 127 LINE",
"226 136 OFFCURVE",
"223 146 OFFCURVE",
"223 157 CURVE SMOOTH",
"223 186 OFFCURVE",
"241 219 OFFCURVE",
"261 239 CURVE SMOOTH",
"318 297 LINE"
);
},
{
closed = 1;
nodes = (
"163 299 LINE",
"105 357 LINE SMOOTH",
"85 377 OFFCURVE",
"67 410 OFFCURVE",
"67 439 CURVE SMOOTH",
"67 450 OFFCURVE",
"69 459 OFFCURVE",
"75 468 CURVE",
"243 302 LINE",
"243 292 LINE",
"77 127 LINE",
"71 136 OFFCURVE",
"68 146 OFFCURVE",
"68 157 CURVE SMOOTH",
"68 186 OFFCURVE",
"86 219 OFFCURVE",
"106 239 CURVE SMOOTH",
"163 297 LINE"
);
}
);
width = 445;
},
{
components = (
{
name = guillemotleft;
transform = "{-1, 0, 0, 1, 444, 0}";
alignment = -1;
}
);
layerId = "02C7D3CC-A397-42E8-8789-73F6D8E29B25";
width = 445;
}
);
leftKerningGroup = _KERN_guilsinglright;
rightKerningGroup = _KERN_guilsinglright;
unicode = 00BB;
},
{
glyphname = onequarter;
layers = (
{
layerId = "0D43471E-84ED-412C-B4E5-2801B83B9DAE";
name = public.background;
paths = (
{
closed = 1;
nodes = (
"457 714 LINE SMOOTH",
"436 714 OFFCURVE",
"427 708 OFFCURVE",
"417 687 CURVE SMOOTH",
"82 0 LINE",
"135 0 LINE SMOOTH",
"156 0 OFFCURVE",
"165 6 OFFCURVE",
"175 27 CURVE SMOOTH",
"510 714 LINE"
);
},
{
closed = 1;
nodes = (
"147 700 LINE",
"94 689 OFFCURVE",
"67 671 OFFCURVE",
"67 617 CURVE SMOOTH",
"67 300 LINE",
"120 300 LINE SMOOTH",
"141 300 OFFCURVE",
"147 306 OFFCURVE",
"147 327 CURVE SMOOTH"
);
},
{
closed = 1;
nodes = (
"485 400 LINE",
"364 136 LINE",
"364 105 LINE SMOOTH",
"364 84 OFFCURVE",
"370 78 OFFCURVE",
"391 78 CURVE SMOOTH",
"501 78 LINE",
"501 1 LINE",
"549 1 LINE SMOOTH",
"570 1 OFFCURVE",
"576 7 OFFCURVE",
"576 28 CURVE SMOOTH",
"576 78 LINE",
"619 78 OFFCURVE",
"632 98 OFFCURVE",
"640 136 CURVE",
"576 136 LINE",
"576 400 LINE"
);
},
{
closed = 1;
nodes = (
"428 136 LINE",
"499 291 LINE",
"501 291 LINE",
"501 136 LINE"
);
}
);
width = 685;
},
{
components = (
{
name = fraction;
transform = "{1, 0, 0, 1, 71, 0}";
alignment = -1;
},
{
name = onesuperior;
alignment = -1;
},
{
name = foursuperior;
transform = "{1, 0, 0, 1, 325, -300}";
alignment = -1;
}
);
layerId = "02C7D3CC-A397-42E8-8789-73F6D8E29B25";
width = 685;
}
);
unicode = 00BC;
},
{
glyphname = onehalf;
layers = (
{
layerId = "0D43471E-84ED-412C-B4E5-2801B83B9DAE";
name = public.background;
paths = (
{
closed = 1;
nodes = (
"452 714 LINE SMOOTH",
"431 714 OFFCURVE",
"422 708 OFFCURVE",
"412 687 CURVE SMOOTH",
"77 0 LINE",
"130 0 LINE SMOOTH",
"151 0 OFFCURVE",
"160 6 OFFCURVE",
"170 27 CURVE SMOOTH",
"505 714 LINE"
);
},
{
closed = 1;
nodes = (
"142 700 LINE",
"89 689 OFFCURVE",
"62 671 OFFCURVE",
"62 617 CURVE SMOOTH",
"62 300 LINE",
"115 300 LINE SMOOTH",
"136 300 OFFCURVE",
"142 306 OFFCURVE",
"142 327 CURVE SMOOTH"
);
},
{
closed = 1;
nodes = (
"602 0 LINE SMOOTH",
"623 0 OFFCURVE",
"629 6 OFFCURVE",
"629 27 CURVE SMOOTH",
"629 58 LINE",
"485 58 LINE",
"544 124 OFFCURVE",
"629 187 OFFCURVE",
"629 248 CURVE SMOOTH",
"629 305 LINE SMOOTH",
"629 374 OFFCURVE",
"603 400 OFFCURVE",
"534 400 CURVE SMOOTH",
"455 400 LINE SMOOTH",
"416 400 OFFCURVE",
"403 380 OFFCURVE",
"395 342 CURVE",
"502 342 LINE SMOOTH",
"543 342 OFFCURVE",
"549 326 OFFCURVE",
"549 285 CURVE SMOOTH",
"549 258 LINE SMOOTH",
"549 194 OFFCURVE",
"532 210 OFFCURVE",
"396 58 CURVE",
"396 0 LINE"
);
}
);
width = 681;
},
{
components = (
{
name = fraction;
transform = "{1, 0, 0, 1, 66, 0}";
alignment = -1;
},
{
name = onesuperior;
transform = "{1, 0, 0, 1, -5, 0}";
alignment = -1;
},
{
name = twosuperior;
transform = "{1, 0, 0, 1, 339, -300}";
alignment = -1;
}
);
layerId = "02C7D3CC-A397-42E8-8789-73F6D8E29B25";
width = 681;
}
);
unicode = 00BD;
},
{
glyphname = threequarters;
layers = (
{
layerId = "0D43471E-84ED-412C-B4E5-2801B83B9DAE";
name = public.background;
paths = (
{
closed = 1;
nodes = (
"581 714 LINE SMOOTH",
"560 714 OFFCURVE",
"551 708 OFFCURVE",
"541 687 CURVE SMOOTH",
"206 0 LINE",
"259 0 LINE SMOOTH",
"280 0 OFFCURVE",
"289 6 OFFCURVE",
"299 27 CURVE SMOOTH",
"634 714 LINE"
);
},
{
closed = 1;
nodes = (
"609 400 LINE",
"488 136 LINE",
"488 105 LINE SMOOTH",
"488 84 OFFCURVE",
"494 78 OFFCURVE",
"515 78 CURVE SMOOTH",
"625 78 LINE",
"625 1 LINE",
"673 1 LINE SMOOTH",
"694 1 OFFCURVE",
"700 7 OFFCURVE",
"700 28 CURVE SMOOTH",
"700 78 LINE",
"743 78 OFFCURVE",
"756 98 OFFCURVE",
"764 136 CURVE",
"700 136 LINE",
"700 400 LINE"
);
},
{
closed = 1;
nodes = (
"552 136 LINE",
"623 291 LINE",
"625 291 LINE",
"625 136 LINE"
);
},
{
closed = 1;
nodes = (
"131 553 LINE SMOOTH",
"110 553 OFFCURVE",
"104 547 OFFCURVE",
"104 526 CURVE SMOOTH",
"104 495 LINE",
"151 495 LINE SMOOTH",
"192 495 OFFCURVE",
"208 479 OFFCURVE",
"208 438 CURVE SMOOTH",
"208 377 OFFCURVE",
"202 358 OFFCURVE",
"161 358 CURVE SMOOTH",
"54 358 LINE",
"62 320 OFFCURVE",
"75 300 OFFCURVE",
"114 300 CURVE SMOOTH",
"193 300 LINE SMOOTH",
"262 300 OFFCURVE",
"288 329 OFFCURVE",
"288 438 CURVE SMOOTH",
"288 490 OFFCURVE",
"270 518 OFFCURVE",
"233 528 CURVE",
"233 530 LINE",
"272 538 OFFCURVE",
"288 558 OFFCURVE",
"288 610 CURVE SMOOTH",
"288 671 OFFCURVE",
"262 700 OFFCURVE",
"193 700 CURVE SMOOTH",
"114 700 LINE SMOOTH",
"75 700 OFFCURVE",
"62 680 OFFCURVE",
"54 642 CURVE",
"161 642 LINE SMOOTH",
"202 642 OFFCURVE",
"208 624 OFFCURVE",
"208 590 CURVE SMOOTH",
"208 564 OFFCURVE",
"193 554 OFFCURVE",
"168 553 CURVE"
);
}
);
width = 809;
},
{
components = (
{
name = fraction;
transform = "{1, 0, 0, 1, 195, 0}";
alignment = -1;
},
{
name = foursuperior;
transform = "{1, 0, 0, 1, 449, -300}";
alignment = -1;
},
{
name = threesuperior;
transform = "{1, 0, 0, 1, 1, 0}";
alignment = -1;
}
);
layerId = "02C7D3CC-A397-42E8-8789-73F6D8E29B25";
width = 809;
}
);
unicode = 00BE;
},
{
glyphname = questiondown;
layers = (
{
layerId = "0D43471E-84ED-412C-B4E5-2801B83B9DAE";
name = public.background;
paths = (
{
closed = 1;
nodes = (
"194 398 LINE SMOOTH",
"194 377 OFFCURVE",
"200 371 OFFCURVE",
"221 371 CURVE SMOOTH",
"282 371 LINE",
"282 424 LINE SMOOTH",
"282 445 OFFCURVE",
"276 451 OFFCURVE",
"255 451 CURVE SMOOTH",
"194 451 LINE"
);
},
{
closed = 1;
nodes = (
"282 295 LINE",
"229 295 LINE SMOOTH",
"208 295 OFFCURVE",
"202 289 OFFCURVE",
"202 268 CURVE SMOOTH",
"202 156 LINE SMOOTH",
"202 115 OFFCURVE",
"196 99 OFFCURVE",
"155 99 CURVE SMOOTH",
"148 99 LINE SMOOTH",
"79 99 OFFCURVE",
"53 73 OFFCURVE",
"53 4 CURVE SMOOTH",
"53 -154 LINE SMOOTH",
"53 -223 OFFCURVE",
"79 -249 OFFCURVE",
"148 -249 CURVE SMOOTH",
"269 -249 LINE SMOOTH",
"308 -249 OFFCURVE",
"321 -229 OFFCURVE",
"329 -191 CURVE",
"180 -191 LINE SMOOTH",
"139 -191 OFFCURVE",
"133 -175 OFFCURVE",
"133 -134 CURVE SMOOTH",
"133 -16 LINE SMOOTH",
"133 25 OFFCURVE",
"139 41 OFFCURVE",
"180 41 CURVE SMOOTH",
"187 41 LINE SMOOTH",
"256 41 OFFCURVE",
"282 67 OFFCURVE",
"282 136 CURVE SMOOTH"
);
}
);
width = 379;
},
{
components = (
{
name = question;
transform = "{-1, 0, 0, -1, 378, 451}";
alignment = -1;
}
);
layerId = "02C7D3CC-A397-42E8-8789-73F6D8E29B25";
width = 379;
}
);
unicode = 00BF;
},
{
glyphname = multiply;
layers = (
{
layerId = "0D43471E-84ED-412C-B4E5-2801B83B9DAE";
name = public.background;
paths = (
{
closed = 1;
nodes = (
"112 467 LINE SMOOTH",
"97 452 OFFCURVE",
"97 443 OFFCURVE",
"112 428 CURVE SMOOTH",
"177 362 LINE",
"92 277 LINE",
"114 255 LINE",
"128 240 OFFCURVE",
"137 240 OFFCURVE",
"152 255 CURVE SMOOTH",
"218 321 LINE",
"305 235 LINE",
"326 257 LINE SMOOTH",
"341 272 OFFCURVE",
"341 281 OFFCURVE",
"326 296 CURVE SMOOTH",
"259 362 LINE",
"345 448 LINE",
"323 470 LINE SMOOTH",
"308 485 OFFCURVE",
"300 485 OFFCURVE",
"285 470 CURVE SMOOTH",
"218 403 LINE",
"133 489 LINE"
);
}
);
width = 436;
},
{
layerId = "02C7D3CC-A397-42E8-8789-73F6D8E29B25";
paths = (
{
closed = 1;
nodes = (
"112 467 LINE SMOOTH",
"97 452 OFFCURVE",
"97 443 OFFCURVE",
"112 428 CURVE SMOOTH",
"177 362 LINE",
"92 277 LINE",
"114 255 LINE",
"128 240 OFFCURVE",
"137 240 OFFCURVE",
"152 255 CURVE SMOOTH",
"218 321 LINE",
"305 235 LINE",
"326 257 LINE SMOOTH",
"341 272 OFFCURVE",
"341 281 OFFCURVE",
"326 296 CURVE SMOOTH",
"259 362 LINE",
"345 448 LINE",
"323 470 LINE SMOOTH",
"308 485 OFFCURVE",
"300 485 OFFCURVE",
"285 470 CURVE SMOOTH",
"218 403 LINE",
"133 489 LINE"
);
}
);
width = 436;
}
);
unicode = 00D7;
},
{
glyphname = eth;
layers = (
{
layerId = "0D43471E-84ED-412C-B4E5-2801B83B9DAE";
name = public.background;
paths = (
{
closed = 1;
nodes = (
"390 660 LINE SMOOTH",
"390 729 OFFCURVE",
"367 755 OFFCURVE",
"298 755 CURVE SMOOTH",
"279 755 LINE SMOOTH",
"240 755 OFFCURVE",
"227 735 OFFCURVE",
"219 697 CURVE",
"266 697 LINE SMOOTH",
"307 697 OFFCURVE",
"313 681 OFFCURVE",
"313 640 CURVE SMOOTH",
"313 626 LINE",
"239 626 LINE",
"239 595 LINE SMOOTH",
"239 574 OFFCURVE",
"245 568 OFFCURVE",
"266 568 CURVE SMOOTH",
"313 568 LINE",
"313 508 LINE",
"158 508 LINE SMOOTH",
"89 508 OFFCURVE",
"63 482 OFFCURVE",
"63 413 CURVE SMOOTH",
"63 95 LINE SMOOTH",
"63 26 OFFCURVE",
"89 0 OFFCURVE",
"158 0 CURVE SMOOTH",
"298 0 LINE SMOOTH",
"367 0 OFFCURVE",
"390 26 OFFCURVE",
"390 95 CURVE SMOOTH",
"390 568 LINE",
"458 568 LINE",
"458 599 LINE SMOOTH",
"458 620 OFFCURVE",
"452 626 OFFCURVE",
"431 626 CURVE SMOOTH",
"390 626 LINE"
);
},
{
closed = 1;
nodes = (
"313 450 LINE",
"313 115 LINE SMOOTH",
"313 74 OFFCURVE",
"307 58 OFFCURVE",
"266 58 CURVE SMOOTH",
"190 58 LINE SMOOTH",
"149 58 OFFCURVE",
"143 74 OFFCURVE",
"143 115 CURVE SMOOTH",
"143 393 LINE SMOOTH",
"143 434 OFFCURVE",
"149 450 OFFCURVE",
"190 450 CURVE SMOOTH"
);
}
);
width = 456;
},
{
layerId = "02C7D3CC-A397-42E8-8789-73F6D8E29B25";
paths = (
{
closed = 1;
nodes = (
"390 660 LINE SMOOTH",
"390 729 OFFCURVE",
"367 755 OFFCURVE",
"298 755 CURVE SMOOTH",
"279 755 LINE SMOOTH",
"240 755 OFFCURVE",
"227 735 OFFCURVE",
"219 697 CURVE",
"266 697 LINE SMOOTH",
"307 697 OFFCURVE",
"313 681 OFFCURVE",
"313 640 CURVE SMOOTH",
"313 626 LINE",
"239 626 LINE",
"239 595 LINE SMOOTH",
"239 574 OFFCURVE",
"245 568 OFFCURVE",
"266 568 CURVE SMOOTH",
"313 568 LINE",
"313 508 LINE",
"158 508 LINE SMOOTH",
"89 508 OFFCURVE",
"63 482 OFFCURVE",
"63 413 CURVE SMOOTH",
"63 95 LINE SMOOTH",
"63 26 OFFCURVE",
"89 0 OFFCURVE",
"158 0 CURVE SMOOTH",
"298 0 LINE SMOOTH",
"367 0 OFFCURVE",
"390 26 OFFCURVE",
"390 95 CURVE SMOOTH",
"390 568 LINE",
"458 568 LINE",
"458 599 LINE SMOOTH",
"458 620 OFFCURVE",
"452 626 OFFCURVE",
"431 626 CURVE SMOOTH",
"390 626 LINE"
);
},
{
closed = 1;
nodes = (
"313 450 LINE",
"313 115 LINE SMOOTH",
"313 74 OFFCURVE",
"307 58 OFFCURVE",
"266 58 CURVE SMOOTH",
"190 58 LINE SMOOTH",
"149 58 OFFCURVE",
"143 74 OFFCURVE",
"143 115 CURVE SMOOTH",
"143 393 LINE SMOOTH",
"143 434 OFFCURVE",
"149 450 OFFCURVE",
"190 450 CURVE SMOOTH"
);
}
);
width = 456;
}
);
leftKerningGroup = _KERN_o_2ND;
rightKerningGroup = _KERN_u_1ST;
unicode = 00F0;
},
{
glyphname = divide;
layers = (
{
layerId = "0D43471E-84ED-412C-B4E5-2801B83B9DAE";
name = public.background;
paths = (
{
closed = 1;
nodes = (
"255 523 LINE SMOOTH",
"255 544 OFFCURVE",
"249 550 OFFCURVE",
"228 550 CURVE SMOOTH",
"167 550 LINE",
"167 497 LINE SMOOTH",
"167 476 OFFCURVE",
"173 470 OFFCURVE",
"194 470 CURVE SMOOTH",
"255 470 LINE"
);
},
{
closed = 1;
nodes = (
"255 203 LINE SMOOTH",
"255 224 OFFCURVE",
"249 230 OFFCURVE",
"228 230 CURVE SMOOTH",
"167 230 LINE",
"167 177 LINE SMOOTH",
"167 156 OFFCURVE",
"173 150 OFFCURVE",
"194 150 CURVE SMOOTH",
"255 150 LINE"
);
},
{
closed = 1;
nodes = (
"68 359 LINE SMOOTH",
"68 338 OFFCURVE",
"74 332 OFFCURVE",
"95 332 CURVE SMOOTH",
"368 332 LINE",
"368 363 LINE SMOOTH",
"368 384 OFFCURVE",
"362 390 OFFCURVE",
"341 390 CURVE SMOOTH",
"68 390 LINE"
);
}
);
width = 436;
},
{
layerId = "02C7D3CC-A397-42E8-8789-73F6D8E29B25";
paths = (
{
closed = 1;
nodes = (
"255 523 LINE SMOOTH",
"255 544 OFFCURVE",
"249 550 OFFCURVE",
"228 550 CURVE SMOOTH",
"167 550 LINE",
"167 497 LINE SMOOTH",
"167 476 OFFCURVE",
"173 470 OFFCURVE",
"194 470 CURVE SMOOTH",
"255 470 LINE"
);
},
{
closed = 1;
nodes = (
"255 203 LINE SMOOTH",
"255 224 OFFCURVE",
"249 230 OFFCURVE",
"228 230 CURVE SMOOTH",
"167 230 LINE",
"167 177 LINE SMOOTH",
"167 156 OFFCURVE",
"173 150 OFFCURVE",
"194 150 CURVE SMOOTH",
"255 150 LINE"
);
},
{
closed = 1;
nodes = (
"68 359 LINE SMOOTH",
"68 338 OFFCURVE",
"74 332 OFFCURVE",
"95 332 CURVE SMOOTH",
"368 332 LINE",
"368 363 LINE SMOOTH",
"368 384 OFFCURVE",
"362 390 OFFCURVE",
"341 390 CURVE SMOOTH",
"68 390 LINE"
);
}
);
width = 436;
}
);
unicode = 00F7;
},
{
glyphname = OE;
layers = (
{
layerId = "0D43471E-84ED-412C-B4E5-2801B83B9DAE";
name = public.background;
paths = (
{
closed = 1;
nodes = (
"550 334 LINE SMOOTH",
"571 334 OFFCURVE",
"575 340 OFFCURVE",
"575 361 CURVE SMOOTH",
"575 392 LINE",
"414 392 LINE",
"414 642 LINE",
"580 642 LINE SMOOTH",
"601 642 OFFCURVE",
"605 648 OFFCURVE",
"605 669 CURVE SMOOTH",
"605 700 LINE",
"165 700 LINE SMOOTH",
"96 700 OFFCURVE",
"70 674 OFFCURVE",
"70 605 CURVE SMOOTH",
"70 95 LINE SMOOTH",
"70 26 OFFCURVE",
"96 0 OFFCURVE",
"165 0 CURVE SMOOTH",
"319 0 LINE",
"334 0 LINE",
"578 0 LINE SMOOTH",
"599 0 OFFCURVE",
"605 6 OFFCURVE",
"605 27 CURVE SMOOTH",
"605 58 LINE",
"414 58 LINE",
"414 334 LINE"
);
},
{
closed = 1;
nodes = (
"150 585 LINE SMOOTH",
"150 626 OFFCURVE",
"156 642 OFFCURVE",
"197 642 CURVE SMOOTH",
"334 642 LINE",
"334 58 LINE",
"197 58 LINE SMOOTH",
"156 58 OFFCURVE",
"150 74 OFFCURVE",
"150 115 CURVE SMOOTH"
);
}
);
width = 651;
},
{
guideLines = (
{
position = "{0, 58}";
}
);
layerId = "02C7D3CC-A397-42E8-8789-73F6D8E29B25";
paths = (
{
closed = 1;
nodes = (
"550 334 LINE SMOOTH",
"571 334 OFFCURVE",
"575 340 OFFCURVE",
"575 361 CURVE SMOOTH",
"575 392 LINE",
"414 392 LINE",
"414 642 LINE",
"580 642 LINE SMOOTH",
"601 642 OFFCURVE",
"605 648 OFFCURVE",
"605 669 CURVE SMOOTH",
"605 700 LINE",
"165 700 LINE SMOOTH",
"96 700 OFFCURVE",
"70 674 OFFCURVE",
"70 605 CURVE SMOOTH",
"70 95 LINE SMOOTH",
"70 26 OFFCURVE",
"96 0 OFFCURVE",
"165 0 CURVE SMOOTH",
"319 0 LINE",
"334 0 LINE",
"578 0 LINE SMOOTH",
"599 0 OFFCURVE",
"605 6 OFFCURVE",
"605 27 CURVE SMOOTH",
"605 58 LINE",
"414 58 LINE",
"414 334 LINE"
);
},
{
closed = 1;
nodes = (
"150 585 LINE SMOOTH",
"150 626 OFFCURVE",
"156 642 OFFCURVE",
"197 642 CURVE SMOOTH",
"334 642 LINE",
"334 58 LINE",
"197 58 LINE SMOOTH",
"156 58 OFFCURVE",
"150 74 OFFCURVE",
"150 115 CURVE SMOOTH"
);
}
);
width = 651;
}
);
leftKerningGroup = _KERN_O_2ND;
rightKerningGroup = _KERN_E_1ST;
unicode = 0152;
},
{
glyphname = circumflex;
layers = (
{
layerId = "0D43471E-84ED-412C-B4E5-2801B83B9DAE";
name = public.background;
paths = (
{
closed = 1;
nodes = (
"225 700 LINE",
"166 700 LINE SMOOTH",
"153 700 OFFCURVE",
"144 695 OFFCURVE",
"133 682 CURVE SMOOTH",
"60 593 LINE SMOOTH",
"51 582 OFFCURVE",
"56 568 OFFCURVE",
"75 568 CURVE SMOOTH",
"99 568 LINE",
"184 652 LINE",
"269 568 LINE",
"296 568 LINE SMOOTH",
"315 568 OFFCURVE",
"320 582 OFFCURVE",
"311 593 CURVE SMOOTH"
);
}
);
width = 370;
},
{
anchors = (
{
name = _top;
position = "{184, 550}";
}
);
guideLines = (
{
angle = 90;
position = "{139, 0}";
},
{
angle = 90;
position = "{184, 0}";
}
);
layerId = "02C7D3CC-A397-42E8-8789-73F6D8E29B25";
paths = (
{
closed = 1;
nodes = (
"225 700 LINE",
"166 700 LINE SMOOTH",
"153 700 OFFCURVE",
"144 695 OFFCURVE",
"133 682 CURVE SMOOTH",
"60 593 LINE SMOOTH",
"51 582 OFFCURVE",
"56 568 OFFCURVE",
"75 568 CURVE SMOOTH",
"99 568 LINE",
"184 652 LINE",
"269 568 LINE",
"296 568 LINE SMOOTH",
"315 568 OFFCURVE",
"320 582 OFFCURVE",
"311 593 CURVE SMOOTH"
);
}
);
width = 370;
}
);
unicode = 02C6;
},
{
glyphname = ring;
layers = (
{
layerId = "0D43471E-84ED-412C-B4E5-2801B83B9DAE";
name = public.background;
paths = (
{
closed = 1;
nodes = (
"160 565 LINE SMOOTH",
"210 565 OFFCURVE",
"229 578 OFFCURVE",
"229 627 CURVE SMOOTH",
"229 666 LINE SMOOTH",
"229 715 OFFCURVE",
"210 728 OFFCURVE",
"160 728 CURVE SMOOTH",
"129 728 LINE SMOOTH",
"79 728 OFFCURVE",
"60 715 OFFCURVE",
"60 666 CURVE SMOOTH",
"60 627 LINE SMOOTH",
"60 578 OFFCURVE",
"79 565 OFFCURVE",
"129 565 CURVE"
);
},
{
closed = 1;
nodes = (
"108 651 LINE SMOOTH",
"108 690 OFFCURVE",
"112 692 OFFCURVE",
"144 692 CURVE SMOOTH",
"177 692 OFFCURVE",
"181 690 OFFCURVE",
"181 651 CURVE SMOOTH",
"181 642 LINE SMOOTH",
"181 603 OFFCURVE",
"177 601 OFFCURVE",
"145 601 CURVE SMOOTH",
"112 601 OFFCURVE",
"108 603 OFFCURVE",
"108 642 CURVE SMOOTH"
);
}
);
width = 289;
},
{
anchors = (
{
name = _top;
position = "{146, 550}";
}
);
layerId = "02C7D3CC-A397-42E8-8789-73F6D8E29B25";
paths = (
{
closed = 1;
nodes = (
"160 565 LINE SMOOTH",
"210 565 OFFCURVE",
"229 578 OFFCURVE",
"229 627 CURVE SMOOTH",
"229 666 LINE SMOOTH",
"229 715 OFFCURVE",
"210 728 OFFCURVE",
"160 728 CURVE SMOOTH",
"129 728 LINE SMOOTH",
"79 728 OFFCURVE",
"60 715 OFFCURVE",
"60 666 CURVE SMOOTH",
"60 627 LINE SMOOTH",
"60 578 OFFCURVE",
"79 565 OFFCURVE",
"129 565 CURVE"
);
},
{
closed = 1;
nodes = (
"108 651 LINE SMOOTH",
"108 690 OFFCURVE",
"112 692 OFFCURVE",
"144 692 CURVE SMOOTH",
"177 692 OFFCURVE",
"181 690 OFFCURVE",
"181 651 CURVE SMOOTH",
"181 642 LINE SMOOTH",
"181 603 OFFCURVE",
"177 601 OFFCURVE",
"145 601 CURVE SMOOTH",
"112 601 OFFCURVE",
"108 603 OFFCURVE",
"108 642 CURVE SMOOTH"
);
}
);
width = 289;
}
);
unicode = 02DA;
},
{
glyphname = endash;
layers = (
{
layerId = "0D43471E-84ED-412C-B4E5-2801B83B9DAE";
name = public.background;
paths = (
{
closed = 1;
nodes = (
"66 361 LINE SMOOTH",
"66 340 OFFCURVE",
"72 334 OFFCURVE",
"93 334 CURVE SMOOTH",
"366 334 LINE",
"366 365 LINE SMOOTH",
"366 386 OFFCURVE",
"360 392 OFFCURVE",
"339 392 CURVE SMOOTH",
"66 392 LINE"
);
}
);
width = 432;
},
{
layerId = "02C7D3CC-A397-42E8-8789-73F6D8E29B25";
paths = (
{
closed = 1;
nodes = (
"66 361 LINE SMOOTH",
"66 340 OFFCURVE",
"72 334 OFFCURVE",
"93 334 CURVE SMOOTH",
"366 334 LINE",
"366 365 LINE SMOOTH",
"366 386 OFFCURVE",
"360 392 OFFCURVE",
"339 392 CURVE SMOOTH",
"66 392 LINE"
);
}
);
width = 432;
}
);
leftKerningGroup = _KERN_hyphen;
rightKerningGroup = _KERN_hyphen;
unicode = 2013;
},
{
glyphname = emdash;
layers = (
{
layerId = "0D43471E-84ED-412C-B4E5-2801B83B9DAE";
name = public.background;
paths = (
{
closed = 1;
nodes = (
"53 361 LINE SMOOTH",
"53 340 OFFCURVE",
"59 334 OFFCURVE",
"80 334 CURVE SMOOTH",
"507 334 LINE",
"507 365 LINE SMOOTH",
"507 386 OFFCURVE",
"501 392 OFFCURVE",
"480 392 CURVE SMOOTH",
"53 392 LINE"
);
}
);
width = 549;
},
{
layerId = "02C7D3CC-A397-42E8-8789-73F6D8E29B25";
paths = (
{
closed = 1;
nodes = (
"53 361 LINE SMOOTH",
"53 340 OFFCURVE",
"59 334 OFFCURVE",
"80 334 CURVE SMOOTH",
"507 334 LINE",
"507 365 LINE SMOOTH",
"507 386 OFFCURVE",
"501 392 OFFCURVE",
"480 392 CURVE SMOOTH",
"53 392 LINE"
);
}
);
width = 549;
}
);
leftKerningGroup = _KERN_hyphen;
rightKerningGroup = _KERN_hyphen;
unicode = 2014;
},
{
glyphname = quoteleft;
layers = (
{
layerId = "0D43471E-84ED-412C-B4E5-2801B83B9DAE";
name = public.background;
paths = (
{
closed = 1;
nodes = (
"116 786 LINE",
"78 778 OFFCURVE",
"58 765 OFFCURVE",
"58 722 CURVE SMOOTH",
"58 647 LINE SMOOTH",
"58 626 OFFCURVE",
"64 620 OFFCURVE",
"85 620 CURVE SMOOTH",
"146 620 LINE",
"146 673 LINE SMOOTH",
"146 694 OFFCURVE",
"140 700 OFFCURVE",
"119 700 CURVE SMOOTH",
"116 700 LINE"
);
}
);
width = 205;
},
{
layerId = "02C7D3CC-A397-42E8-8789-73F6D8E29B25";
paths = (
{
closed = 1;
nodes = (
"116 786 LINE",
"78 778 OFFCURVE",
"58 765 OFFCURVE",
"58 722 CURVE SMOOTH",
"58 647 LINE SMOOTH",
"58 626 OFFCURVE",
"64 620 OFFCURVE",
"85 620 CURVE SMOOTH",
"146 620 LINE",
"146 673 LINE SMOOTH",
"146 694 OFFCURVE",
"140 700 OFFCURVE",
"119 700 CURVE SMOOTH",
"116 700 LINE"
);
}
);
width = 205;
}
);
leftKerningGroup = _KERN_quoteleft;
rightKerningGroup = _KERN_quoteleft;
unicode = 2018;
},
{
glyphname = quoteright;
layers = (
{
layerId = "0D43471E-84ED-412C-B4E5-2801B83B9DAE";
name = public.background;
paths = (
{
closed = 1;
nodes = (
"82 534 LINE",
"120 542 OFFCURVE",
"140 555 OFFCURVE",
"140 598 CURVE SMOOTH",
"140 673 LINE SMOOTH",
"140 694 OFFCURVE",
"134 700 OFFCURVE",
"113 700 CURVE SMOOTH",
"52 700 LINE",
"52 647 LINE SMOOTH",
"52 626 OFFCURVE",
"58 620 OFFCURVE",
"79 620 CURVE SMOOTH",
"82 620 LINE"
);
}
);
width = 197;
},
{
layerId = "02C7D3CC-A397-42E8-8789-73F6D8E29B25";
paths = (
{
closed = 1;
nodes = (
"82 534 LINE",
"120 542 OFFCURVE",
"140 555 OFFCURVE",
"140 598 CURVE SMOOTH",
"140 673 LINE SMOOTH",
"140 694 OFFCURVE",
"134 700 OFFCURVE",
"113 700 CURVE SMOOTH",
"52 700 LINE",
"52 647 LINE SMOOTH",
"52 626 OFFCURVE",
"58 620 OFFCURVE",
"79 620 CURVE SMOOTH",
"82 620 LINE"
);
}
);
width = 197;
}
);
leftKerningGroup = _KERN_quoteright;
rightKerningGroup = _KERN_quoteright;
unicode = 2019;
},
{
glyphname = quotesinglbase;
layers = (
{
layerId = "0D43471E-84ED-412C-B4E5-2801B83B9DAE";
name = public.background;
paths = (
{
closed = 1;
nodes = (
"95 -86 LINE",
"133 -78 OFFCURVE",
"153 -65 OFFCURVE",
"153 -22 CURVE SMOOTH",
"153 53 LINE SMOOTH",
"153 74 OFFCURVE",
"147 80 OFFCURVE",
"126 80 CURVE SMOOTH",
"65 80 LINE",
"65 27 LINE SMOOTH",
"65 6 OFFCURVE",
"71 0 OFFCURVE",
"92 0 CURVE SMOOTH",
"95 0 LINE"
);
}
);
width = 215;
},
{
layerId = "02C7D3CC-A397-42E8-8789-73F6D8E29B25";
paths = (
{
closed = 1;
nodes = (
"95 -86 LINE",
"133 -78 OFFCURVE",
"153 -65 OFFCURVE",
"153 -22 CURVE SMOOTH",
"153 53 LINE SMOOTH",
"153 74 OFFCURVE",
"147 80 OFFCURVE",
"126 80 CURVE SMOOTH",
"65 80 LINE",
"65 27 LINE SMOOTH",
"65 6 OFFCURVE",
"71 0 OFFCURVE",
"92 0 CURVE SMOOTH",
"95 0 LINE"
);
}
);
width = 215;
}
);
leftKerningGroup = _KERN_period;
rightKerningGroup = _KERN_period;
unicode = 201A;
},
{
glyphname = quotedblleft;
layers = (
{
layerId = "0D43471E-84ED-412C-B4E5-2801B83B9DAE";
name = public.background;
paths = (
{
closed = 1;
nodes = (
"116 786 LINE",
"78 778 OFFCURVE",
"58 765 OFFCURVE",
"58 722 CURVE SMOOTH",
"58 647 LINE SMOOTH",
"58 626 OFFCURVE",
"64 620 OFFCURVE",
"85 620 CURVE SMOOTH",
"146 620 LINE",
"146 673 LINE SMOOTH",
"146 694 OFFCURVE",
"140 700 OFFCURVE",
"119 700 CURVE SMOOTH",
"116 700 LINE"
);
},
{
closed = 1;
nodes = (
"256 786 LINE",
"218 778 OFFCURVE",
"198 765 OFFCURVE",
"198 722 CURVE SMOOTH",
"198 647 LINE SMOOTH",
"198 626 OFFCURVE",
"204 620 OFFCURVE",
"225 620 CURVE SMOOTH",
"286 620 LINE",
"286 673 LINE SMOOTH",
"286 694 OFFCURVE",
"280 700 OFFCURVE",
"259 700 CURVE SMOOTH",
"256 700 LINE"
);
}
);
width = 345;
},
{
components = (
{
name = quoteleft;
alignment = -1;
},
{
name = quoteleft;
transform = "{1, 0, 0, 1, 140, 0}";
alignment = -1;
}
);
layerId = "02C7D3CC-A397-42E8-8789-73F6D8E29B25";
width = 345;
}
);
leftKerningGroup = _KERN_quoteleft;
rightKerningGroup = _KERN_quoteleft;
unicode = 201C;
},
{
glyphname = quotedblright;
layers = (
{
layerId = "0D43471E-84ED-412C-B4E5-2801B83B9DAE";
name = public.background;
paths = (
{
closed = 1;
nodes = (
"82 534 LINE",
"120 542 OFFCURVE",
"140 555 OFFCURVE",
"140 598 CURVE SMOOTH",
"140 673 LINE SMOOTH",
"140 694 OFFCURVE",
"134 700 OFFCURVE",
"113 700 CURVE SMOOTH",
"52 700 LINE",
"52 647 LINE SMOOTH",
"52 626 OFFCURVE",
"58 620 OFFCURVE",
"79 620 CURVE SMOOTH",
"82 620 LINE"
);
},
{
closed = 1;
nodes = (
"222 534 LINE",
"260 542 OFFCURVE",
"280 555 OFFCURVE",
"280 598 CURVE SMOOTH",
"280 673 LINE SMOOTH",
"280 694 OFFCURVE",
"274 700 OFFCURVE",
"253 700 CURVE SMOOTH",
"192 700 LINE",
"192 647 LINE SMOOTH",
"192 626 OFFCURVE",
"198 620 OFFCURVE",
"219 620 CURVE SMOOTH",
"222 620 LINE"
);
}
);
width = 337;
},
{
components = (
{
name = quoteright;
alignment = -1;
},
{
name = quoteright;
transform = "{1, 0, 0, 1, 140, 0}";
alignment = -1;
}
);
layerId = "02C7D3CC-A397-42E8-8789-73F6D8E29B25";
width = 337;
}
);
leftKerningGroup = _KERN_quoteright;
rightKerningGroup = _KERN_quoteright;
unicode = 201D;
},
{
glyphname = quotedblbase;
layers = (
{
layerId = "0D43471E-84ED-412C-B4E5-2801B83B9DAE";
name = public.background;
paths = (
{
closed = 1;
nodes = (
"95 -86 LINE",
"133 -78 OFFCURVE",
"153 -65 OFFCURVE",
"153 -22 CURVE SMOOTH",
"153 53 LINE SMOOTH",
"153 74 OFFCURVE",
"147 80 OFFCURVE",
"126 80 CURVE SMOOTH",
"65 80 LINE",
"65 27 LINE SMOOTH",
"65 6 OFFCURVE",
"71 0 OFFCURVE",
"92 0 CURVE SMOOTH",
"95 0 LINE"
);
},
{
closed = 1;
nodes = (
"235 -86 LINE",
"273 -78 OFFCURVE",
"293 -65 OFFCURVE",
"293 -22 CURVE SMOOTH",
"293 53 LINE SMOOTH",
"293 74 OFFCURVE",
"287 80 OFFCURVE",
"266 80 CURVE SMOOTH",
"205 80 LINE",
"205 27 LINE SMOOTH",
"205 6 OFFCURVE",
"211 0 OFFCURVE",
"232 0 CURVE SMOOTH",
"235 0 LINE"
);
}
);
width = 355;
},
{
layerId = "02C7D3CC-A397-42E8-8789-73F6D8E29B25";
paths = (
{
closed = 1;
nodes = (
"95 -86 LINE",
"133 -78 OFFCURVE",
"153 -65 OFFCURVE",
"153 -22 CURVE SMOOTH",
"153 53 LINE SMOOTH",
"153 74 OFFCURVE",
"147 80 OFFCURVE",
"126 80 CURVE SMOOTH",
"65 80 LINE",
"65 27 LINE SMOOTH",
"65 6 OFFCURVE",
"71 0 OFFCURVE",
"92 0 CURVE SMOOTH",
"95 0 LINE"
);
},
{
closed = 1;
nodes = (
"235 -86 LINE",
"273 -78 OFFCURVE",
"293 -65 OFFCURVE",
"293 -22 CURVE SMOOTH",
"293 53 LINE SMOOTH",
"293 74 OFFCURVE",
"287 80 OFFCURVE",
"266 80 CURVE SMOOTH",
"205 80 LINE",
"205 27 LINE SMOOTH",
"205 6 OFFCURVE",
"211 0 OFFCURVE",
"232 0 CURVE SMOOTH",
"235 0 LINE"
);
}
);
width = 355;
}
);
leftKerningGroup = _KERN_period;
rightKerningGroup = _KERN_period;
unicode = 201E;
},
{
glyphname = bullet;
layers = (
{
layerId = "0D43471E-84ED-412C-B4E5-2801B83B9DAE";
name = public.background;
paths = (
{
closed = 1;
nodes = (
"54 283 OFFCURVE",
"92 258 OFFCURVE",
"143 258 CURVE SMOOTH",
"192 258 OFFCURVE",
"232 283 OFFCURVE",
"232 356 CURVE SMOOTH",
"232 430 OFFCURVE",
"192 454 OFFCURVE",
"143 454 CURVE SMOOTH",
"92 454 OFFCURVE",
"54 430 OFFCURVE",
"54 356 CURVE SMOOTH"
);
}
);
width = 285;
},
{
layerId = "02C7D3CC-A397-42E8-8789-73F6D8E29B25";
paths = (
{
closed = 1;
nodes = (
"54 283 OFFCURVE",
"92 258 OFFCURVE",
"143 258 CURVE SMOOTH",
"192 258 OFFCURVE",
"232 283 OFFCURVE",
"232 356 CURVE SMOOTH",
"232 430 OFFCURVE",
"192 454 OFFCURVE",
"143 454 CURVE SMOOTH",
"92 454 OFFCURVE",
"54 430 OFFCURVE",
"54 356 CURVE SMOOTH"
);
}
);
width = 285;
}
);
unicode = 2022;
},
{
glyphname = guilsinglleft;
layers = (
{
layerId = "0D43471E-84ED-412C-B4E5-2801B83B9DAE";
name = public.background;
paths = (
{
closed = 1;
nodes = (
"126 299 LINE",
"184 357 LINE SMOOTH",
"204 377 OFFCURVE",
"222 410 OFFCURVE",
"222 439 CURVE SMOOTH",
"222 450 OFFCURVE",
"220 459 OFFCURVE",
"214 468 CURVE",
"46 302 LINE",
"46 292 LINE",
"212 127 LINE",
"218 136 OFFCURVE",
"221 146 OFFCURVE",
"221 157 CURVE SMOOTH",
"221 186 OFFCURVE",
"203 219 OFFCURVE",
"183 239 CURVE SMOOTH",
"126 297 LINE"
);
}
);
width = 290;
},
{
layerId = "02C7D3CC-A397-42E8-8789-73F6D8E29B25";
paths = (
{
closed = 1;
nodes = (
"126 299 LINE",
"184 357 LINE SMOOTH",
"204 377 OFFCURVE",
"222 410 OFFCURVE",
"222 439 CURVE SMOOTH",
"222 450 OFFCURVE",
"220 459 OFFCURVE",
"214 468 CURVE",
"46 302 LINE",
"46 292 LINE",
"212 127 LINE",
"218 136 OFFCURVE",
"221 146 OFFCURVE",
"221 157 CURVE SMOOTH",
"221 186 OFFCURVE",
"203 219 OFFCURVE",
"183 239 CURVE SMOOTH",
"126 297 LINE"
);
}
);
width = 290;
}
);
leftKerningGroup = _KERN_guilsinglleft;
rightKerningGroup = _KERN_guilsinglleft;
unicode = 2039;
},
{
glyphname = guilsinglright;
layers = (
{
layerId = "0D43471E-84ED-412C-B4E5-2801B83B9DAE";
name = public.background;
paths = (
{
closed = 1;
nodes = (
"163 299 LINE",
"105 357 LINE SMOOTH",
"85 377 OFFCURVE",
"67 410 OFFCURVE",
"67 439 CURVE SMOOTH",
"67 450 OFFCURVE",
"69 459 OFFCURVE",
"75 468 CURVE",
"243 302 LINE",
"243 292 LINE",
"77 127 LINE",
"71 136 OFFCURVE",
"68 146 OFFCURVE",
"68 157 CURVE SMOOTH",
"68 186 OFFCURVE",
"86 219 OFFCURVE",
"106 239 CURVE SMOOTH",
"163 297 LINE"
);
}
);
width = 290;
},
{
components = (
{
name = guilsinglleft;
transform = "{-1, 0, 0, 1, 289, 0}";
alignment = -1;
}
);
layerId = "02C7D3CC-A397-42E8-8789-73F6D8E29B25";
width = 290;
}
);
leftKerningGroup = _KERN_guilsinglright;
rightKerningGroup = _KERN_guilsinglright;
unicode = 203A;
},
{
glyphname = fraction;
layers = (
{
layerId = "0D43471E-84ED-412C-B4E5-2801B83B9DAE";
name = public.background;
paths = (
{
closed = 1;
nodes = (
"386 714 LINE SMOOTH",
"365 714 OFFCURVE",
"356 708 OFFCURVE",
"346 687 CURVE SMOOTH",
"11 0 LINE",
"64 0 LINE SMOOTH",
"85 0 OFFCURVE",
"94 6 OFFCURVE",
"104 27 CURVE SMOOTH",
"439 714 LINE"
);
}
);
width = 449;
},
{
layerId = "02C7D3CC-A397-42E8-8789-73F6D8E29B25";
paths = (
{
closed = 1;
nodes = (
"386 714 LINE SMOOTH",
"365 714 OFFCURVE",
"356 708 OFFCURVE",
"346 687 CURVE SMOOTH",
"11 0 LINE",
"64 0 LINE SMOOTH",
"85 0 OFFCURVE",
"94 6 OFFCURVE",
"104 27 CURVE SMOOTH",
"439 714 LINE"
);
}
);
width = 449;
}
);
unicode = 2044;
},
{
glyphname = Euro;
layers = (
{
layerId = "EAE98568-D1D1-402E-95FB-45A2161C7EBA";
name = img;
width = 454;
},
{
layerId = "0D43471E-84ED-412C-B4E5-2801B83B9DAE";
name = public.background;
paths = (
{
closed = 1;
nodes = (
"51 413 LINE SMOOTH",
"51 392 OFFCURVE",
"57 386 OFFCURVE",
"78 386 CURVE SMOOTH",
"351 386 LINE",
"351 417 LINE SMOOTH",
"351 438 OFFCURVE",
"345 444 OFFCURVE",
"324 444 CURVE SMOOTH",
"51 444 LINE"
);
},
{
closed = 1;
nodes = (
"51 278 LINE SMOOTH",
"51 257 OFFCURVE",
"57 251 OFFCURVE",
"78 251 CURVE SMOOTH",
"351 251 LINE",
"351 282 LINE SMOOTH",
"351 303 OFFCURVE",
"345 309 OFFCURVE",
"324 309 CURVE SMOOTH",
"51 309 LINE"
);
},
{
closed = 1;
nodes = (
"374 0 LINE SMOOTH",
"395 0 OFFCURVE",
"399 6 OFFCURVE",
"399 27 CURVE SMOOTH",
"399 58 LINE",
"242 58 LINE SMOOTH",
"201 58 OFFCURVE",
"195 74 OFFCURVE",
"195 115 CURVE SMOOTH",
"195 585 LINE SMOOTH",
"195 626 OFFCURVE",
"201 642 OFFCURVE",
"242 642 CURVE SMOOTH",
"399 642 LINE",
"391 680 OFFCURVE",
"378 700 OFFCURVE",
"339 700 CURVE SMOOTH",
"210 700 LINE SMOOTH",
"141 700 OFFCURVE",
"115 674 OFFCURVE",
"115 605 CURVE SMOOTH",
"115 95 LINE SMOOTH",
"115 26 OFFCURVE",
"141 0 OFFCURVE",
"210 0 CURVE SMOOTH"
);
}
);
width = 454;
},
{
components = (
{
name = C;
transform = "{1, 0, 0, 1, 45, 0}";
alignment = -1;
}
);
layerId = "02C7D3CC-A397-42E8-8789-73F6D8E29B25";
paths = (
{
closed = 1;
nodes = (
"51 413 LINE SMOOTH",
"51 392 OFFCURVE",
"57 386 OFFCURVE",
"78 386 CURVE SMOOTH",
"351 386 LINE",
"351 417 LINE SMOOTH",
"351 438 OFFCURVE",
"345 444 OFFCURVE",
"324 444 CURVE SMOOTH",
"51 444 LINE"
);
},
{
closed = 1;
nodes = (
"51 278 LINE SMOOTH",
"51 257 OFFCURVE",
"57 251 OFFCURVE",
"78 251 CURVE SMOOTH",
"351 251 LINE",
"351 282 LINE SMOOTH",
"351 303 OFFCURVE",
"345 309 OFFCURVE",
"324 309 CURVE SMOOTH",
"51 309 LINE"
);
}
);
width = 454;
}
);
unicode = 20AC;
},
{
glyphname = currency;
layers = (
{
layerId = "EAE98568-D1D1-402E-95FB-45A2161C7EBA";
name = img;
width = 508;
},
{
layerId = "0D43471E-84ED-412C-B4E5-2801B83B9DAE";
name = public.background;
paths = (
{
closed = 1;
nodes = (
"91 195 LINE SMOOTH",
"106 180 OFFCURVE",
"114 180 OFFCURVE",
"129 195 CURVE SMOOTH",
"185 251 LINE",
"190 250 OFFCURVE",
"196 250 OFFCURVE",
"203 250 CURVE SMOOTH",
"301 250 LINE SMOOTH",
"314 250 OFFCURVE",
"326 251 OFFCURVE",
"336 253 CURVE",
"406 183 LINE",
"443 220 LINE SMOOTH",
"458 235 OFFCURVE",
"458 243 OFFCURVE",
"443 258 CURVE SMOOTH",
"392 308 LINE",
"395 319 OFFCURVE",
"396 331 OFFCURVE",
"396 345 CURVE SMOOTH",
"396 465 LINE SMOOTH",
"396 482 OFFCURVE",
"394 497 OFFCURVE",
"390 509 CURVE",
"455 574 LINE",
"418 611 LINE SMOOTH",
"403 626 OFFCURVE",
"395 626 OFFCURVE",
"380 611 CURVE SMOOTH",
"327 558 LINE",
"319 559 OFFCURVE",
"310 560 OFFCURVE",
"301 560 CURVE SMOOTH",
"203 560 LINE SMOOTH",
"190 560 OFFCURVE",
"179 559 OFFCURVE",
"169 557 CURVE",
"103 623 LINE",
"66 586 LINE SMOOTH",
"51 571 OFFCURVE",
"51 563 OFFCURVE",
"66 548 CURVE SMOOTH",
"111 502 LINE",
"109 491 OFFCURVE",
"108 479 OFFCURVE",
"108 465 CURVE SMOOTH",
"108 345 LINE SMOOTH",
"108 324 OFFCURVE",
"110 307 OFFCURVE",
"115 293 CURVE",
"54 232 LINE"
);
},
{
closed = 1;
nodes = (
"188 445 LINE SMOOTH",
"188 486 OFFCURVE",
"204 502 OFFCURVE",
"245 502 CURVE SMOOTH",
"259 502 LINE SMOOTH",
"300 502 OFFCURVE",
"316 486 OFFCURVE",
"316 445 CURVE SMOOTH",
"316 365 LINE SMOOTH",
"316 324 OFFCURVE",
"300 308 OFFCURVE",
"259 308 CURVE SMOOTH",
"245 308 LINE SMOOTH",
"204 308 OFFCURVE",
"188 324 OFFCURVE",
"188 365 CURVE"
);
}
);
width = 508;
},
{
layerId = "02C7D3CC-A397-42E8-8789-73F6D8E29B25";
paths = (
{
closed = 1;
nodes = (
"91 195 LINE SMOOTH",
"106 180 OFFCURVE",
"114 180 OFFCURVE",
"129 195 CURVE SMOOTH",
"185 251 LINE",
"190 250 OFFCURVE",
"196 250 OFFCURVE",
"203 250 CURVE SMOOTH",
"301 250 LINE SMOOTH",
"314 250 OFFCURVE",
"326 251 OFFCURVE",
"336 253 CURVE",
"406 183 LINE",
"443 220 LINE SMOOTH",
"458 235 OFFCURVE",
"458 243 OFFCURVE",
"443 258 CURVE SMOOTH",
"392 308 LINE",
"395 319 OFFCURVE",
"396 331 OFFCURVE",
"396 345 CURVE SMOOTH",
"396 465 LINE SMOOTH",
"396 482 OFFCURVE",
"394 497 OFFCURVE",
"390 509 CURVE",
"455 574 LINE",
"418 611 LINE SMOOTH",
"403 626 OFFCURVE",
"395 626 OFFCURVE",
"380 611 CURVE SMOOTH",
"327 558 LINE",
"319 559 OFFCURVE",
"310 560 OFFCURVE",
"301 560 CURVE SMOOTH",
"203 560 LINE SMOOTH",
"190 560 OFFCURVE",
"179 559 OFFCURVE",
"169 557 CURVE",
"103 623 LINE",
"66 586 LINE SMOOTH",
"51 571 OFFCURVE",
"51 563 OFFCURVE",
"66 548 CURVE SMOOTH",
"111 502 LINE",
"109 491 OFFCURVE",
"108 479 OFFCURVE",
"108 465 CURVE SMOOTH",
"108 345 LINE SMOOTH",
"108 324 OFFCURVE",
"110 307 OFFCURVE",
"115 293 CURVE",
"54 232 LINE"
);
},
{
closed = 1;
nodes = (
"188 445 LINE SMOOTH",
"188 486 OFFCURVE",
"204 502 OFFCURVE",
"245 502 CURVE SMOOTH",
"259 502 LINE SMOOTH",
"300 502 OFFCURVE",
"316 486 OFFCURVE",
"316 445 CURVE SMOOTH",
"316 365 LINE SMOOTH",
"316 324 OFFCURVE",
"300 308 OFFCURVE",
"259 308 CURVE SMOOTH",
"245 308 LINE SMOOTH",
"204 308 OFFCURVE",
"188 324 OFFCURVE",
"188 365 CURVE"
);
}
);
width = 508;
}
);
unicode = 00A4;
},
{
glyphname = mu;
layers = (
{
layerId = "0D43471E-84ED-412C-B4E5-2801B83B9DAE";
name = public.background;
paths = (
{
closed = 1;
nodes = (
"73 -201 LINE",
"126 -201 LINE SMOOTH",
"147 -201 OFFCURVE",
"153 -195 OFFCURVE",
"153 -174 CURVE SMOOTH",
"153 0 LINE",
"168 0 LINE",
"222 0 LINE SMOOTH",
"243 0 OFFCURVE",
"247 6 OFFCURVE",
"247 27 CURVE SMOOTH",
"247 58 LINE",
"200 58 LINE SMOOTH",
"163 58 OFFCURVE",
"154 71 OFFCURVE",
"153 103 CURVE",
"153 450 LINE",
"100 450 LINE SMOOTH",
"79 450 OFFCURVE",
"73 444 OFFCURVE",
"73 423 CURVE"
);
},
{
closed = 1;
nodes = (
"340 0 LINE SMOOTH",
"361 0 OFFCURVE",
"367 6 OFFCURVE",
"367 27 CURVE SMOOTH",
"367 450 LINE",
"314 450 LINE SMOOTH",
"293 450 OFFCURVE",
"287 444 OFFCURVE",
"287 423 CURVE SMOOTH",
"287 0 LINE"
);
}
);
width = 426;
},
{
layerId = "02C7D3CC-A397-42E8-8789-73F6D8E29B25";
paths = (
{
closed = 1;
nodes = (
"73 -201 LINE",
"126 -201 LINE SMOOTH",
"147 -201 OFFCURVE",
"153 -195 OFFCURVE",
"153 -174 CURVE SMOOTH",
"153 0 LINE",
"168 0 LINE",
"222 0 LINE SMOOTH",
"243 0 OFFCURVE",
"247 6 OFFCURVE",
"247 27 CURVE SMOOTH",
"247 58 LINE",
"200 58 LINE SMOOTH",
"163 58 OFFCURVE",
"154 71 OFFCURVE",
"153 103 CURVE",
"153 450 LINE",
"100 450 LINE SMOOTH",
"79 450 OFFCURVE",
"73 444 OFFCURVE",
"73 423 CURVE"
);
},
{
closed = 1;
nodes = (
"340 0 LINE SMOOTH",
"361 0 OFFCURVE",
"367 6 OFFCURVE",
"367 27 CURVE SMOOTH",
"367 450 LINE",
"314 450 LINE SMOOTH",
"293 450 OFFCURVE",
"287 444 OFFCURVE",
"287 423 CURVE SMOOTH",
"287 0 LINE"
);
}
);
width = 426;
}
);
unicode = 00B5,03BC;
},
{
glyphname = twosuperior;
layers = (
{
layerId = "EAE98568-D1D1-402E-95FB-45A2161C7EBA";
name = img;
width = 352;
},
{
layerId = "0D43471E-84ED-412C-B4E5-2801B83B9DAE";
name = public.background;
paths = (
{
closed = 1;
nodes = (
"263 300 LINE SMOOTH",
"284 300 OFFCURVE",
"290 306 OFFCURVE",
"290 327 CURVE SMOOTH",
"290 358 LINE",
"146 358 LINE",
"205 424 OFFCURVE",
"290 487 OFFCURVE",
"290 548 CURVE SMOOTH",
"290 605 LINE SMOOTH",
"290 674 OFFCURVE",
"264 700 OFFCURVE",
"195 700 CURVE SMOOTH",
"116 700 LINE SMOOTH",
"77 700 OFFCURVE",
"64 680 OFFCURVE",
"56 642 CURVE",
"163 642 LINE SMOOTH",
"204 642 OFFCURVE",
"210 626 OFFCURVE",
"210 585 CURVE SMOOTH",
"210 558 LINE SMOOTH",
"210 494 OFFCURVE",
"193 510 OFFCURVE",
"57 358 CURVE",
"57 300 LINE"
);
}
);
width = 352;
},
{
layerId = "02C7D3CC-A397-42E8-8789-73F6D8E29B25";
paths = (
{
closed = 1;
nodes = (
"263 300 LINE SMOOTH",
"284 300 OFFCURVE",
"290 306 OFFCURVE",
"290 327 CURVE SMOOTH",
"290 358 LINE",
"146 358 LINE",
"205 424 OFFCURVE",
"290 487 OFFCURVE",
"290 548 CURVE SMOOTH",
"290 605 LINE SMOOTH",
"290 674 OFFCURVE",
"264 700 OFFCURVE",
"195 700 CURVE SMOOTH",
"116 700 LINE SMOOTH",
"77 700 OFFCURVE",
"64 680 OFFCURVE",
"56 642 CURVE",
"163 642 LINE SMOOTH",
"204 642 OFFCURVE",
"210 626 OFFCURVE",
"210 585 CURVE SMOOTH",
"210 558 LINE SMOOTH",
"210 494 OFFCURVE",
"193 510 OFFCURVE",
"57 358 CURVE",
"57 300 LINE"
);
}
);
width = 352;
}
);
unicode = 00B2;
},
{
glyphname = threesuperior;
layers = (
{
layerId = "EAE98568-D1D1-402E-95FB-45A2161C7EBA";
name = img;
width = 346;
},
{
layerId = "0D43471E-84ED-412C-B4E5-2801B83B9DAE";
name = public.background;
paths = (
{
closed = 1;
nodes = (
"130 553 LINE SMOOTH",
"109 553 OFFCURVE",
"103 547 OFFCURVE",
"103 526 CURVE SMOOTH",
"103 495 LINE",
"150 495 LINE SMOOTH",
"191 495 OFFCURVE",
"207 479 OFFCURVE",
"207 438 CURVE SMOOTH",
"207 377 OFFCURVE",
"201 358 OFFCURVE",
"160 358 CURVE SMOOTH",
"53 358 LINE",
"61 320 OFFCURVE",
"74 300 OFFCURVE",
"113 300 CURVE SMOOTH",
"192 300 LINE SMOOTH",
"261 300 OFFCURVE",
"287 329 OFFCURVE",
"287 438 CURVE SMOOTH",
"287 490 OFFCURVE",
"269 518 OFFCURVE",
"232 528 CURVE",
"232 530 LINE",
"271 538 OFFCURVE",
"287 558 OFFCURVE",
"287 610 CURVE SMOOTH",
"287 671 OFFCURVE",
"261 700 OFFCURVE",
"192 700 CURVE SMOOTH",
"113 700 LINE SMOOTH",
"74 700 OFFCURVE",
"61 680 OFFCURVE",
"53 642 CURVE",
"160 642 LINE SMOOTH",
"201 642 OFFCURVE",
"207 624 OFFCURVE",
"207 590 CURVE SMOOTH",
"207 564 OFFCURVE",
"192 554 OFFCURVE",
"167 553 CURVE"
);
}
);
width = 346;
},
{
layerId = "02C7D3CC-A397-42E8-8789-73F6D8E29B25";
paths = (
{
closed = 1;
nodes = (
"130 553 LINE SMOOTH",
"109 553 OFFCURVE",
"103 547 OFFCURVE",
"103 526 CURVE SMOOTH",
"103 495 LINE",
"150 495 LINE SMOOTH",
"191 495 OFFCURVE",
"207 479 OFFCURVE",
"207 438 CURVE SMOOTH",
"207 377 OFFCURVE",
"201 358 OFFCURVE",
"160 358 CURVE SMOOTH",
"53 358 LINE",
"61 320 OFFCURVE",
"74 300 OFFCURVE",
"113 300 CURVE SMOOTH",
"192 300 LINE SMOOTH",
"261 300 OFFCURVE",
"287 329 OFFCURVE",
"287 438 CURVE SMOOTH",
"287 490 OFFCURVE",
"269 518 OFFCURVE",
"232 528 CURVE",
"232 530 LINE",
"271 538 OFFCURVE",
"287 558 OFFCURVE",
"287 610 CURVE SMOOTH",
"287 671 OFFCURVE",
"261 700 OFFCURVE",
"192 700 CURVE SMOOTH",
"113 700 LINE SMOOTH",
"74 700 OFFCURVE",
"61 680 OFFCURVE",
"53 642 CURVE",
"160 642 LINE SMOOTH",
"201 642 OFFCURVE",
"207 624 OFFCURVE",
"207 590 CURVE SMOOTH",
"207 564 OFFCURVE",
"192 554 OFFCURVE",
"167 553 CURVE"
);
}
);
width = 346;
}
);
unicode = 00B3;
},
{
glyphname = onesuperior;
layers = (
{
layerId = "0D43471E-84ED-412C-B4E5-2801B83B9DAE";
name = public.background;
paths = (
{
closed = 1;
nodes = (
"147 700 LINE",
"94 689 OFFCURVE",
"67 671 OFFCURVE",
"67 617 CURVE SMOOTH",
"67 300 LINE",
"120 300 LINE SMOOTH",
"141 300 OFFCURVE",
"147 306 OFFCURVE",
"147 327 CURVE SMOOTH"
);
}
);
width = 215;
},
{
layerId = "02C7D3CC-A397-42E8-8789-73F6D8E29B25";
paths = (
{
closed = 1;
nodes = (
"147 700 LINE",
"94 689 OFFCURVE",
"67 671 OFFCURVE",
"67 617 CURVE SMOOTH",
"67 300 LINE",
"120 300 LINE SMOOTH",
"141 300 OFFCURVE",
"147 306 OFFCURVE",
"147 327 CURVE SMOOTH"
);
}
);
width = 215;
}
);
unicode = 00B9;
},
{
glyphname = minus;
layers = (
{
layerId = "0D43471E-84ED-412C-B4E5-2801B83B9DAE";
name = public.background;
paths = (
{
closed = 1;
nodes = (
"68 359 LINE SMOOTH",
"68 338 OFFCURVE",
"74 332 OFFCURVE",
"95 332 CURVE SMOOTH",
"368 332 LINE",
"368 363 LINE SMOOTH",
"368 384 OFFCURVE",
"362 390 OFFCURVE",
"341 390 CURVE SMOOTH",
"68 390 LINE"
);
}
);
width = 436;
},
{
layerId = "02C7D3CC-A397-42E8-8789-73F6D8E29B25";
paths = (
{
closed = 1;
nodes = (
"68 359 LINE SMOOTH",
"68 338 OFFCURVE",
"74 332 OFFCURVE",
"95 332 CURVE SMOOTH",
"368 332 LINE",
"368 363 LINE SMOOTH",
"368 384 OFFCURVE",
"362 390 OFFCURVE",
"341 390 CURVE SMOOTH",
"68 390 LINE"
);
}
);
width = 436;
}
);
unicode = 2212;
},
{
glyphname = caron;
layers = (
{
layerId = "0D43471E-84ED-412C-B4E5-2801B83B9DAE";
name = public.background;
paths = (
{
closed = 1;
nodes = (
"151 589 LINE",
"210 589 LINE SMOOTH",
"223 589 OFFCURVE",
"232 594 OFFCURVE",
"243 607 CURVE SMOOTH",
"316 696 LINE SMOOTH",
"325 707 OFFCURVE",
"320 721 OFFCURVE",
"301 721 CURVE SMOOTH",
"277 721 LINE",
"192 637 LINE",
"107 721 LINE",
"80 721 LINE SMOOTH",
"61 721 OFFCURVE",
"56 707 OFFCURVE",
"65 696 CURVE SMOOTH"
);
}
);
width = 390;
},
{
anchors = (
{
name = _top;
position = "{193, 550}";
}
);
guideLines = (
{
angle = 90;
position = "{193, 0}";
}
);
layerId = "02C7D3CC-A397-42E8-8789-73F6D8E29B25";
paths = (
{
closed = 1;
nodes = (
"151 589 LINE",
"210 589 LINE SMOOTH",
"223 589 OFFCURVE",
"232 594 OFFCURVE",
"243 607 CURVE SMOOTH",
"316 696 LINE SMOOTH",
"325 707 OFFCURVE",
"320 721 OFFCURVE",
"301 721 CURVE SMOOTH",
"277 721 LINE",
"192 637 LINE",
"107 721 LINE",
"80 721 LINE SMOOTH",
"61 721 OFFCURVE",
"56 707 OFFCURVE",
"65 696 CURVE SMOOTH"
);
}
);
width = 390;
}
);
unicode = 02C7;
},
